<?xml version="1.0" encoding="utf-8"?>
<!-- Generator: Adobe Illustrator 26.3.1, SVG Export Plug-In . SVG Version: 6.00 Build 0)  -->
<svg version="1.1" id="Layer_1" xmlns="http://www.w3.org/2000/svg" xmlns:xlink="http://www.w3.org/1999/xlink" x="0px" y="0px"
	 viewBox="0 0 72 50" style="enable-background:new 0 0 72 50;" xml:space="preserve">
<style type="text/css">
	.st0{fill-rule:evenodd;clip-rule:evenodd;fill:#1C1D21;}
	.st1{filter:url(#Adobe_OpacityMaskFilter);}
	.st2{fill-rule:evenodd;clip-rule:evenodd;fill:#FFFFFF;}
	.st3{mask:url(#mask-2_00000069387753715069263430000014568749392167275149_);fill-rule:evenodd;clip-rule:evenodd;fill:#4C71B8;}
	.st4{filter:url(#Adobe_OpacityMaskFilter_00000134945132345398489820000011750610428132089790_);}
	.st5{mask:url(#mask-4_00000147195340522610304440000011487701218421316272_);fill-rule:evenodd;clip-rule:evenodd;fill:#1C1D21;}
	.st6{filter:url(#Adobe_OpacityMaskFilter_00000171682027075349245950000012043245111669833111_);}
	.st7{mask:url(#mask-6_00000134935690601377524310000015744783797384700059_);fill-rule:evenodd;clip-rule:evenodd;fill:#1C1D21;}
	.st8{filter:url(#Adobe_OpacityMaskFilter_00000047033480954881975570000014096331749728747155_);}
	.st9{mask:url(#mask-6_00000172403786459693126980000004525026653200425875_);fill-rule:evenodd;clip-rule:evenodd;fill:#1C1D21;}
	.st10{filter:url(#Adobe_OpacityMaskFilter_00000178906681610946354880000010406593975367634845_);}
	.st11{mask:url(#mask-6_00000028284606743575378860000000004219365494794141_);fill-rule:evenodd;clip-rule:evenodd;fill:#1C1D21;}
</style>
<g id="Page-1">
	<path id="Fill-1" class="st0" d="M42.3,44.6L39.2,33h-4.1l-3.1,11.6l-2.6-10.3c-0.9,1.2-2.1,2.1-3.5,2.6c-0.1,0-0.2,0.1-0.4,0.1
		l3.7,12.4h4.8l3.1-10.5l3,10.5H45L50,33h-4.7L42.3,44.6z"/>
	<g id="Group-5" transform="translate(0.000000, 24.134216)">
		<g id="Clip-4">
		</g>
		<defs>
			<filter id="Adobe_OpacityMaskFilter" filterUnits="userSpaceOnUse" x="0" y="0.4" width="29.4" height="25.1">
				<feColorMatrix  type="matrix" values="1 0 0 0 0  0 1 0 0 0  0 0 1 0 0  0 0 0 1 0"/>
			</filter>
		</defs>
		
			<mask maskUnits="userSpaceOnUse" x="0" y="0.4" width="29.4" height="25.1" id="mask-2_00000069387753715069263430000014568749392167275149_">
			<g class="st1">
				<polygon id="path-1_00000065049023797749458310000011212174984661041538_" class="st2" points="0,0.4 29.4,0.4 29.4,25.5 
					0,25.5 				"/>
			</g>
		</mask>
		<path id="Fill-3" class="st3" d="M28.2,9c0.8-1.1,1.2-2.3,1.2-3.6c0-1.4-0.5-2.6-1.4-3.6c-0.9-1-2.1-1.5-3.5-1.5
			c-1.3,0-2.4,0.4-3.3,1.1C20.3,2.1,19.9,3,19.9,4c0,0.6,0.2,1.2,0.6,1.7c0.3,0.3,0.8,0.8,1.8,0.8c0.6,0,1.2-0.2,1.6-0.7
			c0.4-0.4,0.7-1,0.7-1.5c0-0.5-0.2-1-0.5-1.4c-0.2-0.3-0.2-0.4-0.2-0.4c0.1,0,0.2-0.1,0.7-0.1c0.7,0,1.2,0.2,1.7,0.7
			c0.5,0.5,0.7,1.1,0.7,1.8c0,1.3-0.5,2.3-1.6,2.9c-1.2,0.7-3.1,1.1-5.7,1.1c-3.3,0-5.5,0.6-6.8,1.9c-1.3,1.3-1.9,2.7-1.9,4.2
			c0,1.1,0.4,2.1,1.2,2.8c0.8,0.8,1.7,1.2,2.8,1.2c0.9,0,1.7-0.3,2.3-0.9c0.6-0.6,0.9-1.3,0.9-2.2c0-0.7-0.2-1.2-0.6-1.6
			c-0.4-0.4-0.9-0.6-1.5-0.6c-0.6,0-1.1,0.2-1.5,0.7c-0.4,0.4-0.6,1-0.6,1.6c0,0.1,0,0.2,0,0.4l0,0.2c0,0,0,0.1,0,0.1c0,0,0,0-0.1,0
			c-0.2,0-0.4-0.1-0.7-0.4c-0.3-0.3-0.4-0.7-0.4-1.2c0-0.9,0.4-1.6,1.3-2.1c0.9-0.6,1.9-0.9,3.1-0.9c1.4,0,2.6,0.4,3.4,1.2
			c0.8,0.8,1.2,1.7,1.2,2.8c0,1.6-0.9,3-2.6,4.3c-1.8,1.2-4,1.9-6.5,1.9c-2.7,0-4.9-0.8-6.7-2.4c-1.8-1.6-2.6-3.2-2.6-4.9
			c0-0.8,0.3-1.5,0.8-2.1c0.5-0.6,1.1-0.9,1.6-0.9c0.4,0,0.9,0.2,1.3,0.6c0.7,0.6,1.2,0.8,1.7,0.8c0.6,0,1-0.3,1.2-0.5
			c0.3-0.3,0.4-0.7,0.4-1c0-0.7-0.4-2-3-2c-0.1,0-0.1,0-0.1,0c0,0-0.1-0.1-0.3-0.6C6.8,8.6,6.7,8.2,6.7,7.7c0-1.2,0.5-2.2,1.5-3.1
			c1-0.9,2-1.4,3.1-1.4c0.7,0,1.2,0.2,1.7,0.5c0.4,0.3,0.6,0.7,0.6,1.2c0,0.4-0.1,0.8-0.2,1.1c-0.2,0.4-0.2,0.6-0.2,0.8
			c0,0.5,0.4,0.9,0.9,0.9c0.6,0,1.2-0.4,1.7-1.1c0.4-0.7,0.7-1.4,0.7-2.2c0-1.1-0.5-2-1.4-2.8c-0.9-0.7-2-1.1-3.4-1.1
			c-1.2,0-2.3,0.3-3.4,0.9C7.2,1.9,6.4,2.7,5.7,3.7C5,4.7,4.6,5.9,4.6,7.1c0,0.8,0.2,1.7,0.5,2.6c-1.5,0.3-2.8,1-3.6,2
			c-1,1.2-1.5,2.6-1.5,4.3c0,1.4,0.3,2.7,1,3.9c0.6,1.2,1.5,2.2,2.6,3c1.1,0.8,2.3,1.4,3.5,1.8c1.2,0.4,2.8,0.6,4.7,0.6
			c2.4,0,4.4-0.4,6.1-1.1c1.7-0.7,3.1-1.8,4.3-3.3c1.2-1.5,1.8-3.1,1.8-4.8c0-1.7-0.6-3.2-1.8-4.4c1.3-0.1,2.3-0.3,3.1-0.6
			C26.5,10.8,27.5,10.1,28.2,9z"/>
	</g>
	<path id="Fill-6" class="st0" d="M10.5,1h4.3v3.4h3.1v3.5h-3.1v6.3c0,2.4,0.8,2.9,2.4,2.9c0.3,0,0.4,0,0.8,0v3.7
		c0,0-0.7,0.2-1.9,0.2c-3.9,0-5.7-2.2-5.7-6.6V7.9H8.7V4.4h1.8V1z"/>
	<path id="Fill-8" class="st0" d="M28.9,8.8c-3.2,0-4.4,2-4.4,5.3v6.7h-4.3V4.4h4.3v2.8c0.7-1.6,2.4-2.8,4.5-2.8V8.8z"/>
	<path id="Fill-10" class="st0" d="M31.2,13.9V4.4h4.3v10c0,1.8,1.3,2.9,2.7,2.9c1.8,0,2.9-1.3,2.9-3.1V4.4h4.3v16.4h-4.3v-1.9
		c-0.7,1.1-2.3,2.3-4.4,2.3C32.2,21.2,31.2,17.4,31.2,13.9"/>
	<path id="Fill-12" class="st0" d="M47.9,18.2l2.6-2.3c0.8,0.9,1.9,1.8,3.8,1.8c1.2,0,2-0.5,2-1.5c0-2.5-7.8-1.5-7.8-7.4
		c0-3,2.6-4.9,6-4.9c3.1,0,4.9,1.6,5.6,2.9l-2.9,2.1c-0.5-0.6-1.4-1.6-3-1.6c-1,0-1.7,0.5-1.7,1.3c0,2.6,7.8,1.3,7.8,7.2
		c0,3.2-2.8,5.2-6.3,5.2C50.8,21.2,48.7,19.6,47.9,18.2"/>
	<g id="Group-16" transform="translate(62.136986, 0.604804)">
		<g id="Clip-15">
		</g>
		<defs>
			
				<filter id="Adobe_OpacityMaskFilter_00000180327898774583195190000003419432900862309004_" filterUnits="userSpaceOnUse" x="0" y="0.4" width="9.3" height="20">
				<feColorMatrix  type="matrix" values="1 0 0 0 0  0 1 0 0 0  0 0 1 0 0  0 0 0 1 0"/>
			</filter>
		</defs>
		
			<mask maskUnits="userSpaceOnUse" x="0" y="0.4" width="9.3" height="20" id="mask-4_00000147195340522610304440000011487701218421316272_">
			<g style="filter:url(#Adobe_OpacityMaskFilter_00000180327898774583195190000003419432900862309004_);">
				<polygon id="path-3_00000096040063046858918340000012653438810231531177_" class="st2" points="0,0.4 9.3,0.4 9.3,20.4 0,20.4 
									"/>
			</g>
		</mask>
		<path id="Fill-14" class="st5" d="M1.8,0.4h4.3v3.4h3.1v3.5H6.1v6.3c0,2.4,0.8,2.9,2.4,2.9c0.3,0,0.4,0,0.8,0v3.7
			c0,0-0.7,0.2-1.9,0.2c-3.9,0-5.7-2.2-5.7-6.6V7.3H0V3.8h1.8V0.4z"/>
	</g>
	<path id="Fill-17" class="st0" d="M54,26.7c-1.4,0-2.5,1.1-2.5,2.5c0,1.4,1.1,2.5,2.5,2.5c1.4,0,2.6-1.1,2.6-2.5
		C56.5,27.8,55.4,26.7,54,26.7"/>
	<g id="Clip-20">
	</g>
	<defs>
		
			<filter id="Adobe_OpacityMaskFilter_00000066515683346855630930000009725372389692282520_" filterUnits="userSpaceOnUse" x="51.8" y="33" width="4.3" height="16.4">
			<feColorMatrix  type="matrix" values="1 0 0 0 0  0 1 0 0 0  0 0 1 0 0  0 0 0 1 0"/>
		</filter>
	</defs>
	
		<mask maskUnits="userSpaceOnUse" x="51.8" y="33" width="4.3" height="16.4" id="mask-6_00000134935690601377524310000015744783797384700059_">
		<g style="filter:url(#Adobe_OpacityMaskFilter_00000066515683346855630930000009725372389692282520_);">
			<polygon id="path-5_00000063591230333974858440000008745715619479106203_" class="st2" points="0,49.6 71.4,49.6 71.4,1 0,1 			
				"/>
		</g>
	</mask>
	<polygon id="Fill-19" class="st7" points="51.8,49.4 56.2,49.4 56.2,33 51.8,33 	"/>
	<defs>
		
			<filter id="Adobe_OpacityMaskFilter_00000063625141964006121310000013736133068003994796_" filterUnits="userSpaceOnUse" x="59.4" y="26.7" width="4.3" height="22.6">
			<feColorMatrix  type="matrix" values="1 0 0 0 0  0 1 0 0 0  0 0 1 0 0  0 0 0 1 0"/>
		</filter>
	</defs>
	
		<mask maskUnits="userSpaceOnUse" x="59.4" y="26.7" width="4.3" height="22.6" id="mask-6_00000172403786459693126980000004525026653200425875_">
		<g style="filter:url(#Adobe_OpacityMaskFilter_00000063625141964006121310000013736133068003994796_);">
			<polygon id="path-5_00000079445114206046040660000011611526646098393495_" class="st2" points="0,49.6 71.4,49.6 71.4,1 0,1 			
				"/>
		</g>
	</mask>
	<polygon id="Fill-21" class="st9" points="59.4,49.4 63.8,49.4 63.8,26.7 59.4,26.7 	"/>
	<defs>
		
			<filter id="Adobe_OpacityMaskFilter_00000027606566808844726180000018006843509550386830_" filterUnits="userSpaceOnUse" x="67.1" y="26.7" width="4.3" height="22.6">
			<feColorMatrix  type="matrix" values="1 0 0 0 0  0 1 0 0 0  0 0 1 0 0  0 0 0 1 0"/>
		</filter>
	</defs>
	
		<mask maskUnits="userSpaceOnUse" x="67.1" y="26.7" width="4.3" height="22.6" id="mask-6_00000028284606743575378860000000004219365494794141_">
		<g style="filter:url(#Adobe_OpacityMaskFilter_00000027606566808844726180000018006843509550386830_);">
			<polygon id="path-5_00000031888589689221462400000013708374854891463051_" class="st2" points="0,49.6 71.4,49.6 71.4,1 0,1 			
				"/>
		</g>
	</mask>
	<polygon id="Fill-22" class="st11" points="67.1,49.4 71.4,49.4 71.4,26.7 67.1,26.7 	"/>
</g>
</svg>
