<svg width="24" height="24" viewBox="0 0 24 24" fill="none" xmlns="http://www.w3.org/2000/svg">
<path fill-rule="evenodd" clip-rule="evenodd" d="M5.63762 5.63789C5.2471 6.02842 5.2471 6.66158 5.63762 7.05211L10.5874 12.0019L5.63762 16.9516C5.2471 17.3421 5.2471 17.9753 5.63762 18.3658C6.02814 18.7563 6.66131 18.7563 7.05183 18.3658L12.0016 13.4161L16.9513 18.3658C17.3419 18.7563 17.975 18.7563 18.3655 18.3658C18.7561 17.9753 18.7561 17.3421 18.3655 16.9516L13.4158 12.0019L18.3655 7.05211C18.7561 6.66158 18.7561 6.02842 18.3655 5.63789C17.975 5.24737 17.3419 5.24737 16.9513 5.63789L12.0016 10.5876L7.05183 5.63789C6.66131 5.24737 6.02814 5.24737 5.63762 5.63789Z" fill="#262429"/>
</svg>
