<svg width="40" height="40" viewBox="0 0 40 40" fill="none" xmlns="http://www.w3.org/2000/svg">
<g clip-path="url(#clip0)">
<path d="M34.6598 18.789C34.5848 18.9399 34.4535 19.0532 34.3223 19.1475C34.191 19.223 34.116 19.1098 34.0409 19.0343C33.4595 18.4871 32.8031 18.0154 32.2405 17.4493C31.7341 16.9399 31.1902 16.4682 30.6651 15.9776C29.296 14.7323 28.0019 13.4115 26.5953 12.2039C26.1452 11.8265 25.7701 11.3737 25.3575 10.9585C24.3447 9.92077 23.2007 9.01508 22.1879 7.97731C21.7566 7.54333 21.3252 7.09049 20.8001 6.75085C20.4813 6.5433 20.2562 6.52443 19.8999 6.82633C18.8684 7.69428 17.8744 8.61884 16.8428 9.48679C15.5675 10.5434 14.4047 11.7322 13.1294 12.7888C12.2479 13.5058 11.4227 14.2983 10.5788 15.0719C9.95985 15.6379 9.32219 16.1851 8.70328 16.7323C8.32819 17.072 7.95309 17.4116 7.61551 17.789C7.33419 18.0909 6.9966 18.3362 6.71528 18.6192C6.56524 18.7701 6.19015 18.6947 6.05886 18.4682C5.92758 18.2607 6.13388 18.1852 6.24641 18.0909C6.56524 17.8078 6.86532 17.5248 7.18415 17.2418C8.1594 16.2983 9.09713 15.3172 10.0911 14.4115C11.1226 13.4303 12.2292 12.5058 13.2794 11.5435C14.2359 10.6755 15.2112 9.80756 16.2614 9.05282C17.6305 8.05278 18.7746 6.82633 20.1062 5.80743C20.275 5.67535 20.3875 5.65648 20.5563 5.80743C21.6065 6.80746 22.6756 7.78862 23.7071 8.78866C24.4198 9.48679 25.1887 10.1095 25.9576 10.7321C26.7266 11.3737 27.4393 12.0529 28.2082 12.6944C29.0334 13.3926 29.8211 14.1473 30.6463 14.8455C31.5466 15.5813 32.3905 16.4116 33.1595 17.2984C33.5533 17.7324 33.9659 18.1475 34.4348 18.5248C34.5286 18.6003 34.6411 18.6569 34.6598 18.789Z" fill="#FAE9CC"/>
<path d="M17.537 22.6194C17.5558 23.2798 17.4807 24.1289 17.6495 24.978C17.6683 25.0723 17.6683 25.1667 17.6495 25.2422C17.4807 26.3931 17.7245 27.5252 17.6495 28.6762C17.6308 29.0159 17.7058 29.3555 17.7433 29.6763C17.7996 30.1102 17.687 30.2612 17.2369 30.2801C15.9804 30.3178 14.7425 30.582 13.486 30.3178C13.1484 30.2423 12.7733 30.2801 12.417 30.3555C12.0606 30.431 11.7043 30.431 11.3479 30.431C10.7478 30.4121 10.654 30.3367 10.654 29.714C10.6728 28.3555 10.579 27.0158 10.3727 25.6761C10.3539 25.5629 10.3727 25.4308 10.3164 25.3365C9.6225 24.2044 9.79129 22.8836 9.58499 21.6571C9.39744 20.5627 9.28492 19.4684 9.13488 18.374C9.0411 17.6947 9.05986 17.657 9.77254 17.6381C10.3352 17.6193 10.8791 17.6004 11.4417 17.6759C11.9481 17.7513 12.4732 17.6759 12.9796 17.6193C14.1987 17.506 15.4365 17.5249 16.6743 17.6004C17.0681 17.6381 17.4807 17.6759 17.8746 17.6759C18.7748 17.6759 19.675 17.6381 20.5565 17.6759C22.7508 17.7513 24.9451 17.7891 27.1394 17.8457C28.0209 17.8645 28.9399 17.8645 29.8214 18.0532C30.3652 18.1664 30.384 18.223 30.3277 18.7702C30.2715 19.4306 30.2527 20.1099 30.2152 20.7892C30.1214 22.0534 30.3277 23.3553 30.0839 24.5629C29.7651 26.1101 29.9526 27.6573 29.8589 29.2045C29.8401 29.4121 29.8589 29.6197 29.8401 29.8083C29.8214 30.0725 29.6713 30.2423 29.4088 30.2423C28.0772 30.1857 26.7643 30.4687 25.4515 30.3744C25.0577 30.3367 24.6638 30.2423 24.2512 30.2612C23.9324 30.2612 23.8011 30.1291 23.7823 29.7706C23.6135 28.0347 23.6886 26.2988 23.6886 24.5629C23.6886 23.5628 23.5948 22.5817 23.4635 21.6005C23.4072 21.2609 23.426 20.9213 23.4072 20.5816C23.3697 20.0344 23.2009 19.9024 22.657 19.8269C21.1567 19.6571 19.6563 19.7891 18.1747 19.8269C17.6308 19.8457 17.5182 19.9778 17.4995 20.525C17.5182 21.2043 17.537 21.8081 17.537 22.6194ZM17.0306 24.5629C16.9556 23.4496 17.0869 22.3175 16.8618 21.2043C16.7493 20.6571 16.5993 20.4495 16.0741 20.4495C15.0426 20.4495 14.0299 20.2986 12.9984 20.4307C12.3044 20.525 12.1544 20.676 12.1356 21.3741C12.1169 22.4496 12.0606 23.5251 12.0981 24.6006C12.1169 25.3176 12.0981 26.0346 12.2482 26.7516C12.3232 27.1101 12.4732 27.28 12.8483 27.3366C14.0674 27.5441 15.3052 27.4309 16.5242 27.4498C16.9556 27.4498 17.0306 27.3366 17.0119 26.9215C17.0306 26.129 17.0306 25.3554 17.0306 24.5629Z" fill="white"/>
<path d="M18.2501 29.7517C18.2689 30.1102 18.4002 30.2045 18.719 30.1857C20.0693 30.1668 21.4197 30.1668 22.77 30.1668C23.2014 30.1668 23.2389 30.1479 23.2014 29.7139C23.0889 28.2422 23.1826 26.7893 23.1076 25.3176C23.0326 23.8458 22.9388 22.3929 22.9013 20.9212C22.8826 20.5438 22.7888 20.4495 22.4324 20.4117C21.0821 20.2608 19.7318 20.3174 18.4002 20.2797C17.9313 20.2608 17.9125 20.2797 17.9313 20.7702C17.9688 21.9212 18.0251 23.0722 18.0626 24.2421C18.1001 26.0534 18.1564 27.9026 18.2501 29.7517ZM22.0761 25.0911C22.3199 25.0911 22.5825 25.3364 22.5825 25.5817C22.5637 25.8648 22.4137 26.0157 22.1699 26.0346C21.8698 26.0346 21.6072 25.827 21.5885 25.5817C21.551 25.3553 21.8135 25.0911 22.0761 25.0911Z" fill="#F0BF6E"/>
<path d="M29.3719 30.6951C28.2467 30.7328 27.1214 30.7705 25.9961 30.7139L29.3719 30.6951Z" fill="#708DC6"/>
<path d="M14.9113 30.7329C13.6547 30.6763 12.3982 30.6952 11.1416 30.6952L14.9113 30.7329Z" fill="#708DC6"/>
<path d="M8.08464 25.0911C8.21592 25.0722 8.34721 25.0722 8.59102 25.0722C8.68479 25.0722 8.90985 25.0722 9.13491 25.0722C9.6788 25.0534 9.6788 25.0534 9.60378 24.4873C9.41623 22.8835 9.20993 21.2796 9.02238 19.6758C8.94736 19.1286 8.87234 18.5814 8.81608 18.0342C8.79732 17.9022 8.77857 17.7701 8.62853 17.7323C8.47849 17.6946 8.38472 17.8078 8.27219 17.8833C8.06589 18.0342 8.08464 18.2607 8.04713 18.4871C7.84083 20.4872 7.63453 22.5061 7.42823 24.5062C7.37196 25.1477 7.37196 25.1477 8.08464 25.0911Z" fill="#FAE9CC"/>
<path d="M31.8658 18.1852C31.5282 18.072 31.1531 18.072 30.8343 18.2041C30.6092 18.2984 30.703 18.6003 30.6842 18.8079C30.6467 19.7891 30.5904 20.7513 30.5717 21.7325C30.5529 22.6759 30.5529 23.6382 30.5342 24.5817C30.5342 24.827 30.5529 25.0156 30.8718 25.0345C31.5657 25.0534 32.2784 25.11 33.0286 25.0534C32.9723 24.7326 32.9348 24.5251 32.916 24.2986C32.691 22.374 32.2971 20.4872 31.997 18.6003C31.9783 18.4494 32.0346 18.223 31.8658 18.1852Z" fill="#FAE9CC"/>
<path d="M33.216 17.3172C31.8282 15.6945 30.1215 14.3926 28.5461 12.9774C27.1207 11.7132 25.6579 10.4868 24.2513 9.22258C23.0322 8.10934 21.8319 6.97722 20.6503 5.84511C20.4065 5.61869 20.2377 5.61869 19.9752 5.84511C19.5251 6.24135 19.0562 6.61872 18.6061 7.01496C16.2617 9.01503 13.8236 10.9396 11.5168 13.0152C9.67882 14.6756 7.97214 16.4304 6.15293 18.0908C5.85285 18.355 5.90912 18.487 6.26546 18.638C6.49052 18.7323 6.64055 18.6569 6.80935 18.5248C7.25946 18.1285 7.74708 17.77 8.15969 17.3361C10.6728 14.8077 13.4673 12.5623 16.0742 10.1283C17.1995 9.07163 18.4185 8.09047 19.5813 7.07157C20.2377 6.50551 20.5566 6.46777 21.1942 7.03383C22.1507 7.88291 23.051 8.80747 24.0262 9.65656C24.9264 10.449 25.7141 11.3547 26.5768 12.1661C28.9775 14.3926 31.3218 16.6945 33.8162 18.8267C34.2663 19.2041 34.2475 19.2041 34.6414 18.6946C34.1538 18.2418 33.6474 17.8078 33.216 17.3172Z" fill="#708DC6"/>
<path d="M13.2801 17.0343C13.5052 16.9966 13.7115 17.0155 13.9366 17.0155C15.2681 17.0155 16.581 17.0721 17.9126 17.0721C20.3882 17.0721 22.8638 17.2419 25.3394 17.2796C27.2149 17.2985 29.0904 17.4872 30.9659 17.5815C31.0971 17.5815 31.2659 17.6759 31.3785 17.4872C31.341 17.3362 31.2284 17.2608 31.1347 17.1853C29.8406 16.0343 28.584 14.8645 27.2712 13.7323C25.5833 12.2606 24.1391 10.5247 22.3949 9.10955C22.0761 8.86426 21.8323 8.54349 21.551 8.26046C21.2322 7.92083 20.8946 7.60006 20.5757 7.26043C20.4257 7.10948 20.2757 7.10948 20.1256 7.26043C19.9943 7.39251 19.8631 7.48685 19.7318 7.61893C17.9688 9.16615 16.2059 10.7322 14.4617 12.2795C12.8675 13.6569 11.2921 15.0531 9.71674 16.4683C9.54795 16.6192 9.34164 16.7702 9.17285 17.1098C10.6357 16.9966 11.9486 17.223 13.2801 17.0343Z" fill="white"/>
<path d="M6.26549 30.2422C6.26549 30.6195 6.67809 30.7139 6.7156 30.7327C6.75311 30.7516 6.90315 30.7327 6.90315 30.7327L11.123 30.695C12.3795 30.695 13.6361 30.695 14.8927 30.7327C14.8927 30.7327 19.8627 30.5629 23.201 30.7327C26.5394 30.9025 23.201 30.7327 23.201 30.7327C23.201 30.7327 30.8717 30.9214 33.2723 31.0346C33.7787 31.0535 33.9662 31.0346 33.9662 31.0346C33.9662 31.0346 34.1538 31.0346 34.2101 30.3742L34.2476 28.4308C34.2663 27.5439 34.2288 26.6571 34.1163 25.7703C34.0788 25.5439 34.0788 25.2797 33.8537 25.2042C33.4786 25.0533 33.4786 24.7514 33.4411 24.4495C33.2723 23.1287 33.066 21.8079 32.7847 20.506C32.6347 19.8267 32.5221 19.1286 32.3721 18.3172C32.916 18.7323 33.3661 19.0908 33.8162 19.4305C34.2101 19.7324 34.6602 19.6191 35.0728 19.1286C35.2978 18.8455 35.2416 18.5814 34.8477 18.2229C34.3038 17.7323 33.7974 17.204 33.3098 16.6568C32.5784 15.8454 31.7907 15.1096 30.9655 14.3926C29.5589 13.1661 28.1335 11.9774 26.7644 10.7321C25.189 9.29805 23.5761 7.92064 22.0757 6.41116C21.6631 5.99605 21.1568 5.65642 20.6879 5.29791C20.4253 5.09036 20.1628 5.05262 19.8627 5.33565C19.5438 5.63755 19.1687 5.88284 18.8312 6.16587C17.9309 6.92061 17.012 7.65648 16.1305 8.41122C16.1305 8.41122 14.7051 9.61881 14.5363 9.75089C12.8296 11.1283 11.273 12.6944 9.64134 14.1473C8.53481 15.1473 7.65334 16.3738 6.49054 17.2983C6.22798 17.5247 5.98416 17.6946 5.79662 17.8266C5.32775 18.1663 5.5153 18.3172 5.62782 18.5814C5.74035 18.8078 5.98416 18.9021 6.19047 19.0342C6.45303 19.204 6.67809 19.1663 6.90315 18.9776C7.10945 18.7889 7.297 18.5625 7.61583 18.4682C7.69085 18.7889 7.59707 19.072 7.55956 19.355C7.22198 21.1286 7.20322 22.94 7.01568 24.7325C6.99692 24.9967 6.97817 25.2231 6.64058 25.242C6.45303 25.242 6.39677 25.4118 6.37801 25.5627C6.35926 25.7326 6.3405 25.8835 6.32175 26.0911C6.32175 26.0911 6.28424 27.9779 6.28424 28.5628L6.26549 30.2422ZM8.06594 18.4493C8.0847 18.2229 8.06594 17.9965 8.291 17.8455C8.40353 17.77 8.4973 17.6568 8.64734 17.6946C8.79738 17.7323 8.81613 17.8644 8.83489 17.9965C8.9099 18.5436 8.98492 19.0908 9.04119 19.638C9.22873 21.2418 9.41628 22.8457 9.62258 24.4495C9.6976 25.0156 9.6976 25.0156 9.15372 25.0344C8.92866 25.0344 8.7036 25.0344 8.60983 25.0344C8.36602 25.0533 8.23473 25.0533 8.10345 25.0533C7.40953 25.1099 7.40953 25.1099 7.46579 24.4306C7.65334 22.4683 7.85964 20.4494 8.06594 18.4493ZM6.77186 29.2421C6.77186 28.9591 6.77186 28.6572 6.77186 28.3742C6.75311 28.3742 6.79062 28.3742 6.77186 28.3742C6.77186 27.5251 6.75311 26.6949 6.7156 25.8458C6.7156 25.5627 6.82813 25.5061 7.05318 25.4873C7.93466 25.4684 8.81613 25.4307 9.6976 25.5061C9.97892 25.525 10.0727 25.6382 10.0915 25.9024C10.1477 27.2798 10.204 28.6572 10.2602 30.0346L6.77186 29.2421ZM16.2243 30.6384C17.6121 30.5063 23.3323 30.6195 24.6264 30.6761L16.2243 30.6384ZM18.3998 20.2607C19.7501 20.2984 21.1005 20.2229 22.4321 20.3928C22.7884 20.4305 22.9009 20.5248 22.9009 20.9022C22.9385 22.374 23.0322 23.8268 23.1072 25.2986C23.1823 26.7703 23.0885 28.2421 23.201 29.695C23.2385 30.1289 23.201 30.1478 22.7697 30.1478C21.4193 30.1667 20.069 30.1478 18.7186 30.1667C18.3998 30.1667 18.2685 30.0912 18.2498 29.7327C18.1372 27.8836 18.081 26.0533 18.0435 24.2042C18.0247 23.0532 17.9684 21.9022 17.9309 20.7513C17.9122 20.2607 17.9309 20.2607 18.3998 20.2607ZM25.9955 30.7139C27.1208 30.7893 28.246 30.7327 29.3713 30.695L25.9955 30.7139ZM29.8777 25.2608C29.6151 25.9212 29.7464 26.6571 29.7652 27.3741C29.7839 28.1855 29.7652 29.0157 29.7839 29.827C29.7839 30.1478 29.6902 30.2988 29.3338 30.3176C28.096 30.3176 26.8582 30.3931 25.6204 30.3742C25.114 30.3742 24.6076 30.2421 24.1012 30.261C23.7637 30.2799 23.6511 30.0912 23.6511 29.7704C23.6699 28.7704 23.6324 27.7704 23.6324 26.7703C23.6511 24.6571 23.5011 22.5438 23.2385 20.4494C23.201 20.1475 23.0697 20.0343 22.7697 20.0154C21.1755 19.8456 19.6001 19.9022 18.006 19.9588C17.5746 19.9777 17.5183 20.072 17.5183 20.5626C17.5183 21.94 17.5183 23.3174 17.6121 24.8269C17.6121 25.9779 17.5746 27.242 17.6684 28.5062C17.6871 28.9213 17.7246 29.3553 17.7809 29.7704C17.8184 30.0535 17.7621 30.2044 17.4058 30.2233C16.6931 30.2421 15.9992 30.3931 15.2865 30.3931C13.9549 30.3931 12.6421 30.2799 11.3105 30.3931C10.7854 30.4497 10.7291 30.3742 10.7479 29.8459C10.7479 28.4496 10.5791 27.0534 10.4665 25.6571C10.4478 25.5061 10.5041 25.3175 10.354 25.2231C10.0164 25.0533 10.0352 24.7137 9.99768 24.4118C9.81013 22.8645 9.67885 21.3173 9.43504 19.789C9.34126 19.2418 9.30375 18.6946 9.17247 18.1474C9.09745 17.8832 9.19123 17.7134 9.4913 17.7134C9.96017 17.7134 10.429 17.6757 10.8792 17.7323C12.0982 17.8832 13.3173 17.7323 14.5176 17.6757C15.9429 17.6191 17.3495 17.77 18.7561 17.7512C21.2693 17.7323 23.7824 17.9021 26.3143 17.921C27.5334 17.921 28.7337 18.0719 29.9527 18.1285C30.234 18.1474 30.3278 18.2229 30.2903 18.5248C30.0277 20.355 30.0653 22.2041 30.0653 24.0344C30.084 24.4495 30.0465 24.8457 29.8777 25.2608ZM9.19123 17.1096C9.36002 16.77 9.54757 16.619 9.73511 16.4681C11.3105 15.0718 12.8859 13.6756 14.4613 12.2793C16.2243 10.7132 17.9872 9.16597 19.7314 7.61875C19.8627 7.50553 20.0127 7.39232 20.1252 7.26024C20.2753 7.10929 20.4253 7.10929 20.5754 7.26024C20.8942 7.59988 21.2505 7.90177 21.5506 8.26028C21.8132 8.56217 22.0757 8.86407 22.3946 9.10936C24.1388 10.5245 25.5829 12.2604 27.2708 13.7322C28.5836 14.8643 29.8402 16.0341 31.1343 17.1851C31.228 17.2794 31.3406 17.3549 31.3781 17.487C31.2656 17.6757 31.0968 17.5813 30.9655 17.5813C29.09 17.4681 27.2145 17.2983 25.3391 17.2794C22.8634 17.2606 20.3878 17.0908 17.9122 17.0719C16.5806 17.0719 15.2678 17.0153 13.9362 17.0153C13.7111 17.0153 13.4861 17.0153 13.2798 17.0342C11.9482 17.2228 10.6353 16.9964 9.19123 17.1096ZM30.2716 29.2987C30.2716 29.1289 30.2716 28.9402 30.2716 28.7704C30.234 27.827 30.2153 26.8647 30.159 25.9212C30.1403 25.6194 30.2153 25.4495 30.5529 25.4684C31.4156 25.5061 32.2783 25.5061 33.1223 25.5627C33.6099 25.6005 33.6849 25.6194 33.6849 26.1477C33.6849 27.11 33.7412 28.0534 33.6474 29.0157L30.2716 29.2987ZM32.916 24.2986C32.9347 24.525 32.991 24.7325 33.0285 25.0533C32.2596 25.1099 31.5656 25.0722 30.8717 25.0344C30.5529 25.0156 30.5341 24.8269 30.5341 24.5816C30.5529 23.6382 30.5529 22.6759 30.5716 21.7324C30.5904 20.7513 30.6467 19.789 30.6842 18.8078C30.7029 18.6002 30.6091 18.2984 30.8342 18.204C31.153 18.0719 31.5281 18.0908 31.8657 18.1851C32.0345 18.2417 31.9782 18.4493 32.0158 18.6002C32.2971 20.506 32.6909 22.3928 32.916 24.2986ZM33.8162 18.8267C31.3218 16.6945 28.9775 14.3926 26.5769 12.1661C25.6954 11.3547 24.9077 10.4302 24.0262 9.65655C23.0697 8.80746 22.1695 7.88291 21.1943 7.03382C20.5566 6.46776 20.2378 6.5055 19.5814 7.07156C18.4186 8.09046 17.2183 9.07162 16.0742 10.1283C13.4673 12.5623 10.6729 14.8077 8.15971 17.3361C7.74711 17.7512 7.25949 18.1285 6.80937 18.5248C6.64058 18.6757 6.49054 18.7323 6.26549 18.638C5.89039 18.4682 5.85288 18.355 6.15296 18.0908C7.97217 16.4492 9.6976 14.6756 11.5168 13.0152C13.8236 10.9396 16.2618 9.01502 18.6249 6.99608C19.075 6.59984 19.5438 6.24134 19.994 5.82623C20.2378 5.59981 20.4253 5.59981 20.6691 5.82623C21.8507 6.95835 23.051 8.09046 24.27 9.18484C25.6954 10.449 27.1583 11.6755 28.5649 12.9397C30.1403 14.3548 31.847 15.6568 33.2348 17.2794C33.6662 17.7889 34.1725 18.204 34.6602 18.6757C34.2476 19.204 34.2476 19.204 33.8162 18.8267Z" fill="#3F3C44"/>
<path d="M16.843 21.2419C16.7868 20.7324 16.6742 20.6003 16.2616 20.5815C15.0988 20.5249 13.9173 20.4683 12.7545 20.5815C12.3231 20.6192 12.2481 20.7136 12.2294 21.1853C12.2106 21.9211 12.2294 22.657 12.2294 23.374C12.1731 24.4873 12.1919 25.6005 12.3419 26.6949C12.3794 26.9591 12.3794 27.2043 12.7545 27.261C14.0111 27.4119 15.2676 27.4119 16.5242 27.3553C16.9556 27.3364 17.0118 27.261 17.0118 26.827C17.0118 25.7326 17.0306 24.6571 16.9931 23.5627C16.9743 22.7891 16.9181 22.0155 16.843 21.2419ZM13.0546 20.9588C13.8048 20.9777 14.555 20.9777 15.3051 21.0343C15.6615 21.0532 16.0741 20.9211 16.3367 21.1475C16.5992 21.3928 16.3742 21.8268 16.3929 22.1664C16.4117 22.5627 16.4304 22.9589 16.4304 23.374C16.4304 23.8457 16.4117 23.8646 15.9428 23.8835C15.4364 23.9023 14.9301 23.8835 14.2361 23.8835C13.9736 23.9023 13.5234 23.9023 13.0921 23.959C12.792 23.9967 12.6982 23.8646 12.6795 23.6004C12.6607 22.8268 12.642 22.0532 12.6232 21.2607C12.642 20.9588 12.867 20.9588 13.0546 20.9588ZM16.2429 26.8836C15.2301 26.9213 14.2174 26.9402 13.2046 26.8647C12.942 26.8458 12.792 26.7515 12.7733 26.4873C12.7545 25.9024 12.717 25.3364 12.6795 24.7703C12.6607 24.5061 12.8108 24.4307 13.0546 24.4307C13.561 24.4307 14.0673 24.4307 14.5737 24.4307C15.0613 24.4307 15.549 24.4118 16.0366 24.4118C16.2804 24.4118 16.4492 24.4684 16.4679 24.7703C16.5055 25.3364 16.543 25.9213 16.5992 26.4873C16.6367 26.7515 16.543 26.8647 16.2429 26.8836Z" fill="#3F3C44"/>
<path d="M22.1693 26.0345C22.4131 26.0156 22.5631 25.8647 22.5819 25.5816C22.6006 25.3363 22.3193 25.0722 22.0755 25.091C21.8317 25.091 21.5691 25.3552 21.5879 25.6005C21.5879 25.8269 21.8692 26.0345 22.1693 26.0345Z" fill="#3F3C44"/>
<path d="M10.2791 29.8461C10.2228 28.4687 10.1665 27.2799 10.1103 25.9025C10.0915 25.6195 9.99776 25.5252 9.71643 25.5063C8.83496 25.4308 7.95349 25.4874 7.07202 25.4874C6.82821 25.4874 6.71568 25.5629 6.73443 25.8459C6.75319 26.695 6.73443 27.5252 6.73443 28.3743C6.75319 28.3743 6.77194 29.5253 6.77194 29.8083L6.8282 30.0159C6.90322 30.1668 9.64142 30.0913 9.64142 30.0913L10.2791 30.0536V29.8461Z" fill="#708DC6"/>
<path d="M23.9509 30.7705L24.9449 30.7516L23.332 30.4497L15.7363 30.544L15.9989 30.695L23.9509 30.7705Z" fill="#3F3C44"/>
<path d="M33.6659 28.997C33.7596 28.0535 33.7034 27.0912 33.7034 26.1289C33.7034 25.6006 33.6096 25.5629 33.1407 25.544C32.278 25.4874 31.4153 25.4685 30.5713 25.4497C30.2337 25.4308 30.1587 25.6006 30.1775 25.9025C30.2337 26.8459 30.2525 27.8082 30.29 28.7517C30.29 28.9215 30.29 29.1102 30.29 29.28C30.29 29.6951 30.2712 30.1291 30.2712 30.1291C30.2712 30.2989 30.3275 30.28 30.3275 30.28H33.4783C33.5533 30.28 33.6471 30.28 33.6471 30.1291C33.6283 29.7517 33.6659 28.997 33.6659 28.997Z" fill="#708DC6"/>
</g>
<defs>
<clipPath id="clip0">
<rect width="33.5897" height="28.7179" fill="white" transform="translate(4.61523 5.12817)"/>
</clipPath>
</defs>
</svg>
