<svg width="32" height="32" viewBox="0 0 32 32" fill="none" xmlns="http://www.w3.org/2000/svg">
<path d="M25.5593 27.7496C25.5518 27.6227 25.603 27.557 25.7054 27.5287C25.7762 27.5078 25.8455 27.4854 25.9179 27.469C26.0278 27.4436 26.1514 27.2944 26.2387 27.3929C26.3442 27.5123 26.2312 27.6705 26.1785 27.8003C26.0926 28.0107 25.8953 28.057 25.6964 28.0376C25.5021 28.0212 25.6015 27.8361 25.5593 27.7496Z" fill="#F0BF6E"/>
<path d="M24.0558 27.5688C24.1447 27.5897 24.3285 27.5181 24.3134 27.7241C24.3029 27.8837 24.3104 28.0912 24.0378 28.0748C23.851 28.0643 23.7169 28.0225 23.7139 27.7972C23.7139 27.5644 23.866 27.5629 24.0558 27.5688Z" fill="#F0BF6E"/>
<path d="M22.2228 27.7123C22.1189 27.6571 21.8643 27.772 21.9035 27.4839C21.917 27.3869 21.92 27.2228 22.0888 27.2869C22.2243 27.3377 22.4624 27.2646 22.4593 27.5153C22.4593 27.6257 22.4337 27.772 22.2228 27.7123Z" fill="#F0BF6E"/>
<path d="M23.102 27.4838C23.2512 27.4838 23.34 27.539 23.2979 27.7301C23.2692 27.8584 23.2542 27.9584 23.0809 27.9286C22.9137 27.8987 22.8474 27.8241 22.8836 27.651C22.9092 27.5301 22.9258 27.4316 23.102 27.4838Z" fill="#F0BF6E"/>
<path d="M24.7415 27.7898C24.7053 27.6346 24.8348 27.5809 24.9991 27.5734C25.1211 27.5689 25.1256 27.6644 25.1105 27.7465C25.0819 27.8943 25.0744 28.0793 24.8574 28.0719C24.7053 28.0659 24.749 27.9331 24.7415 27.7898Z" fill="#F0BF6E"/>
<path d="M21.249 27.0808C21.374 27.1211 21.5021 27.1465 21.5141 27.2942C21.5232 27.4062 21.5051 27.5315 21.359 27.5345C21.2219 27.5375 21.1767 27.43 21.1827 27.3077C21.1872 27.2286 21.13 27.1226 21.249 27.0808Z" fill="#F0BF6E"/>
<path d="M20.959 23.8588C21.3386 23.5842 21.7303 23.6006 22.1009 23.5513C22.6974 23.4722 23.294 23.5871 23.889 23.6274C24.5353 23.6707 25.1695 23.82 25.7916 24.0423C25.8564 24.0662 25.9242 24.0886 25.9845 24.1244C26.0146 24.1423 26.0492 24.1901 26.0538 24.2289C26.0628 24.3005 26.0116 24.3319 25.9619 24.3423C25.2373 24.499 24.5142 24.6453 23.773 24.5587C23.0228 24.4707 22.2756 24.3692 21.5405 24.1498C21.3461 24.0916 21.1729 24.005 20.959 23.8588Z" fill="#F0BF6E"/>
<path d="M21.7734 27.6464C22.3173 27.8166 22.8777 27.7688 23.429 27.8345C24.25 27.9315 25.0786 27.9479 25.8981 27.7897C26.0487 27.7599 26.1978 27.7151 26.3214 27.6106C26.4163 27.53 26.5006 27.439 26.6166 27.5614C26.704 27.6539 26.8441 27.7136 26.8095 27.8882C26.7793 28.0434 26.6573 28.1001 26.5383 28.1449C26.1963 28.2747 25.8408 28.2165 25.4913 28.2285C24.357 28.2643 23.2347 28.1539 22.132 27.8315C22.0069 27.7942 21.8714 27.7793 21.7734 27.6464Z" fill="#F0BF6E"/>
<path d="M25.7982 26.4109C25.4141 26.4109 25.3071 26.3004 25.2981 25.9258C25.2876 25.5005 25.6054 25.5856 25.8329 25.6079C26.0076 25.6259 26.327 25.4318 26.3421 25.7915C26.3617 26.2557 26.1959 26.4109 25.7982 26.4109Z" fill="#F0BF6E"/>
<path d="M23.3372 26.5808C22.8747 26.5226 22.4107 26.4764 21.9513 26.4047C21.543 26.3406 21.1243 26.3077 20.7416 26.1301C20.6678 26.0958 20.5488 26.0674 20.5804 25.9824C20.6181 25.8839 20.7552 25.8555 20.8441 25.9122C21.4029 26.2674 22.0477 26.2928 22.6714 26.4018C22.8958 26.4406 23.1203 26.4823 23.3447 26.5226C23.3432 26.542 23.3402 26.5614 23.3372 26.5808Z" fill="#F0BF6E"/>
<path d="M23.7204 25.6915C23.8273 25.6915 23.9358 25.6989 24.0427 25.69C24.3003 25.6676 24.3636 25.7915 24.347 26.0258C24.3305 26.2586 24.2476 26.3735 23.9975 26.3317C23.8394 26.3048 23.6797 26.275 23.52 26.2765C23.2413 26.278 23.1856 26.1213 23.1886 25.89C23.1946 25.5989 23.3935 25.678 23.5592 25.6855C23.6134 25.6885 23.6661 25.6855 23.7204 25.6855C23.7204 25.687 23.7204 25.69 23.7204 25.6915Z" fill="#F0BF6E"/>
<path d="M20.9297 25.5646C20.9417 25.4751 20.9011 25.3497 21.0803 25.3467C21.3726 25.3437 21.6739 25.5273 21.6513 25.7183C21.6362 25.8422 21.6196 25.984 21.4313 25.9885C21.0773 25.9974 20.9297 25.8795 20.9297 25.5646Z" fill="#F0BF6E"/>
<path d="M22.0526 25.575C22.3418 25.6377 22.5557 25.684 22.7697 25.7318C22.8992 25.7601 22.9986 25.8004 22.958 25.9735C22.9233 26.1198 22.86 26.178 22.7049 26.1466C22.503 26.1064 22.2966 26.0825 22.0918 26.0511C21.911 26.0228 21.9004 25.8899 21.9065 25.7512C21.914 25.6079 21.9908 25.5586 22.0526 25.575Z" fill="#F0BF6E"/>
<path d="M25.0921 25.9811C25.1147 26.2408 25.1116 26.4303 24.7456 26.4109C24.3765 26.3915 24.387 26.1781 24.3765 25.9244C24.366 25.6811 24.5151 25.6303 24.6929 25.6706C24.8661 25.7109 25.2382 25.5498 25.0921 25.9811Z" fill="#F0BF6E"/>
<path d="M22.7272 25.2811C22.5736 25.2513 22.4515 25.2289 22.3295 25.205C22.1066 25.1617 21.9996 25.0229 22.0523 24.8065C22.1081 24.5782 22.2858 24.6871 22.4169 24.717C22.5901 24.7573 22.8025 24.7244 22.8959 24.9408C22.9893 25.1498 22.9487 25.2736 22.7272 25.2811Z" fill="#F0BF6E"/>
<path d="M22.7493 27.3869C22.6318 27.3213 22.3833 27.4362 22.3381 27.172C22.3185 27.0601 22.3938 26.984 22.5038 27.0183C22.674 27.072 22.9211 26.9944 22.9964 27.2183C23.0401 27.3511 22.909 27.3989 22.7493 27.3869Z" fill="#F0BF6E"/>
<path d="M23.6601 27.072C23.7896 27.0929 23.9704 27.0377 23.9764 27.269C23.981 27.4735 23.8393 27.469 23.6947 27.472C23.5109 27.4765 23.4236 27.3839 23.4191 27.2093C23.4145 27.0258 23.5531 27.081 23.6601 27.072Z" fill="#F0BF6E"/>
<path d="M24.3477 25.3394C24.1805 25.3438 24.1036 25.2871 24.0961 25.1513C24.0871 24.9439 24.2362 24.9513 24.3763 24.9528C24.5043 24.9543 24.6535 24.9409 24.6459 25.1334C24.6369 25.3558 24.4245 25.2707 24.3477 25.3394Z" fill="#F0BF6E"/>
<path d="M20.6045 26.6228C20.7612 26.7914 21.192 26.5616 21.1453 27.0049C21.1302 27.1526 21.0444 27.2228 20.9088 27.1929C20.5924 27.1243 20.6271 26.8586 20.6045 26.6228Z" fill="#F0BF6E"/>
<path d="M24.7213 27.5718C24.4667 27.6017 24.3582 27.4897 24.3432 27.2868C24.3206 26.9599 24.5797 27.0599 24.7379 27.0584C24.9201 27.0569 25.2109 26.9704 25.2154 27.2689C25.2214 27.6017 24.8734 27.4868 24.7213 27.5718Z" fill="#F0BF6E"/>
<path d="M25.5203 25.017C25.4826 25.1483 25.4706 25.2946 25.2868 25.2692C25.1377 25.2483 25.0925 25.1289 25.103 25.0095C25.1166 24.8409 25.2627 24.8334 25.3923 24.8364C25.5143 24.8409 25.5384 24.9259 25.5203 25.017Z" fill="#F0BF6E"/>
<path d="M25.889 26.9555C26.0622 26.9286 26.2189 26.8928 26.2189 27.1062C26.2189 27.3973 25.9673 27.3868 25.779 27.4316C25.5907 27.4764 25.535 27.3316 25.5229 27.1943C25.4913 26.8615 25.7775 27.0107 25.889 26.9555Z" fill="#F0BF6E"/>
<path d="M21.7054 24.8034C21.7084 24.9123 21.6602 24.978 21.5563 24.9362C21.4599 24.8974 21.2867 24.9452 21.2942 24.7616C21.2987 24.6616 21.3213 24.5482 21.4674 24.5661C21.606 24.5825 21.7175 24.6392 21.7054 24.8034Z" fill="#F0BF6E"/>
<path d="M26.4658 26.1452C26.4839 26.0243 26.499 25.9258 26.5125 25.8258C26.5366 25.6467 26.6918 25.6422 26.8108 25.6437C27.0127 25.6452 26.9132 25.8094 26.9117 25.9034C26.9102 26.0004 26.8711 26.0989 26.8469 26.1959C26.8138 26.3332 26.8002 26.5213 26.6059 26.4869C26.4131 26.4511 26.5005 26.2526 26.4658 26.1452Z" fill="#F0BF6E"/>
<path d="M23.4582 24.9272C23.5486 24.972 23.7112 24.9243 23.7022 25.1123C23.6962 25.2287 23.657 25.3048 23.5229 25.3033C23.3753 25.3018 23.3407 25.1959 23.3196 25.0869C23.2985 24.9899 23.3422 24.9287 23.4582 24.9272Z" fill="#F0BF6E"/>
<path d="M21.3839 28.1406C21.3628 28.2033 21.4155 28.3421 21.2694 28.3242C21.0826 28.3018 21.0751 28.1332 21.051 27.9914C21.0404 27.9287 21.0374 27.8406 21.1353 27.8675C21.2634 27.9018 21.4125 27.9362 21.3839 28.1406Z" fill="#F0BF6E"/>
<path d="M21.8837 27.0914C21.8943 27.2019 21.834 27.2272 21.7346 27.2377C21.5839 27.2526 21.5448 27.181 21.5312 27.0511C21.5207 26.9437 21.5523 26.89 21.6608 26.8974C21.7828 26.9049 21.8732 26.9556 21.8837 27.0914Z" fill="#F0BF6E"/>
<path d="M26.4542 24.7437C26.4331 24.8377 26.4783 24.9899 26.3397 24.981C26.2011 24.972 26.2041 24.8078 26.183 24.6989C26.162 24.5914 26.2433 24.5183 26.3412 24.5198C26.5009 24.5228 26.4256 24.6646 26.4542 24.7437Z" fill="#F0BF6E"/>
<path d="M20.959 24.1482C21.2422 24.1586 21.1925 24.3258 21.1699 24.475C21.1624 24.5258 21.1533 24.6109 21.084 24.5765C20.9017 24.487 21.0162 24.3034 20.959 24.1482Z" fill="#F0BF6E"/>
<path d="M20.6152 24.4154C20.6273 24.3259 20.5866 24.2005 20.7659 24.1975C21.0581 24.1946 21.3594 24.3781 21.3368 24.5692C21.3218 24.693 21.3052 24.8348 21.1169 24.8393C20.7629 24.8482 20.6137 24.7303 20.6152 24.4154Z" fill="#F0BF6E"/>
<path d="M29.0151 21.5275C29.0121 22.32 29.0723 23.1125 28.9262 23.9005C28.7936 24.6154 28.4457 25.2437 28.1835 25.9078C27.95 26.5003 27.5373 26.9465 27.123 27.4017C27.0447 27.4883 26.9588 27.5286 26.8564 27.4599C26.7328 27.3763 26.543 27.3584 26.5234 27.1644C26.5114 27.051 26.5912 27.0152 26.6891 26.9808C27.2631 26.7794 27.5463 26.2913 27.4439 25.6884C27.4092 25.481 27.2526 25.3675 27.0793 25.3063C26.8428 25.2228 26.769 25.0735 26.7886 24.8437C26.7976 24.7347 26.7841 24.6243 26.7765 24.5139C26.7645 24.3393 26.6861 24.2228 26.5325 24.1139C25.8034 23.6035 24.9567 23.5125 24.1116 23.4125C23.735 23.3677 23.3569 23.314 22.9788 23.3169C22.3431 23.3214 21.7044 23.3304 21.0852 23.5214C20.341 23.7512 20.1678 24.4989 20.5926 25.1661C20.6875 25.3138 20.6679 25.4586 20.6664 25.6138C20.6649 25.8272 20.5203 25.8376 20.3621 25.8824C19.8213 26.0317 19.624 26.8749 20.0307 27.2689C20.1768 27.4107 20.3395 27.5286 20.5384 27.5957C20.6348 27.6286 20.7719 27.633 20.7463 27.7987C20.7191 27.9733 20.5926 27.9912 20.457 27.9793C19.9976 27.939 19.5351 27.9047 19.0786 27.8435C18.1898 27.7226 17.3026 27.5539 16.4077 27.5569C15.6711 27.5599 14.9314 27.5793 14.1933 27.6271C13.1568 27.6942 12.1445 27.8793 11.1232 28.0554C10.1545 28.2225 9.17685 28.1375 8.21875 27.8494C7.63275 27.6733 7.04675 27.536 6.53908 27.1674C6.29052 26.9868 6.0766 26.7719 5.85516 26.5689C5.59756 26.3331 5.33694 26.1033 5.07633 25.8705C4.45116 25.3108 4.05648 24.596 3.74163 23.8378C3.64371 23.602 3.57894 23.3513 3.47198 23.117C3.22643 22.5812 3.17973 22.0051 3.11646 21.4305C3.00348 20.4008 3.15412 19.4008 3.46897 18.4233C3.74464 17.5681 4.28847 16.8712 4.86242 16.1951C5.64275 15.2788 6.42308 14.3624 7.20492 13.449C7.2938 13.3446 7.39021 13.2446 7.49265 13.1506C7.87529 12.7998 8.17356 12.3834 8.4161 11.9342C8.71738 11.379 8.63905 10.2612 8.09221 9.69112C7.53333 9.10907 6.88104 8.67925 6.15494 8.33749C5.74368 8.14347 5.36406 7.90618 5.10345 7.51068C4.94226 7.26593 4.9046 7.02863 5.07633 6.79731C5.25258 6.55852 5.46047 6.35704 5.81448 6.40778C6.24231 6.46897 6.61289 6.68687 7.02114 6.79432C7.1296 6.82268 7.25916 6.90774 7.34653 6.76447C7.42336 6.63762 7.2938 6.57046 7.23957 6.48091C6.92322 5.96603 6.70629 5.41084 6.63398 4.81387C6.5918 4.48703 6.88255 4.35122 7.26819 4.4945C7.41432 4.54972 7.50922 4.66015 7.59057 4.78552C8.05757 5.50188 8.53059 6.21526 8.77613 7.04654C8.83187 7.23309 8.95691 7.3495 9.16781 7.31965C9.39377 7.28682 9.3998 7.10922 9.39076 6.93909C9.36515 6.44509 9.35159 5.95259 9.45252 5.46308C9.51278 5.17056 9.6333 4.93327 9.91349 4.78253C10.2012 4.62583 10.3986 4.67806 10.5387 4.98103C10.7164 5.37055 10.7661 5.7929 10.8354 6.2078C10.9092 6.64956 10.9635 7.09579 10.9981 7.54352C11.1051 8.96729 11.8583 9.93587 13.1117 10.5791C13.9583 11.0134 14.8727 11.2447 15.7765 11.5104C17.3643 11.976 18.9777 12.3685 20.5429 12.8953C22.0734 13.4117 23.5708 14.0356 24.9703 14.8549C25.8922 15.3952 26.763 15.9996 27.367 16.9025C28.2724 18.2546 29.0166 19.9082 29.0151 21.5275ZM13.6163 18.6054C13.7368 18.6054 13.8588 18.6188 13.9763 18.6024C14.255 18.5651 14.3153 18.7233 14.3424 18.9501C14.4238 19.6322 14.5202 20.3112 14.6045 20.9932C14.6799 21.5947 14.835 22.1812 14.9736 22.7692C15.0233 22.9811 14.9284 23.0438 14.7416 23.0185C14.5488 22.9916 14.3575 22.9588 14.1692 22.914C13.4973 22.7543 13.0273 22.4021 12.9806 21.6574C12.9731 21.5395 12.9625 21.4186 12.9384 21.3037C12.9008 21.1216 12.8616 20.9246 12.6055 20.9485C12.4262 20.9649 12.2786 21.1962 12.2997 21.4111C12.3132 21.5469 12.3238 21.6857 12.3464 21.82C12.4548 22.4543 12.7079 22.9856 13.3406 23.2796C13.8362 23.5095 14.3514 23.6408 14.8923 23.6512C15.0956 23.6557 15.177 23.7259 15.2056 23.9094C15.2493 24.19 15.3351 24.4616 15.3593 24.7467C15.3758 24.9422 15.4933 25.1049 15.7208 25.084C15.9528 25.0616 16.0236 24.8825 15.9995 24.6825C15.9724 24.4467 15.9513 24.2094 15.8775 23.9796C15.775 23.6557 15.7991 23.6408 16.1411 23.5736C17.5903 23.2901 18.6071 22.0275 18.5604 20.6948C18.5544 20.5216 18.5167 20.3485 18.5092 20.1754C18.4715 19.3068 18.0754 18.671 17.3056 18.2442C16.6367 17.8741 15.9181 17.8159 15.18 17.8562C14.9375 17.8696 14.8169 17.7801 14.7928 17.5428C14.7522 17.1517 14.713 16.7592 14.6557 16.3697C14.6271 16.1832 14.7115 16.1488 14.8666 16.1429C15.543 16.1145 16.1682 16.2593 16.7226 16.6592C16.8416 16.7443 16.9802 16.8756 17.1142 16.7488C17.2498 16.6219 17.1097 16.4787 17.0495 16.3518C17.0299 16.3115 16.9937 16.2787 16.9651 16.2429C16.5569 15.722 15.9859 15.5504 15.3562 15.531C15.1348 15.525 14.9149 15.5101 14.6934 15.4981C14.5277 15.4892 14.4614 15.419 14.4283 15.2802C14.3635 15.0131 14.3002 14.746 14.2294 14.4803C14.1978 14.3624 14.1436 14.2341 13.9929 14.2594C13.8604 14.2803 13.7956 14.3967 13.7941 14.5251C13.7895 14.7997 13.7519 15.0773 13.8257 15.3459C13.8769 15.531 13.8332 15.6205 13.6344 15.6832C13.0348 15.8742 12.482 16.1533 12.1385 16.71C11.6941 17.4308 11.8056 18.3069 12.7908 18.5442C13.065 18.6069 13.3376 18.6263 13.6163 18.6054Z" fill="#FAE9CC"/>
<path d="M15.5327 18.3293C15.9515 18.2816 16.408 18.395 16.8403 18.6368C17.357 18.9263 17.6297 19.3591 17.6673 19.9456C17.6824 20.174 17.7291 20.3978 17.7216 20.6292C17.6854 21.7604 16.8358 22.6215 15.6999 22.8006C15.5553 22.823 15.5011 22.7663 15.4694 22.638C15.2646 21.7738 15.0491 20.9127 14.9874 20.0217C14.9573 19.5845 14.8684 19.1517 14.7991 18.7188C14.7373 18.3353 14.7358 18.3308 15.123 18.3308C15.2329 18.3293 15.3429 18.3293 15.5327 18.3293Z" fill="#FAE9CC"/>
<path d="M13.4353 17.7787C13.1445 17.7846 12.9261 17.7787 12.7062 17.7324C12.4772 17.6846 12.3883 17.5533 12.3763 17.3294C12.3552 16.9414 12.6022 16.6967 12.8523 16.4758C13.0557 16.2952 13.3208 16.1907 13.5904 16.1176C13.7185 16.0833 13.8074 16.0967 13.8255 16.2519C13.8767 16.6862 13.9354 17.1205 13.9851 17.5548C14.0017 17.6996 13.9309 17.7802 13.7788 17.7817C13.6432 17.7787 13.5046 17.7787 13.4353 17.7787Z" fill="#FAE9CC"/>
<path d="M6.42983 5.87494C6.47502 5.67645 6.3304 5.55556 6.28672 5.40334C6.26111 5.31528 6.22043 5.23171 6.19633 5.14365C6.0487 4.59444 6.15114 4.17358 6.4705 4.00344C6.8682 3.79152 7.52802 3.90793 7.84738 4.27805C8.13511 4.61086 8.38669 4.97352 8.65483 5.32424C8.81451 5.31528 8.80698 5.18246 8.82807 5.08694C8.93201 4.6422 9.21824 4.34968 9.6069 4.13328C10.092 3.86315 10.5439 3.94971 10.8798 4.38998C11.026 4.5825 11.1329 4.79741 11.1871 5.03172C11.3378 5.69436 11.4945 6.35998 11.505 7.04052C11.5306 8.65234 12.4059 9.63287 13.8581 10.1657C15.2816 10.6895 16.7489 11.091 18.2147 11.4775C19.9365 11.9327 21.6147 12.4909 23.2311 13.2401C24.0536 13.6206 24.8595 14.0206 25.6399 14.4862C27.0996 15.3563 28.0713 16.6129 28.7597 18.1143C29.5611 19.8649 29.769 21.7036 29.5355 23.602C29.4722 24.1183 29.299 24.6019 29.1032 25.0765C28.8998 25.569 28.6723 26.051 28.4434 26.5316C28.365 26.6958 28.249 26.8435 28.1481 26.9957C27.9206 27.342 27.4988 27.5166 27.2879 27.8375C27.0891 28.1404 27.2578 28.5852 27.1282 28.9583C26.9972 29.3359 26.7366 29.5 26.3524 29.5642C25.3883 29.7254 24.4302 29.6373 23.4781 29.5015C22.746 29.397 21.9838 29.2985 21.3601 28.8896C20.8344 28.5449 20.286 28.4837 19.6985 28.4389C18.6651 28.3613 17.6467 28.13 16.6088 28.0986C14.9773 28.0509 13.3429 28.0897 11.7506 28.4568C10.1492 28.8254 8.62169 28.5926 7.10772 28.1001C6.50515 27.9031 5.99597 27.5196 5.53501 27.0868C5.29247 26.8599 5.06349 26.6167 4.80438 26.4107C3.95626 25.7316 3.44407 24.8362 3.03282 23.8557C2.64416 22.9274 2.42874 21.9767 2.38656 20.9723C2.3022 18.9874 2.91532 17.2577 4.23043 15.7593C5.31205 14.5265 6.37258 13.2774 7.44516 12.0387C7.72084 11.7208 7.89408 11.373 7.876 10.9402C7.85943 10.5388 7.7344 10.2045 7.44968 9.9015C6.90737 9.32095 6.20386 8.98814 5.53199 8.60608C5.10266 8.36132 4.75919 8.0494 4.51364 7.61959C4.25755 7.17186 4.26207 6.7301 4.57691 6.33312C4.92038 5.90031 5.33616 5.56899 5.96133 5.7645C6.10745 5.81375 6.25357 5.91524 6.42983 5.87494ZM28.9917 22.1722C28.9796 21.3603 28.9586 20.5723 28.7266 19.8067C28.2746 18.3098 27.6239 16.9263 26.4488 15.8399C25.7529 15.1951 24.9394 14.7146 24.0943 14.2982C22.1826 13.358 20.2017 12.5983 18.1288 12.076C16.6766 11.7103 15.2364 11.288 13.8219 10.797C12.0835 10.1925 10.9672 9.07321 10.9024 7.13604C10.8798 6.45549 10.7473 5.78689 10.5755 5.12873C10.5138 4.89143 10.4369 4.57355 10.1236 4.56907C9.81177 4.56459 9.5843 4.78696 9.4442 5.06306C9.39449 5.16007 9.37792 5.272 9.3493 5.37796C9.25439 5.73764 9.26343 6.10477 9.2785 6.47191C9.28603 6.63608 9.29356 6.80174 9.2785 6.9659C9.26946 7.08231 9.19112 7.16589 9.06609 7.18529C8.94407 7.20469 8.84615 7.15992 8.78288 7.05694C8.73618 6.97934 8.69551 6.89427 8.66839 6.80771C8.4605 6.15402 8.11854 5.5675 7.73741 5.00187C7.62443 4.83472 7.52802 4.65115 7.38792 4.50937C7.20865 4.3273 6.95407 4.25865 6.72208 4.36759C6.47653 4.48251 6.50967 4.73473 6.56691 4.95262C6.69647 5.45109 6.85314 5.93912 7.13936 6.3764C7.1966 6.46296 7.30959 6.55101 7.20564 6.66145C7.11074 6.76293 6.99474 6.68682 6.89833 6.64652C6.5398 6.49579 6.16771 6.38684 5.78658 6.30774C5.42052 6.23163 5.17647 6.41371 4.98214 6.67488C4.77576 6.95396 4.87067 7.21663 5.05295 7.48527C5.31507 7.8733 5.71126 8.0703 6.10745 8.2673C6.74015 8.5822 7.32314 8.95381 7.84588 9.43587C8.62169 10.1522 8.71961 11.476 8.03117 12.2879C7.79315 12.5685 7.55061 12.8461 7.31109 13.1251C6.37409 14.2131 5.42805 15.2936 4.5031 16.3921C3.31603 17.8024 2.87012 19.4306 3.01775 21.2574C3.08404 22.0782 3.30247 22.8363 3.59321 23.5945C3.93367 24.484 4.39915 25.2809 5.13731 25.9063C5.39039 26.1212 5.64196 26.3406 5.87094 26.5793C6.82753 27.5808 8.10046 27.8404 9.38997 28.0076C9.96995 28.0822 10.571 28.0837 11.16 27.9598C13.2359 27.5226 15.3313 27.3599 17.4479 27.5673C18.2764 27.6479 19.1004 27.7703 19.9275 27.8673C20.1098 27.8882 20.2966 27.8882 20.4803 27.8882C20.5858 27.8882 20.6415 27.8121 20.6732 27.7196C20.7123 27.6061 20.6385 27.5509 20.5526 27.5091C20.4532 27.4599 20.3523 27.4136 20.2514 27.3703C19.8386 27.1927 19.7814 26.8286 19.7859 26.451C19.7904 26.0943 19.9983 25.8675 20.3433 25.7928C20.5511 25.7481 20.5993 25.6197 20.6355 25.4466C20.6671 25.2914 20.6295 25.1824 20.5391 25.0451C20.0706 24.3407 20.3101 23.6736 21.113 23.399C21.3601 23.3139 21.6177 23.2871 21.8768 23.2706C22.8048 23.2094 23.7297 23.2662 24.6456 23.4065C25.1895 23.49 25.7393 23.596 26.2304 23.884C26.5272 24.0586 26.7155 24.2736 26.6733 24.6332C26.6386 24.9228 26.7305 25.1227 27.0228 25.2362C27.2744 25.3332 27.3527 25.5257 27.3316 25.8093C27.297 26.3077 27.181 26.7152 26.6266 26.8599C26.488 26.8957 26.3841 26.9883 26.4564 27.1435C26.5709 27.3882 26.9188 27.4166 27.1252 27.2345C27.773 26.6674 28.0773 25.8943 28.4268 25.1466C28.8667 24.1915 29.058 23.1945 28.9917 22.1722ZM25.8222 24.2213C25.0328 23.6811 21.9356 23.4796 21.1341 23.9169C21.6523 24.3377 24.4287 24.7914 25.8222 24.2213ZM22.1691 27.8778C22.2353 27.9001 22.3001 27.93 22.3694 27.9464C23.6062 28.2315 24.861 28.2792 26.1219 28.2195C26.2485 28.2136 26.3765 28.1703 26.4955 28.124C26.6191 28.0762 26.7471 27.9897 26.6853 27.839C26.6206 27.6852 26.4775 27.5375 26.2967 27.6375C25.6218 28.0091 24.8897 27.8673 24.1756 27.9091C23.5068 27.9479 22.8545 27.7285 22.1691 27.8778ZM22.7505 26.6495C22.0395 26.4241 21.2592 26.4435 20.5903 26.0466C20.5316 26.0122 20.4306 26.0271 20.3945 26.1003C20.3327 26.2227 20.4442 26.251 20.5255 26.2824C21.2381 26.5525 21.9868 26.6271 22.7505 26.6495ZM26.2108 25.8406C26.0451 25.7152 25.8568 25.7854 25.679 25.7839C25.5359 25.7824 25.4245 25.8316 25.4245 25.9988C25.4245 26.1674 25.4365 26.3256 25.6474 26.3838C26.0135 26.4883 26.1475 26.3644 26.2108 25.8406ZM26.8375 28.4837C26.5724 28.4747 26.4097 28.5613 26.2425 28.6165C26.0602 28.6762 26.0813 28.8344 26.1099 28.9777C26.1445 29.1478 26.2846 29.1359 26.4112 29.1209C26.7757 29.0747 26.7757 28.7911 26.8375 28.4837ZM23.6996 26.2525C23.787 26.2585 23.8231 26.26 23.8593 26.263C24.0174 26.2749 24.0958 26.1973 24.1124 26.0466C24.1229 25.948 24.1048 25.8496 23.9933 25.8391C23.7794 25.8197 23.552 25.7436 23.3576 25.8824C23.2838 25.9361 23.3079 26.054 23.3501 26.1361C23.3712 26.1764 23.4284 26.2137 23.4766 26.2241C23.5655 26.245 23.6589 26.248 23.6996 26.2525ZM21.3827 25.8913C21.5333 25.8884 21.6117 25.8063 21.6087 25.6496C21.6041 25.472 21.4158 25.3511 21.1628 25.3466C21.0076 25.3436 20.9775 25.4317 20.979 25.5526C20.979 25.7749 21.1251 25.8958 21.3827 25.8913ZM22.5201 26.0734C22.6677 26.1018 22.8048 26.1242 22.8364 25.948C22.868 25.7749 22.734 25.7242 22.6059 25.7212C22.4191 25.7167 22.2323 25.5436 22.05 25.7137C22.0214 25.7406 22.0229 25.8197 22.0365 25.8675C22.1148 26.1406 22.3784 25.9913 22.5201 26.0734ZM25.0629 26.0391C25.081 25.8301 24.9454 25.8048 24.7872 25.8033C24.62 25.8018 24.5085 25.8525 24.5191 26.048C24.5281 26.2376 24.605 26.3495 24.8098 26.3555C25.0463 26.3629 25.0629 26.2077 25.0629 26.0391ZM22.4176 24.8078C22.3197 24.8019 22.1706 24.7646 22.1706 24.9601C22.1706 25.2257 22.4071 25.1839 22.5652 25.2287C22.6722 25.2585 22.8048 25.2421 22.8138 25.1018C22.8289 24.8481 22.627 24.8347 22.4176 24.8078ZM22.6496 27.0211C22.5833 27.0181 22.5472 27.0121 22.5095 27.0136C22.4086 27.0166 22.3227 27.051 22.3272 27.1674C22.3333 27.342 22.4703 27.3644 22.6029 27.3673C22.74 27.3703 22.9072 27.4629 22.9961 27.2793C23.0458 27.1778 22.9901 27.0987 22.8921 27.0659C22.8063 27.036 22.7114 27.0315 22.6496 27.0211ZM22.6391 28.3852C22.4688 28.3688 22.4447 28.4747 22.4372 28.5881C22.4221 28.8314 22.627 28.8135 22.7731 28.8523C22.9449 28.8956 23.0157 28.7672 23.0202 28.6419C23.0337 28.3583 22.7551 28.4747 22.6391 28.3852ZM24.5959 28.6568C24.4151 28.6449 24.263 28.6643 24.2525 28.8956C24.2434 29.1 24.3745 29.1329 24.5342 29.1418C24.7375 29.1523 24.84 29.0568 24.8505 28.8568C24.8595 28.6672 24.724 28.6672 24.5959 28.6568ZM24.382 24.9451C24.257 24.9571 24.1033 24.9287 24.0958 25.1183C24.0882 25.2765 24.1817 25.3526 24.3368 25.3481C24.4905 25.3436 24.6411 25.3242 24.6517 25.1227C24.6607 24.9183 24.5055 24.9541 24.382 24.9451ZM23.9707 27.2345C23.9271 27.0659 23.7312 27.1062 23.5821 27.0793C23.4751 27.0614 23.4134 27.136 23.4239 27.2465C23.445 27.4584 23.5881 27.5136 23.7749 27.4987C23.903 27.4882 23.9783 27.4226 23.9707 27.2345ZM25.0418 27.2435C24.974 27.0957 24.8159 27.1345 24.6788 27.1405C24.5733 27.145 24.4362 27.1435 24.4679 27.3106C24.498 27.4733 24.6276 27.4912 24.7677 27.4778C24.8957 27.4644 25.0343 27.4629 25.0418 27.2435ZM21.1176 26.8644C21.1221 26.736 20.9398 26.7301 20.7801 26.7047C20.7003 26.6913 20.64 26.7301 20.6385 26.8211C20.6355 27.0062 20.7018 27.1375 20.9067 27.1614C21.0528 27.1793 21.1025 27.0987 21.1176 26.8644ZM23.6197 28.5673C23.451 28.5747 23.4179 28.6702 23.4134 28.7896C23.4073 28.9598 23.5143 29.009 23.6589 29.009C23.805 29.0075 23.8307 28.9016 23.8382 28.7866C23.8472 28.6135 23.7403 28.5702 23.6197 28.5673ZM25.4817 29.1672C25.6625 29.1239 25.6354 28.9672 25.6339 28.8299C25.6323 28.724 25.56 28.6702 25.4561 28.6852C25.2467 28.715 25.2874 28.8807 25.2934 29.015C25.2979 29.112 25.3552 29.1791 25.4817 29.1672ZM25.5254 25.0601C25.5344 24.9436 25.5133 24.8392 25.3672 24.8407C25.2407 24.8422 25.1021 24.8616 25.1021 25.0317C25.1021 25.175 25.1849 25.26 25.3371 25.2645C25.4772 25.2705 25.5163 25.178 25.5254 25.0601ZM21.4309 24.5765C21.3164 24.5855 21.2893 24.6646 21.2953 24.7616C21.3059 24.9377 21.4505 24.9377 21.571 24.9481C21.684 24.9571 21.7247 24.8765 21.7111 24.7735C21.69 24.6123 21.5605 24.5944 21.4309 24.5765ZM25.9623 27.2703C25.9848 27.1689 25.9487 27.0853 25.8794 27.0778C25.7393 27.0614 25.5751 27.045 25.5254 27.2375C25.5058 27.3136 25.5374 27.4032 25.6097 27.4166C25.7589 27.445 25.9035 27.4226 25.9623 27.2703ZM21.9371 28.6329C22.0561 28.6478 22.0726 28.5493 22.0937 28.4628C22.1329 28.3046 22.0531 28.2255 21.9039 28.1927C21.8181 28.1733 21.7593 28.1971 21.7457 28.2867C21.7231 28.4419 21.7412 28.5792 21.9371 28.6329ZM21.3932 28.124C21.3993 27.9509 21.2863 27.9016 21.1582 27.8778C21.0528 27.8584 21.0453 27.9434 21.0513 28.0121C21.0633 28.1539 21.0799 28.312 21.2727 28.312C21.3917 28.3135 21.3752 28.1941 21.3932 28.124ZM26.2515 24.8571C26.247 24.769 26.2409 24.6601 26.1249 24.6631C26.0014 24.6661 25.9366 24.7571 25.9547 24.881C25.9698 24.9825 25.9758 25.1257 26.1129 25.1138C26.2409 25.1033 26.2379 24.9631 26.2515 24.8571ZM26.7125 26.3585C26.8601 26.151 26.9234 25.9883 26.8345 25.7899C26.8254 25.769 26.7622 25.7481 26.7411 25.76C26.5317 25.8734 26.6115 26.0615 26.6266 26.2316C26.6281 26.2465 26.6462 26.2615 26.7125 26.3585ZM21.8798 27.051C21.8768 26.9405 21.7909 26.9002 21.6749 26.8883C21.5589 26.8778 21.5153 26.9375 21.5168 27.042C21.5198 27.1629 21.568 27.2405 21.7066 27.236C21.815 27.233 21.8602 27.1703 21.8798 27.051ZM23.6634 25.0481C23.68 24.9556 23.5881 24.9332 23.4932 24.9242C23.3652 24.9123 23.2778 24.9556 23.2913 25.1048C23.3034 25.2436 23.3983 25.2914 23.5188 25.2839C23.6318 25.2765 23.6514 25.1809 23.6634 25.0481ZM20.9564 24.5362C20.9639 24.4377 20.9428 24.3452 20.8313 24.3332C20.7289 24.3228 20.7349 24.4183 20.7334 24.484C20.7319 24.572 20.7259 24.681 20.8494 24.6899C20.9428 24.6974 20.9458 24.6064 20.9564 24.5362Z" fill="#3F3C44"/>
<path d="M15.6367 17.7635C16.1986 17.7247 16.7741 17.9008 17.3149 18.2157C18.0093 18.6202 18.3347 19.2276 18.4161 20.0156C18.4914 20.7469 18.4507 21.4319 18.0515 22.0811C17.6207 22.7825 16.994 23.1915 16.2167 23.4094C15.7331 23.5452 15.7376 23.5452 15.822 24.0183C15.8582 24.2168 15.8792 24.4182 15.8868 24.6197C15.8928 24.7779 15.8325 24.9137 15.6473 24.9361C15.4695 24.957 15.3595 24.854 15.3204 24.7003C15.2586 24.4511 15.2164 24.1974 15.1772 23.9451C15.1305 23.6481 14.9859 23.5064 14.6605 23.5078C14.1529 23.5108 13.6753 23.3601 13.2204 23.1377C12.4355 22.7512 12.2156 21.8333 12.2713 21.1722C12.2849 21.017 12.3662 20.8812 12.541 20.8692C12.7278 20.8558 12.7941 20.9961 12.8212 21.1498C12.8468 21.2946 12.8588 21.4408 12.8739 21.5871C12.9372 22.1527 13.2264 22.5408 13.7763 22.7288C13.829 22.7467 13.8787 22.7751 13.9329 22.784C14.2372 22.8407 14.5973 23.0721 14.8338 22.8706C15.0612 22.6766 14.8247 22.3288 14.7585 22.0557C14.5159 21.0528 14.4617 20.0245 14.296 19.0112C14.2071 18.4679 14.2041 18.4396 13.6301 18.4829C13.3499 18.5038 13.0803 18.4873 12.8031 18.4411C11.6914 18.256 11.6582 17.2441 12.0951 16.589C12.3903 16.1457 12.8137 15.8607 13.3168 15.6786C13.7732 15.5129 13.7612 15.501 13.7326 15.0339C13.719 14.816 13.7341 14.5951 13.7507 14.3757C13.7567 14.2817 13.8184 14.2011 13.9254 14.1951C14.0369 14.1892 14.0926 14.2742 14.1182 14.3623C14.1785 14.5742 14.2161 14.7906 14.2779 15.0025C14.3954 15.4144 14.4105 15.4428 14.8503 15.4398C15.3384 15.4353 15.8084 15.4876 16.2634 15.6711C16.6084 15.8099 16.8419 16.0562 17.0106 16.3741C17.0528 16.4547 17.0904 16.5502 17.0015 16.6233C16.9157 16.6949 16.8208 16.6561 16.7469 16.6024C16.417 16.3562 16.057 16.1771 15.6503 16.098C15.5599 16.0801 15.4725 16.0412 15.3821 16.0278C14.5702 15.9114 14.531 15.9502 14.6138 16.7502C14.6214 16.8233 14.6244 16.8964 14.6349 16.9695C14.778 17.8904 14.644 17.768 15.6367 17.7635ZM15.5644 18.3679C15.4529 18.3679 15.343 18.3605 15.233 18.3694C14.8534 18.3993 14.8157 18.4306 14.879 18.8097C15.0823 20.0171 15.1441 21.2453 15.4846 22.4318C15.6262 22.9273 15.6608 22.9631 16.1609 22.8064C17.6794 22.3288 18.163 20.923 17.6689 19.4873C17.5529 19.15 17.3134 18.9022 16.9955 18.7157C16.5481 18.453 16.0721 18.353 15.5644 18.3679ZM13.4268 17.8725C13.4268 17.8739 13.4268 17.8739 13.4268 17.8725C13.5006 17.8739 13.5744 17.8769 13.6482 17.8739C14.0971 17.8501 14.1077 17.8426 14.07 17.3859C14.0414 17.0397 13.9917 16.6964 13.9525 16.3502C13.9344 16.1935 13.8606 16.1189 13.6934 16.1681C13.24 16.3054 12.8362 16.5233 12.5832 16.9337C12.2819 17.4217 12.4672 17.7919 13.0411 17.8695C13.1662 17.8874 13.2972 17.8725 13.4268 17.8725Z" fill="#3F3C44"/>
</svg>
