<svg width="33" height="32" viewBox="0 0 33 32" fill="none" xmlns="http://www.w3.org/2000/svg">
<g clip-path="url(#clip0)">
<path fill-rule="evenodd" clip-rule="evenodd" d="M32.2821 16.2726C32.2821 24.7399 25.4654 31.604 17.0566 31.604C8.64775 31.604 1.83105 24.7399 1.83105 16.2726C1.83105 7.80527 8.64775 0.941162 17.0566 0.941162C25.4654 0.941162 32.2821 7.80527 32.2821 16.2726ZM7.20254 12.9663H9.97461L10.6037 14.6906H11.1391L8.83151 8.55056H8.34226L6.03465 14.6906H6.57463L7.20254 12.9663ZM9.81115 12.527H7.36488L8.58463 9.18625L9.81115 12.527ZM12.5776 14.694H12.0636V8.55398H12.5776V14.694ZM17.7753 14.2638C18.1646 13.9202 18.3942 13.4256 18.4641 12.7801L17.941 12.7858C17.8771 13.3064 17.7084 13.6966 17.4348 13.9561C17.1613 14.2157 16.7551 14.3455 16.2162 14.3455C15.9654 14.3538 15.7163 14.3006 15.4905 14.1905C15.2646 14.0803 15.0688 13.9165 14.9198 13.7132C14.6004 13.2917 14.4407 12.726 14.4407 12.0161V11.2647C14.4399 10.5298 14.6038 9.95432 14.9322 9.5381C15.0876 9.3361 15.2884 9.17416 15.5181 9.06561C15.7478 8.95707 15.9998 8.90502 16.2534 8.91376C17.2522 8.91452 17.8159 9.43593 17.9444 10.478H18.4641C18.4024 9.84837 18.1826 9.35647 17.8046 9.0023C17.4266 8.64813 16.9106 8.47105 16.2568 8.47105C15.823 8.46184 15.396 8.58018 15.028 8.81159C14.665 9.04796 14.3801 9.3878 14.2096 9.78783C14.0098 10.2462 13.9109 10.7426 13.9199 11.2431V12.0377C13.9141 12.532 14.0141 13.0217 14.213 13.4737C14.3837 13.868 14.664 14.2043 15.0201 14.442C15.3779 14.672 15.7952 14.7905 16.2196 14.7825C16.8674 14.7803 17.386 14.6073 17.7753 14.2638ZM20.1463 12.1933V14.6906H19.6311V8.55398H21.7088C22.3423 8.55398 22.8425 8.71706 23.2092 9.04323C23.576 9.3694 23.7597 9.81778 23.7605 10.3884C23.7605 10.965 23.5839 11.41 23.2306 11.7233C22.8774 12.0366 22.3667 12.1933 21.6986 12.1933H20.1463ZM20.1463 11.7551H21.7088C22.2085 11.7551 22.5896 11.6355 22.8519 11.3964C23.1141 11.1573 23.2453 10.8235 23.2453 10.3952C23.2542 10.2077 23.224 10.0205 23.1566 9.84547C23.0893 9.67048 22.9862 9.51165 22.8541 9.37923C22.5926 9.12723 22.2217 8.9982 21.7415 8.99215H20.1463V11.7551ZM24.7715 12.9663H27.5401L28.1726 14.6906H28.708L26.4004 8.55056H25.9112L23.6036 14.6906H24.1435L24.7715 12.9663ZM27.3767 12.527H24.9304L26.1535 9.18625L27.3767 12.527ZM13.451 23.1567C13.4574 23.0036 13.4286 22.8511 13.3668 22.711C13.305 22.571 13.2119 22.4473 13.0947 22.3496C12.858 22.1513 12.424 21.9621 11.7927 21.782C11.1614 21.6019 10.7007 21.4074 10.4106 21.1985C10.2234 21.0714 10.0693 20.9008 9.96141 20.701C9.85349 20.5013 9.79491 20.2784 9.79059 20.051C9.78628 19.8237 9.83637 19.5987 9.93664 19.3949C10.0369 19.1912 10.1844 19.0148 10.3666 18.8805C10.7499 18.5869 11.2407 18.4401 11.8389 18.4401C12.2144 18.4335 12.5863 18.5143 12.9256 18.6762C13.23 18.8206 13.4876 19.0489 13.6685 19.3346C13.8447 19.6157 13.9363 19.9421 13.9323 20.2745H13.4138C13.421 20.0844 13.3865 19.8951 13.3127 19.7201C13.2388 19.545 13.1274 19.3886 12.9865 19.2619C12.7017 19.0069 12.3191 18.879 11.8389 18.8783C11.3722 18.8783 11.0009 18.9834 10.7251 19.1938C10.5944 19.2858 10.4882 19.4088 10.4158 19.552C10.3435 19.6951 10.3072 19.854 10.3103 20.0145C10.3073 20.1627 10.3396 20.3094 10.4043 20.4425C10.469 20.5755 10.5643 20.6911 10.6823 20.7796C10.9314 20.976 11.3294 21.1508 11.8761 21.3007C12.3063 21.4076 12.7224 21.5649 13.1162 21.7695C13.3722 21.9073 13.5906 22.1065 13.752 22.3496C13.8984 22.5879 13.9729 22.864 13.9662 23.1442C13.9739 23.372 13.9258 23.5983 13.8262 23.803C13.7265 24.0077 13.5783 24.1846 13.3946 24.3179C13.0106 24.6108 12.5044 24.7572 11.8761 24.7572C11.4706 24.7639 11.0681 24.6867 10.6936 24.5302C10.3637 24.3994 10.0794 24.1735 9.87626 23.8809C9.68947 23.5976 9.59238 23.2639 9.59781 22.924H10.113C10.1063 23.1206 10.1465 23.316 10.2302 23.4937C10.314 23.6715 10.4389 23.8265 10.5944 23.9456C10.9153 24.1953 11.3425 24.3202 11.8761 24.3202C12.3503 24.3202 12.7314 24.215 13.0192 24.0046C13.1564 23.9114 13.2679 23.7848 13.3434 23.6365C13.4189 23.4883 13.4559 23.3232 13.451 23.1567ZM19.2107 23.4234C19.413 22.9538 19.5122 22.4458 19.5015 21.9341V21.1917C19.5037 20.693 19.3991 20.1998 19.1949 19.7455C19.0172 19.349 18.7284 19.0132 18.3641 18.7795C18.0848 18.6085 17.773 18.4985 17.4489 18.4565C17.1247 18.4146 16.7954 18.4417 16.4823 18.5361C16.1693 18.6305 15.8793 18.7901 15.6314 19.0045C15.3834 19.2189 15.183 19.4833 15.043 19.7807C14.8384 20.2489 14.7376 20.7563 14.7476 21.2677V21.9C14.7476 22.7718 14.9667 23.4643 15.4049 23.9774C15.6159 24.2291 15.8809 24.4294 16.1798 24.5632C16.4787 24.6971 16.8038 24.7611 17.1308 24.7504C17.5707 24.7607 18.0042 24.6424 18.3787 24.4099C18.7463 24.1705 19.0357 23.8274 19.2107 23.4234ZM18.4881 19.5309C18.8203 19.9502 18.9864 20.5291 18.9864 21.2677V21.917C18.9856 22.6685 18.8221 23.2543 18.496 23.6743C18.1698 24.0943 17.7147 24.3043 17.1308 24.3043C16.8692 24.3148 16.6088 24.2623 16.3714 24.1511C16.1339 24.04 15.9263 23.8734 15.7656 23.6652C15.4304 23.2399 15.2628 22.6628 15.2628 21.9341V21.2916C15.2628 20.5378 15.4312 19.951 15.7679 19.5309C15.936 19.3334 16.1447 19.1748 16.3794 19.066C16.6142 18.9573 16.8696 18.901 17.128 18.901C17.3864 18.901 17.6417 18.9573 17.8765 19.066C18.1113 19.1748 18.3199 19.3334 18.4881 19.5309ZM25.032 22.7525C24.9621 23.398 24.7321 23.8926 24.3421 24.2361C23.952 24.5797 23.4335 24.7515 22.7864 24.7515C22.362 24.7595 21.9447 24.641 21.5869 24.411C21.2308 24.1735 20.9508 23.8372 20.7809 23.4427C20.5838 22.9918 20.485 22.5037 20.4912 22.0112V21.2166C20.4815 20.718 20.5788 20.2232 20.7764 19.7659C20.9472 19.366 21.232 19.0263 21.5948 18.7897C21.9632 18.5581 22.3906 18.4397 22.8247 18.4491C23.4778 18.4491 23.9934 18.6262 24.3714 18.9804C24.7494 19.3345 24.9696 19.8264 25.032 20.4561H24.5168C24.3883 19.4132 23.8246 18.8914 22.8258 18.8907C22.5721 18.8818 22.3199 18.9339 22.0902 19.0427C21.8604 19.1514 21.6597 19.3137 21.5046 19.5162C21.1754 19.9316 21.0112 20.5068 21.012 21.2416V21.9931C21.012 22.7029 21.1717 23.2686 21.4911 23.6901C21.6401 23.8934 21.836 24.0572 22.0618 24.1674C22.2876 24.2775 22.5367 24.3307 22.7875 24.3224C23.3264 24.3224 23.7326 24.1926 24.0061 23.9331C24.2797 23.6735 24.4488 23.2834 24.5134 22.7627L25.032 22.7525ZM5.61715 16.3636C5.41632 16.3636 5.25352 16.5264 5.25352 16.7272C5.25352 16.928 5.41632 17.0908 5.61715 17.0908H28.8899C29.0907 17.0908 29.2535 16.928 29.2535 16.7272C29.2535 16.5264 29.0907 16.3636 28.8899 16.3636H5.61715Z" fill="white"/>
</g>
<defs>
<clipPath id="clip0">
<rect width="32" height="32" fill="white" transform="translate(0.889648)"/>
</clipPath>
</defs>
</svg>
