<svg width="40" height="40" viewBox="0 0 40 40" fill="none" xmlns="http://www.w3.org/2000/svg">
<path d="M3.96653 14.2226C3.96653 14.2226 5.28567 19.0103 5.75091 19.4982C6.21614 19.9873 7.04336 20.3032 7.04336 20.3032L7.12341 18.7436L6.40758 18.1293C6.40758 18.1293 5.40169 15.9227 5.28567 14.1091L5.42141 11.28L5.09308 11.4813L4.629 12.3939L3.77858 11.0601L3.02446 10.4014V10.564L3.27622 11.28L2.48381 10.8296H2.11603L2.77386 11.7949L1.8457 11.4813V11.7949L3.04418 12.7437L2.44436 12.7636L2.30862 12.959L2.73441 13.2012L3.46881 13.4212C3.46881 13.4223 3.94217 13.5943 3.96653 14.2226Z" fill="white"/>
<path d="M7.37482 25.2817L6.83301 29.2434L6.91886 29.6915L7.37482 29.9454L9.36686 30.0577L10.121 29.7839L10.2173 27.9563L10.7011 26.4739L10.9714 26.7278V29.3463L11.5712 29.633L11.9193 29.7839L12.1513 31.6021C12.1513 31.6021 12.2952 33.5127 12.6734 33.5326L14.1817 33.5935L15.2456 33.3759L15.0912 33.0635L13.5331 32.6446L13.3707 29.3451L14.1445 28.6572L13.2547 24.7903L7.37482 25.2817Z" fill="white"/>
<path d="M18.4166 28.7554V30.2963L18.8993 32.5965L18.8192 33.0774L17.8945 33.9175V34.0883L20.0595 33.1043V31.6605V29.3462L18.4166 28.7554Z" fill="white"/>
<path d="M21.2646 29.4983L21.4317 29.7838L21.6057 31.7588L21.7322 33.1827L22.3216 33.5945L22.998 34.0602L23.7138 34.4124C23.9888 34.3585 23.9691 34.1702 23.7138 33.7092L22.6917 32.5977V31.2908L22.9597 29.3462L21.2646 29.4983Z" fill="white"/>
<path d="M24.3604 24.231L24.64 25.6549L25.654 26.1814L25.9162 25.0897L24.3604 24.231Z" fill="white"/>
<path d="M28.0939 26.8156C28.1612 26.9127 28.3283 27.7984 28.4223 27.7808C28.5197 27.7492 28.5766 26.9033 28.5766 26.9033L28.7703 26.9618C28.7703 26.9618 28.9386 27.8218 29.0697 27.83L29.1474 27.6732L29.2344 26.9525C29.2344 26.9525 29.5813 27.9072 29.717 27.83L29.775 27.7329L29.717 26.9829L28.0928 26.7512V26.8156H28.0939Z" fill="white"/>
<path d="M35.3262 29.282C35.4909 29.4961 35.6359 29.8097 35.6545 30.0577C35.6742 30.3058 35.6243 30.5491 35.7612 30.5105L36.0026 30.1888L36.1963 30.4719C36.1963 30.4719 36.4168 30.9072 36.5351 30.8908L36.6604 30.7059L36.8831 30.569C36.8831 30.569 37.0479 30.5491 37.0479 30.4719C37.0479 30.3935 37.0038 30.087 37.0038 30.087L36.3715 28.7754L35.7624 29.0094L35.3262 29.282Z" fill="white"/>
<path d="M30.4919 24.4943C30.8887 24.7669 32.0953 24.9623 32.5698 24.7084L32.8796 24.0848L34.0108 23.2365C34.0108 23.2365 34.6199 22.3192 34.5619 21.9004C34.5039 21.4815 34.3681 21.1398 34.3681 21.1398L34.2138 20.8321C34.2138 20.8321 33.9725 19.9406 33.4214 19.6481C32.8703 19.3556 32.1939 19.0537 32.1939 19.0537C32.1939 19.0537 28.9651 18.698 27.5242 19.5439L27.3652 19.7148C27.3652 19.7148 28.0068 20.0763 28.3827 20.0822C28.1228 20.1652 27.5253 20.4554 28.5196 20.6566C28.3154 20.721 27.4128 20.9679 27.9813 21.251L28.6832 21.4429L28.7122 22.1519C28.7122 22.1519 28.7412 22.9733 29.0893 23.3336C29.4373 23.694 29.8237 24.0356 29.8237 24.0356L30.4919 24.4943Z" fill="white"/>
<path d="M27.4664 25.4406C27.9502 25.636 28.7739 25.6945 28.8551 25.6945C28.9363 25.6945 29.7775 25.2827 29.7775 25.2827L29.7194 25.1587L29.1103 24.9375L27.1577 21.7364L26.0277 19.8328L25.0566 20.5687L25.2527 21.1701L27.5731 25.2815L27.4664 25.4406Z" fill="white"/>
<path d="M9.86941 16.9769C9.29627 16.9804 8.31591 17.5631 8.30315 18.3447C8.30315 18.3447 8.69761 20.0564 8.94125 20.1032L9.17329 20.0225C9.17329 20.0225 9.37168 20.4753 9.50162 20.3033L9.55963 19.9511L9.86941 20.0681V19.8435L9.66637 19.1414C9.66637 19.1414 10.2557 19.2386 10.2557 19.1028C10.2557 18.9671 9.95642 18.5857 9.95642 18.5857L9.67565 18.1305C9.73366 17.9913 9.8288 17.9422 9.8288 17.9422C9.8288 17.9422 10.8231 18.65 12.0912 18.0522L12.2629 18.0381C12.2629 18.0381 14.625 18.3318 15.6982 18.2733C15.6982 18.2733 17.5174 18.1855 17.7831 17.989V16.9769C17.7831 16.9769 15.7377 17.5327 12.155 16.9769C12.155 16.9769 12.1422 15.8244 13.1841 15.0908C13.1841 15.0908 16.7052 13.4961 14.6552 9.81057L14.5705 8.96465L15.2446 8.2603C15.2446 8.2603 15.8827 6.71003 14.2584 7.17804L13.7943 7.3278C13.7943 7.3278 13.886 5.80327 12.3464 6.91479L11.561 7.32897C11.6642 6.8715 11.0702 6.58484 10.1165 7.12071C10.1165 7.12071 8.39944 8.26147 7.67432 10.0457C7.67432 10.0457 6.36679 11.2614 7.12323 12.876L8.47834 14.7001L9.47842 15.5448C9.47842 15.5436 9.89261 16.0807 9.86941 16.9769Z" fill="white"/>
<path d="M17.3333 10.4037C17.3623 10.9513 16.085 13.8131 16.085 13.8131C16.085 13.8131 18.2719 14.7316 19.4124 14.6988L20.6213 14.7V15.6945C20.6213 15.6945 22.8895 16.4679 23.4441 16.2749C23.4441 16.2749 23.4058 15.223 23.4441 15.0908C23.4823 14.9586 23.7063 14.7 23.7063 14.7C24.2365 14.9305 27.3156 15.099 27.6613 14.8392L26.9339 13L27.1137 9.67831L26.7448 7.64716C26.4188 6.67137 26.3886 6.24315 25.1391 6.12615C24.2771 5.52359 23.0624 5.06494 23.0624 5.06494H21.5065C21.5065 5.06494 18.6246 5.71664 16.8089 8.11634C16.8089 8.11634 16.8855 8.40416 17.4331 8.42054L17.3333 10.4037Z" fill="white"/>
<path d="M18.8695 17.04C18.786 17.2085 18.7408 17.384 18.7396 17.5712C18.7384 17.7116 18.7373 17.852 18.7349 17.9924C18.7338 18.0579 18.7338 18.1258 18.6943 18.1819C18.6468 18.2475 18.5806 18.2826 18.5006 18.2592C18.4159 18.2346 18.4252 18.1609 18.4403 18.0965C18.5006 17.8403 18.511 17.5782 18.5366 17.3185C18.547 17.2155 18.5598 17.1172 18.5505 17.0119C18.5331 16.8306 18.5563 16.813 18.7373 16.7709C19.1167 16.6808 19.481 16.5509 19.8232 16.3567C19.9903 16.2631 20.1202 16.1368 20.2536 16.0057C20.4393 15.8232 20.4439 15.8185 20.6469 15.9694C21.1145 16.3181 21.6412 16.4983 22.2167 16.5556C22.4464 16.579 22.6645 16.6609 22.9012 16.6679C23.1936 16.6761 23.4767 16.6574 23.7481 16.5474C23.8839 16.4924 23.9755 16.5217 24.0556 16.6434C24.2772 16.978 24.5289 17.2904 24.7389 17.6332C24.8213 17.7678 24.9304 17.8848 25.022 18.0146C25.1334 18.1726 25.1346 18.1784 24.9861 18.3106C24.855 18.4288 24.7169 18.54 24.5765 18.6476C24.457 18.7389 24.3422 18.8313 24.2551 18.9553C24.1867 19.0524 24.1008 19.1004 23.9744 19.1027C23.7667 19.1051 23.711 19.1589 23.7041 19.3683C23.6936 19.7053 23.6692 20.0458 23.7075 20.3781C23.7516 20.7595 23.7319 21.1444 23.7864 21.5247C23.8874 22.2185 23.9465 22.9182 24.0045 23.6143C24.0695 24.3912 24.1948 25.1541 24.3236 25.9181C24.4396 26.6084 24.5684 27.2987 24.7355 27.9797C24.8109 28.2862 24.7795 28.3634 24.5011 28.5249C23.8189 28.9215 23.0764 29.1543 22.3141 29.3322C22.2515 29.3474 22.1842 29.3544 22.1204 29.3497C21.596 29.3053 21.0623 29.3263 20.5541 29.1485C20.3418 29.0736 20.1202 29.0409 19.8998 29.0221C19.6457 29.0011 19.409 28.9367 19.1816 28.8209C18.793 28.6232 18.3579 28.5331 17.9831 28.3002C17.8486 28.2172 17.707 28.1458 17.5852 28.044C17.4796 27.9551 17.4379 27.8545 17.4437 27.7035C17.4611 27.2273 17.4274 26.7488 17.439 26.2749C17.4518 25.7262 17.4228 25.174 17.5075 24.624C17.6304 23.8202 17.7557 23.0176 17.9495 22.2255C18.0075 21.988 18.0864 21.7598 18.1583 21.5282C18.3962 20.7607 18.6305 19.992 18.8684 19.2244C18.9241 19.0454 18.996 18.8723 18.9763 18.678C18.9751 18.6687 18.9728 18.657 18.9763 18.6499C19.076 18.4698 19.1178 18.2966 18.9496 18.1246C18.9229 18.0977 18.9496 18.017 18.9542 17.962C18.9751 17.6484 18.9275 17.3466 18.8695 17.04Z" fill="#708DC6"/>
<path d="M25.4328 18.6746C25.4456 18.7471 25.4073 18.7857 25.3586 18.8173C25.0465 19.0162 24.717 19.1882 24.4212 19.4128C24.3539 19.4643 24.2796 19.4561 24.2251 19.3848C24.1659 19.3075 24.203 19.2467 24.2657 19.1929C24.4606 19.0209 24.652 18.8465 24.8493 18.6781C24.9351 18.6055 25.0198 18.5365 25.072 18.4335C25.1312 18.3154 25.2078 18.3224 25.2878 18.4136C25.3563 18.4909 25.405 18.5809 25.4328 18.6746Z" fill="#708DC6"/>
<path d="M24.5685 19.8316C24.4862 19.8257 24.4293 19.7298 24.4711 19.6666C24.5013 19.6222 24.5477 19.5847 24.5929 19.5555C24.8574 19.3835 25.122 19.2103 25.3714 19.0149C25.4143 18.981 25.4665 18.9564 25.5187 18.9412C25.5675 18.9272 25.6069 18.9611 25.6348 19.0009C25.6661 19.0453 25.6603 19.0898 25.6243 19.1272C25.5988 19.1542 25.5709 19.1799 25.5419 19.2021C25.2797 19.4104 25.0001 19.5941 24.7159 19.7696C24.6683 19.8 24.6219 19.8316 24.5685 19.8316Z" fill="#708DC6"/>
<path d="M25.8027 19.2993C25.9687 19.5813 25.9617 19.6012 25.7355 19.7533C25.4907 19.9183 25.2551 20.0961 24.9941 20.2365C24.9465 20.2622 24.8978 20.2938 24.8456 20.3044C24.8027 20.3125 24.7783 20.2693 24.7957 20.2295C24.8085 20.1979 24.8352 20.1651 24.8653 20.1476C25.2308 19.9276 25.5672 19.6761 25.8027 19.2993Z" fill="#708DC6"/>
<path d="M18.1096 18.2029C18.0679 17.7794 17.9901 17.3605 18.033 16.9335C18.0423 16.8434 18.0841 16.7942 18.1769 16.8083C18.2546 16.82 18.3243 16.8504 18.3185 16.9463C18.315 17.0107 18.3011 17.0762 18.2836 17.1371C18.1792 17.4857 18.1224 17.8391 18.1096 18.2029Z" fill="#708DC6"/>
<path d="M7.32211 19.8037C7.32211 19.5603 7.31979 19.317 7.32327 19.0736C7.32443 18.9999 7.33371 18.9239 7.34996 18.8513C7.39288 18.6618 7.41261 18.6442 7.59244 18.6887C7.72122 18.7203 7.84536 18.7425 7.97298 18.6863C8.09364 18.6325 8.13309 18.6934 8.15861 18.808C8.25955 19.2643 8.36512 19.7206 8.64241 20.1114C8.69694 20.1875 8.74799 20.2647 8.8176 20.3279C8.85937 20.3653 8.91737 20.4191 8.96262 20.3934C9.12505 20.301 9.24107 20.3372 9.35825 20.4765C9.40814 20.5361 9.50791 20.5244 9.54852 20.4449C9.60421 20.3337 9.6657 20.3021 9.78984 20.3431C9.91282 20.384 9.98011 20.3068 9.98939 20.1804C9.99751 20.0763 9.98475 19.9757 9.9453 19.8774C9.90934 19.7908 9.88265 19.7019 9.87801 19.606C9.87453 19.5299 9.90122 19.4784 9.98127 19.4691C10.0184 19.4644 10.0555 19.4656 10.0926 19.4597C10.3444 19.4223 10.4395 19.2643 10.3467 19.0198C10.2899 18.87 10.1936 18.7448 10.0764 18.6337C10.0033 18.5635 9.93834 18.4828 9.87685 18.4009C9.82464 18.3307 9.82232 18.2429 9.82696 18.1587C9.83625 17.9773 9.88265 17.9516 10.0544 18.0288C10.486 18.2242 10.9338 18.3119 11.4071 18.2511C11.5673 18.23 11.7146 18.1821 11.8515 18.1002C11.9292 18.0545 11.9919 18.0545 12.0371 18.1399C12.0963 18.2523 12.2054 18.2757 12.3133 18.3084C12.5987 18.3973 12.8864 18.4558 13.188 18.4535C13.4189 18.4512 13.6452 18.5237 13.8795 18.5155C14.0234 18.5097 14.1011 18.6091 14.1348 18.7331C14.1997 18.9777 14.2925 19.2105 14.3749 19.4492C14.4294 19.6071 14.397 19.6668 14.2403 19.6785C13.8319 19.7101 13.4491 19.8634 13.0465 19.923C12.8319 19.9546 12.804 19.9968 12.7878 20.2132C12.7704 20.4554 12.7588 20.6999 12.8017 20.941C12.8585 21.2627 12.898 21.5891 12.9664 21.9074C13.0488 22.29 13.1764 22.6632 13.2994 23.0353C13.3992 23.336 13.5245 23.6285 13.6312 23.928C13.7055 24.1374 13.6974 24.1363 13.5152 24.2661C13.1683 24.5142 12.7855 24.6698 12.3701 24.7505C12.1613 24.7903 11.9548 24.8383 11.7529 24.9167C11.5371 25.0009 11.3132 25.0477 11.073 25.0337C10.9001 25.0231 10.7226 25.0582 10.5486 25.0816C10.0996 25.1413 9.64946 25.194 9.19582 25.2197C8.90809 25.2361 8.62501 25.2536 8.33728 25.215C8.16325 25.1916 7.98574 25.1998 7.80939 25.194C7.7537 25.1916 7.69801 25.1928 7.64232 25.1881C7.25946 25.153 7.22466 25.0746 7.36388 24.7072C7.67133 23.8952 8.03447 23.1043 8.28043 22.2689C8.31175 22.1613 8.3454 22.0513 8.40341 21.9565C8.60064 21.6348 8.66445 21.258 8.83268 20.9246C8.91273 20.7643 8.78395 20.6297 8.59716 20.6812C8.3454 20.7514 8.09016 20.7947 7.83492 20.838C7.79779 20.8438 7.76182 20.8544 7.72586 20.8591C7.40449 20.9012 7.32559 20.8321 7.32095 20.5057C7.31979 20.384 7.32211 20.2623 7.32327 20.1407C7.32327 20.0283 7.32327 19.916 7.32327 19.8037C7.32095 19.8037 7.32211 19.8037 7.32211 19.8037Z" fill="#708DC6"/>
<path d="M35.2164 35.1788C34.9148 35.0653 34.6479 34.9425 34.3962 34.7857C34.1908 34.6581 33.9889 34.5248 33.7778 34.4078C33.6444 34.334 33.569 34.2299 33.5307 34.0872C33.4286 33.7069 33.3856 33.3161 33.3311 32.9289C33.2429 32.3006 33.2279 31.6617 33.1037 31.0369C33.0666 30.8509 33.0097 30.6754 32.9053 30.5175C32.7452 30.2729 32.4517 30.2694 32.2846 30.5128C32.1918 30.6485 32.164 30.8006 32.1593 30.9644C32.1396 31.6021 32.2034 32.2339 32.2939 32.8645C32.3334 33.1324 32.3809 33.3992 32.4169 33.6683C32.4517 33.9304 32.4146 33.9842 32.1732 34.093C32.0549 34.1468 31.9366 34.2042 31.8275 34.2732C31.4006 34.5446 30.9249 34.7084 30.4631 34.9038C30.4214 34.9214 30.3761 34.9378 30.3111 34.9027C30.3541 34.7225 30.4852 34.5914 30.5861 34.444C30.8112 34.1129 31.0943 33.8286 31.3019 33.4799C31.4168 33.288 31.4551 33.1008 31.4296 32.8938C31.3634 32.3661 31.3228 31.8326 31.2463 31.3084C31.1558 30.6906 31.1152 30.0635 30.9736 29.4527C30.8936 29.1052 30.9411 28.7449 30.8808 28.3927C30.8216 28.044 30.8042 27.693 30.6325 27.3666C30.5385 27.1876 30.4272 27.087 30.2392 27.0589C30.0466 27.0296 29.8552 26.9934 29.6614 26.977C29.2554 26.9431 28.8539 26.8647 28.4514 26.8062C27.9397 26.7313 27.4269 26.6459 26.9269 26.4973C26.6786 26.4236 26.4233 26.3709 26.1739 26.3042C26.0938 26.2832 26.0173 26.2469 25.943 26.2106C25.8595 26.1697 25.8189 26.0995 25.8374 26.0035C25.8641 25.8655 25.8862 25.7262 25.9268 25.5929C25.9732 25.4373 26.0521 25.3928 26.2017 25.4607C26.537 25.6116 26.9013 25.6256 27.2506 25.7075C27.4489 25.7543 27.6323 25.8468 27.8365 25.8807C28.5036 25.9918 29.1486 25.9322 29.7728 25.6654C29.8923 25.6139 30.0106 25.5589 30.129 25.5051C30.3274 25.415 30.5084 25.3132 30.5548 25.0652C30.5791 24.9377 30.6766 24.9119 30.7926 24.9611C30.8355 24.9798 30.8773 25.0008 30.9202 25.0172C31.121 25.0944 31.3193 25.1506 31.5433 25.1061C31.7544 25.064 31.8089 25.1284 31.8113 25.3425C31.8171 26.0059 31.8403 26.6669 31.9203 27.328C31.9714 27.7433 31.9598 28.1681 31.9505 28.5881C31.947 28.7695 31.9841 28.9403 32.0004 29.1169C32.005 29.1626 32.0189 29.2187 32.0758 29.2187C32.1315 29.2187 32.1489 29.1673 32.1512 29.1193C32.1558 28.9976 32.1663 28.8748 32.1547 28.7542C32.0932 28.1014 32.1141 27.4462 32.099 26.7921C32.0886 26.3651 32.1176 25.9322 32.0073 25.5121C32.0004 25.4852 32.0004 25.456 31.9981 25.4291C31.9807 25.1834 32.0108 25.1155 32.1605 25.0605C32.3612 24.9868 32.5747 25.016 32.6628 25.1717C32.7928 25.3998 32.9993 25.5519 33.1838 25.7087C33.4239 25.9134 33.6513 26.1346 33.9008 26.3288C34.3985 26.7184 34.9136 27.0893 35.3243 27.5772C35.6063 27.9118 35.865 28.2652 36.0901 28.6419C36.1573 28.7542 36.1399 28.8385 36.0135 28.8841C35.8719 28.9356 35.749 29.0187 35.6225 29.0971C35.4508 29.2035 35.3464 29.2012 35.2385 29.0409C35.0134 28.7051 34.7141 28.436 34.4646 28.1224C34.3428 27.9692 34.2105 27.8229 34.0272 27.7387C33.8416 27.6533 33.7314 27.7059 33.7256 27.9095C33.7175 28.2453 33.7047 28.5823 33.7395 28.9192C33.7929 29.4387 33.8323 29.9605 33.888 30.48C33.9449 31.0007 34.0017 31.5213 34.0841 32.0373C34.1746 32.6001 34.2929 33.1582 34.402 33.7174C34.4345 33.8848 34.5099 34.0298 34.6166 34.1667C34.7883 34.3867 34.9461 34.6184 35.1016 34.8512C35.1549 34.9343 35.2164 35.022 35.2164 35.1788Z" fill="#708DC6"/>
<path d="M25.7956 19.1542C25.7747 19.2536 25.726 19.3449 25.6587 19.4209C25.4417 19.6643 25.1865 19.8608 24.9092 20.0317C24.7584 20.1241 24.7178 20.0165 24.6563 19.924C24.5925 19.8281 24.5623 19.7474 24.6841 19.6678C24.9846 19.4701 25.2816 19.2641 25.5798 19.0629C25.6262 19.0313 25.6761 19.0044 25.7341 19.0348C25.7805 19.0582 25.7956 19.1003 25.7956 19.1542Z" fill="#3F3C44"/>
<path d="M18.1444 17.79C18.1734 17.4741 18.2511 17.1688 18.3288 16.8622C18.3451 16.7979 18.3741 16.7288 18.4507 16.73C18.5319 16.7312 18.5423 16.8107 18.5597 16.8716C18.5725 16.916 18.5841 16.964 18.5794 17.0085C18.5377 17.3302 18.54 17.6578 18.4646 17.9749C18.4541 18.0194 18.4391 18.0662 18.4135 18.1036C18.352 18.1925 18.2441 18.1832 18.1908 18.0896C18.1548 18.0287 18.1397 17.9269 18.1444 17.79Z" fill="#3F3C44"/>
<path d="M25.5273 18.7003C25.5319 18.7588 25.5076 18.7998 25.4728 18.8302C25.3834 18.9109 25.2976 18.9963 25.2001 19.0654C25.0273 19.1894 24.8486 19.3029 24.6711 19.421C24.6177 19.4561 24.5655 19.4971 24.4971 19.4994C24.4483 19.5006 24.4066 19.4842 24.3776 19.4433C24.3462 19.3965 24.3648 19.3544 24.395 19.3169C24.4124 19.2959 24.4321 19.2748 24.4553 19.2608C24.7593 19.0677 25.0632 18.8746 25.3695 18.6851C25.4229 18.65 25.489 18.6149 25.5273 18.7003Z" fill="#3F3C44"/>
<path d="M25.1694 18.0989C25.1612 18.2779 25.0777 18.3961 24.9675 18.4943C24.7679 18.6734 24.5614 18.8442 24.3561 19.0162C24.3213 19.0454 24.2818 19.0723 24.2401 19.0887C24.1936 19.1074 24.1484 19.0899 24.1206 19.0454C24.0962 19.0056 24.1252 18.9776 24.1484 18.9483C24.3433 18.7108 24.5568 18.4908 24.8109 18.3212C24.9188 18.2486 25.0011 18.1223 25.1694 18.0989Z" fill="#3F3C44"/>
<path d="M18.9195 16.764C18.9392 17.0764 18.9601 17.39 18.9751 17.7024C18.9786 17.7749 18.967 17.851 18.9496 17.9212C18.9334 17.9832 18.9009 18.051 18.8197 18.037C18.7501 18.0241 18.7501 17.9574 18.7512 17.9036C18.7582 17.617 18.7303 17.328 18.8081 17.0472C18.8348 16.9524 18.858 16.8553 18.8823 16.7605C18.8939 16.7605 18.9067 16.7617 18.9195 16.764Z" fill="#3F3C44"/>
<path d="M9.43893 15.0112C9.46677 15.0194 9.48533 15.0381 9.47837 15.0662C9.47605 15.0779 9.45285 15.0931 9.44125 15.0908C9.41456 15.0873 9.39484 15.0662 9.4018 15.037C9.40412 15.0253 9.42616 15.0194 9.43893 15.0112Z" fill="#3F3C44"/>
<path d="M10.1176 16.627C10.1106 16.6422 10.1025 16.6563 10.0955 16.6715C10.0897 16.6551 10.0781 16.6387 10.0781 16.6235C10.0781 16.6083 10.0909 16.5931 10.099 16.5779C10.1048 16.5931 10.1106 16.6095 10.1176 16.627Z" fill="#3F3C44"/>
<path d="M37.1705 30.4905C37.1241 30.1442 36.9745 29.833 36.8584 29.5089C36.4628 28.3985 35.7853 27.4824 34.936 26.6973C34.3234 26.1299 33.7016 25.5683 33.0194 25.0804C32.7177 24.8651 32.6945 24.6018 32.9393 24.3245C33.0507 24.1993 33.1714 24.0812 33.3141 23.9911C33.502 23.8717 33.6714 23.7266 33.8431 23.5886C34.132 23.3569 34.3478 23.048 34.5589 22.7415C34.5949 22.6888 34.6193 22.6257 34.6378 22.5637C34.7457 22.2127 34.7991 21.8687 34.6599 21.5013C34.5914 21.3188 34.5497 21.128 34.4348 20.9654C34.3965 20.9116 34.3745 20.8531 34.3652 20.7852C34.2851 20.2096 33.9661 19.7708 33.4904 19.4924C33.0472 19.2326 32.5936 18.9717 32.0738 18.8676C31.5274 18.7576 30.9774 18.657 30.4206 18.6886C29.6502 18.7319 28.9065 18.9343 28.1744 19.1694C27.8507 19.2736 27.5201 19.3812 27.3182 19.7065C27.3983 19.7287 27.4655 19.6983 27.527 19.6632C27.8612 19.4701 28.2324 19.3917 28.5979 19.2888C29.055 19.1601 29.5179 19.07 29.989 19.029C30.7187 18.9659 31.4311 19.0911 32.1353 19.2689C32.365 19.3274 32.5982 19.3941 32.8047 19.5298C32.9126 19.6012 33.0356 19.6503 33.1563 19.6971C33.6157 19.8785 33.8675 20.2482 34.0287 20.6893C34.0891 20.8554 34.1459 21.0216 34.2271 21.1807C34.3814 21.479 34.4255 21.8113 34.3756 22.1331C34.3083 22.566 34.0786 22.9264 33.7596 23.2282C33.4684 23.5043 33.1366 23.7266 32.8175 23.9653C32.6446 24.0952 32.5077 24.2356 32.4869 24.4556C32.4752 24.5749 32.408 24.6147 32.307 24.6287C32.1423 24.6521 31.9775 24.6814 31.8116 24.6978C31.4311 24.7364 31.0853 24.5843 30.7292 24.493C30.5934 24.4579 30.5981 24.3198 30.5087 24.2567C30.4635 24.2251 30.4229 24.1841 30.3741 24.1584C30.127 24.0227 29.9217 23.8284 29.721 23.6389C29.5539 23.4809 29.3625 23.3382 29.2279 23.151C28.9297 22.7345 28.8357 22.2524 28.8497 21.747C28.8555 21.5399 28.8694 21.5282 29.0828 21.5434C29.5005 21.5727 29.9182 21.561 30.3347 21.5563C30.728 21.5516 31.1062 21.4627 31.4728 21.3199C31.5204 21.3012 31.5842 21.2918 31.5877 21.2041C30.9972 21.2345 30.4101 21.2696 29.8219 21.272C29.2824 21.2743 28.7487 21.272 28.229 21.107C28.1686 21.0883 28.1013 21.0859 28.0375 21.0824C27.99 21.0801 27.9435 21.0976 27.9331 21.1526C27.925 21.1924 27.9517 21.224 27.9818 21.2474C28.0793 21.3234 28.1976 21.3539 28.3102 21.3948C28.5735 21.4908 28.5851 21.4931 28.5434 21.7587C28.4946 22.0687 28.5132 22.3788 28.5596 22.6807C28.613 23.0246 28.7545 23.3499 29.0098 23.5921C29.2302 23.8027 29.4471 24.0215 29.707 24.19C29.8474 24.2812 30.0006 24.3468 30.1375 24.4439C30.2465 24.5211 30.2767 24.6088 30.2709 24.727C30.2604 24.9341 30.0887 25.1704 29.8892 25.126C29.6351 25.0687 29.3172 25.0499 29.1455 24.8335C28.7418 24.3222 28.4169 23.7547 28.0804 23.1955C27.8066 22.7403 27.5502 22.2758 27.3147 21.7996C27.2242 21.6171 27.0908 21.4557 27.0038 21.2708C26.8135 20.8613 26.5745 20.4857 26.2914 20.137C26.1394 19.951 26.1406 19.9498 26.3088 19.7615C26.52 19.5251 26.5328 19.4573 26.3726 19.1671C26.1754 18.8079 25.9793 18.4464 25.7554 18.1047C25.629 17.9117 25.5419 17.6847 25.3586 17.5326C25.2125 17.4109 25.1196 17.2506 25.0059 17.1032C24.7124 16.7194 24.4363 16.3158 23.9966 16.0771C23.9188 16.035 23.8539 15.9975 23.7657 16.0432C23.6369 16.1087 23.6079 16.0326 23.594 15.9203C23.5186 15.34 23.6079 14.7912 23.8898 14.2753C24.0847 13.9196 24.3168 13.5955 24.6231 13.3322C24.7101 13.2574 24.7519 13.124 24.9085 13.1076C25.0025 13.4235 25.0639 13.7464 25.2055 14.0413C25.347 14.3373 25.3702 14.6871 25.6232 14.9808C25.6162 14.9012 25.6185 14.8638 25.6104 14.8287C25.441 14.1501 25.2391 13.4797 25.144 12.7847C25.0999 12.4606 25.0407 12.1318 25.0628 11.8089C25.0976 11.3069 25.1753 10.8085 25.2507 10.3101C25.3146 9.89474 25.4062 9.48406 25.4781 9.06988C25.5106 8.87799 25.535 8.68143 25.448 8.42754C25.3308 8.83821 25.2299 9.18571 25.1336 9.53554C24.854 10.5476 24.6672 11.569 24.8087 12.6255C24.8319 12.7964 24.7797 12.8982 24.637 12.9953C24.2449 13.262 23.9014 13.5592 23.6822 14.0167C23.384 14.6391 23.1798 15.2593 23.297 15.9554C23.319 16.0865 23.268 16.1391 23.1346 16.1461C22.9257 16.1567 22.7308 16.0923 22.5301 16.0607C21.9906 15.9753 21.4604 15.8548 20.9708 15.5904C20.8339 15.5167 20.7863 15.4535 20.8177 15.2908C20.9163 14.7784 20.8211 14.2963 20.4835 13.8938C20.3118 13.6891 20.0925 13.5241 19.8872 13.351C19.3048 12.8584 18.7409 12.3576 18.3418 11.6849C18.0286 11.1584 17.8 10.5979 17.6364 10.0176C17.5169 9.59287 17.4693 9.14008 17.5459 8.68611C17.5645 8.57496 17.5888 8.5305 17.7037 8.50827C17.858 8.47902 18.0228 8.44743 18.162 8.30001C17.2942 8.34798 17.0053 8.3082 16.8092 8.10929C16.9797 8.00633 17.0911 7.8437 17.2338 7.71149C17.583 7.3874 17.9845 7.13233 18.3557 6.83866C18.9706 6.35076 19.6145 5.92371 20.3315 5.60195C20.8583 5.36561 21.3954 5.23106 21.972 5.25329C22.2122 5.26265 22.4535 5.24627 22.6914 5.30828C23.2657 5.45804 23.8353 5.6195 24.3968 5.81139C24.4966 5.84532 24.6161 5.9085 24.7449 5.81139C24.5442 5.65694 24.3377 5.55164 24.1335 5.44283C23.7947 5.26148 23.4176 5.19245 23.0615 5.06024C22.4129 4.82038 21.7516 4.83208 21.088 4.95025C20.4673 5.06141 19.9289 5.38199 19.3883 5.68736C19.1945 5.79735 19.0124 5.92254 18.8326 6.05826C18.5947 6.23844 18.3952 6.47127 18.1388 6.61636C17.4786 6.98959 17.0308 7.60502 16.4519 8.06951C16.3753 8.13035 16.4008 8.20875 16.4832 8.24853C16.6816 8.34564 16.8428 8.51997 17.0807 8.53284C17.2176 8.53986 17.2512 8.60772 17.2083 8.73993C17.105 9.05818 17.1213 9.3811 17.1549 9.71104C17.1967 10.11 17.2315 10.5219 17.1526 10.9138C17.0029 11.6556 16.7999 12.3822 16.3474 13.014C16.1827 13.2445 16.0516 13.5054 15.9611 13.7874C16.1421 13.8506 16.2569 13.7722 16.3532 13.6435C16.5934 13.3229 16.8104 12.9883 16.9971 12.6314C17.2002 12.2441 17.2767 11.8218 17.3707 11.4029C17.3904 11.3175 17.3928 11.225 17.4786 11.163C17.5703 11.28 17.6271 11.3982 17.6735 11.5199C17.7838 11.8112 17.9323 12.0815 18.1376 12.312C18.6933 12.9391 19.3222 13.4879 19.9707 14.0132C20.1053 14.122 20.2074 14.2425 20.2886 14.3934C20.4406 14.6754 20.4452 14.9866 20.4789 15.292C20.4847 15.3435 20.4592 15.3751 20.4174 15.4055C20.1169 15.6243 19.828 15.87 19.4881 16.0163C19.0217 16.2175 18.5483 16.4222 18.0344 16.4655C17.8731 16.4796 17.7942 16.5451 17.7745 16.6937C17.7559 16.8329 17.6561 16.875 17.5436 16.8973C17.3162 16.9429 17.09 17.0014 16.8602 17.019C16.2871 17.0634 15.7128 17.0365 15.1385 17.0728C14.7348 17.0985 14.3264 17.047 13.9203 17.0459C13.4539 17.0447 12.9968 16.971 12.5374 16.9066C12.3332 16.8786 12.3367 16.8692 12.3842 16.6516C12.4353 16.4234 12.52 16.2046 12.5803 15.98C12.6696 15.6465 12.8877 15.4359 13.1859 15.3365C13.6279 15.1902 13.998 14.9293 14.3623 14.659C14.6071 14.4765 14.8369 14.253 14.9773 13.9793C15.3659 13.2176 15.6502 12.4278 15.5701 11.5433C15.5133 10.9138 15.2777 10.3721 14.8647 9.90644C14.8009 9.83507 14.7742 9.78358 14.7963 9.68881C14.8299 9.54373 14.8694 9.38812 14.787 9.25123C14.7034 9.11083 14.7789 9.04063 14.8775 8.97745C15.2893 8.71419 15.4761 8.31288 15.6003 7.85657C15.6571 7.64714 15.6328 7.45994 15.5376 7.28911C15.2963 6.85855 14.9912 6.59296 14.447 6.83515C14.3623 6.87259 14.2788 6.91471 14.1941 6.95215C13.9609 7.05511 13.9493 7.05043 13.9389 6.80005C13.9342 6.69358 13.9284 6.58711 13.8449 6.5169C13.6419 6.34842 13.4307 6.20685 13.1407 6.29109C12.7068 6.41745 12.3169 6.62221 11.9666 6.90886C11.7948 7.04926 11.7867 7.04809 11.6661 6.86791C11.5094 6.63274 11.3018 6.53094 11.0222 6.59296C10.7414 6.65497 10.4606 6.71698 10.2054 6.85972C9.68214 7.15339 9.23895 7.55354 8.83404 7.98878C8.40013 8.45562 8.11124 9.02542 7.86644 9.61276C7.82815 9.70402 7.78174 9.78476 7.69357 9.8222C7.49866 9.90644 7.37568 10.0773 7.22717 10.2142C7.09955 10.3312 6.98933 10.4716 6.929 10.6459C6.78746 11.0566 6.68536 11.4684 6.77006 11.9083C6.78978 12.009 6.81531 12.1131 6.80834 12.2137C6.78282 12.5436 6.90928 12.8326 7.02066 13.1287C7.14828 13.4656 7.37916 13.7382 7.55783 14.0424C7.82815 14.5023 8.2145 14.8521 8.66813 15.1142C8.95586 15.2803 9.17049 15.526 9.42458 15.7273C9.46402 15.7588 9.48723 15.8197 9.50463 15.8712C9.5754 16.0736 9.64037 16.2783 9.7065 16.4819C9.73899 16.5814 9.73667 16.6843 9.72622 16.7873C9.7181 16.8645 9.68214 16.9043 9.6044 16.9101C9.25403 16.9371 8.96862 17.1278 8.7157 17.3395C8.33632 17.6566 8.09964 18.0731 8.18085 18.5926C8.26438 19.1285 8.42101 19.6456 8.74006 20.0973C8.79227 20.1721 8.84216 20.2517 8.94658 20.2739C9.06028 20.2985 9.12641 20.2189 9.1879 20.1464C9.28883 20.2365 9.3132 20.3734 9.4443 20.3874C9.63109 20.4061 9.54408 20.2002 9.63573 20.1277C9.69142 20.1604 9.73667 20.192 9.78539 20.2143C9.93622 20.2845 10.0047 20.24 10.0174 20.0692C10.0244 19.9732 9.99655 19.8843 9.9629 19.7966C9.90605 19.6503 9.85849 19.5029 9.86081 19.3531C9.92462 19.3134 9.9687 19.3414 10.0128 19.3449C10.1497 19.359 10.2808 19.3461 10.3539 19.2127C10.4223 19.0875 10.3852 18.9565 10.3179 18.8395C10.253 18.726 10.1787 18.6219 10.0754 18.5365C9.86661 18.3645 9.76567 18.1492 9.85037 17.8684C9.89561 17.7175 9.9165 17.5595 9.9513 17.4051C10.0928 16.7896 10.101 16.1859 9.81208 15.6032C9.76567 15.5108 9.71926 15.4184 9.64733 15.3458C9.47794 15.1738 9.31552 14.9937 9.13221 14.8392C8.80619 14.5631 8.49294 14.2741 8.19013 13.9722C8.09616 13.8786 8.01262 13.7804 7.95345 13.6634C7.86064 13.4785 7.74578 13.31 7.62164 13.1462C7.55319 13.0573 7.50098 12.9613 7.46733 12.8514C7.27938 12.2324 7.15176 11.6135 7.30143 10.9618C7.34087 10.7921 7.4012 10.6529 7.49866 10.5102C7.67965 10.2434 8.0161 10.0656 7.9929 9.67477C7.9929 9.66658 8.00102 9.65839 8.00566 9.6502C8.25626 9.24772 8.47206 8.81715 8.79575 8.46732C9.15541 8.0777 9.53943 7.70681 9.98263 7.41314C10.2924 7.20721 10.6277 7.04458 11.0048 6.99661C11.2948 6.96034 11.4213 7.08202 11.3865 7.37335C11.3807 7.41899 11.3633 7.46345 11.3528 7.50908C11.3308 7.59683 11.3366 7.67873 11.4213 7.73138C11.5141 7.78988 11.5907 7.76414 11.6695 7.68926C11.8575 7.50791 12.0512 7.33357 12.245 7.15924C12.5304 6.90184 12.8819 6.78016 13.2439 6.69358C13.4516 6.64327 13.5386 6.74389 13.5421 6.96151C13.5456 7.16275 13.5142 7.34878 13.4272 7.53131C13.3773 7.63661 13.4087 7.73372 13.5073 7.80041C13.5955 7.86008 13.6836 7.84721 13.7648 7.78403C13.8461 7.72085 13.9273 7.65884 14.0015 7.58864C14.1883 7.41197 14.4169 7.309 14.6478 7.21189C14.8589 7.12297 14.9958 7.17094 15.1362 7.34761C15.258 7.50206 15.2743 7.67171 15.2186 7.85072C15.0631 8.35383 14.6895 8.64282 14.2312 8.83821C14.1268 8.88267 14.0479 8.92362 14.0456 9.04765C14.0421 9.17167 14.1106 9.23602 14.222 9.26527C14.2394 9.26995 14.2579 9.2758 14.2753 9.28165C14.3623 9.31441 14.461 9.33664 14.4656 9.45598C14.4702 9.58585 14.3937 9.65605 14.2835 9.7087C14.0943 9.79763 13.8913 9.7988 13.6906 9.82571C13.5293 9.84794 13.4017 9.80348 13.2834 9.69817C13.107 9.54139 12.9458 9.37759 12.8761 9.14242C12.8634 9.09796 12.8448 9.0535 12.8181 9.01606C12.7404 8.90373 12.6058 8.88384 12.5443 9.00085C12.3773 9.32026 12.0663 9.42439 11.7809 9.57649C11.5988 9.67477 11.4004 9.70519 11.2148 9.6736C10.9154 9.62446 10.7135 9.51214 10.8098 9.18454C10.8203 9.14944 10.8214 9.11083 10.8203 9.07339C10.8191 9.01957 10.8354 8.95638 10.7669 8.9283C10.7101 8.9049 10.6521 8.92011 10.6103 8.95638C10.3005 9.22081 10.3933 9.73327 10.6764 9.89357C11.0894 10.1264 11.4955 10.0761 11.9051 9.9041C12.1278 9.8105 12.3251 9.67126 12.5165 9.53554C12.5919 9.57649 12.5954 9.64903 12.6267 9.70285C12.8089 10.0141 13.0745 10.2598 13.4214 10.3007C13.7405 10.3382 14.0862 10.3382 14.3844 10.1369C14.5561 10.0211 14.6188 10.0328 14.7174 10.2106C14.8937 10.5289 15.0596 10.8518 15.1339 11.2157C15.2882 11.9633 15.1234 12.6595 14.838 13.3451C14.722 13.6236 14.5851 13.8927 14.3728 14.1009C13.9284 14.5374 13.4052 14.872 12.8634 15.1703C12.571 15.3318 12.3633 15.5401 12.2612 15.863C12.1731 16.1391 12.1185 16.4258 12.0222 16.696C11.8668 17.136 11.883 17.5525 12.0582 17.9784C12.1069 18.0977 12.1777 18.1562 12.2937 18.1866C12.5536 18.2521 12.8147 18.2966 13.0815 18.3294C13.6152 18.3949 14.1524 18.4628 14.6849 18.4616C15.6362 18.4592 16.5969 18.5072 17.5285 18.2369C17.6329 18.2065 17.6654 18.251 17.6712 18.3411C17.6828 18.4943 17.7884 18.5423 17.9149 18.5634C17.9694 18.5727 18.0262 18.5669 18.0808 18.5762C18.3 18.616 18.5147 18.5435 18.7444 18.5306C18.7386 18.7026 18.6713 18.829 18.6144 18.9542C18.2188 19.8223 17.9473 20.7361 17.6376 21.6347C17.3835 22.3741 17.2477 23.1487 17.1387 23.9256C17.0714 24.4053 16.9542 24.8826 16.9786 25.367C17.0087 25.9555 16.9983 26.5429 17.0261 27.1314C17.0436 27.5023 17.1271 27.8416 17.3464 28.147C17.5506 28.4313 17.8418 28.5986 18.1376 28.7495C18.3082 28.8373 18.3604 28.9367 18.3453 29.1216C18.2954 29.7113 18.3801 30.2998 18.4416 30.8813C18.4996 31.4253 18.5843 31.9764 18.7722 32.4959C18.8488 32.7077 18.7896 32.82 18.6249 32.9382C18.3209 33.1558 18.0668 33.4284 17.8394 33.7268C17.8012 33.7782 17.7605 33.8344 17.742 33.8941C17.6851 34.0824 17.771 34.1877 17.9659 34.1667C18.0564 34.1573 18.1492 34.1339 18.2339 34.0977C18.8662 33.8332 19.4625 33.4881 20.1053 33.2447C20.2434 33.1921 20.3014 33.0844 20.2898 32.9347C20.2747 32.7486 20.255 32.5614 20.255 32.3754C20.2538 31.9285 20.1134 31.492 20.1563 31.0416C20.1575 31.0322 20.1505 31.024 20.1505 31.0147C20.1041 30.5233 20.0705 30.033 20.2027 29.5545C20.248 29.5334 20.2816 29.5428 20.3188 29.5533C20.567 29.6259 20.8107 29.7195 21.0683 29.7557C21.327 29.792 21.3397 29.8002 21.3537 30.0705C21.385 30.6765 21.4395 31.2814 21.4755 31.8875C21.4987 32.2865 21.5242 32.6901 21.6205 33.0833C21.6437 33.1792 21.6808 33.2482 21.7678 33.3056C22.1728 33.5676 22.5556 33.8613 22.9443 34.1468C23.138 34.2884 23.3492 34.4101 23.5638 34.5189C23.8307 34.6546 23.9873 34.5493 24.0047 34.2451C24.0186 33.9959 23.9212 33.7794 23.7703 33.6004C23.5128 33.295 23.2401 33.0014 22.9536 32.7241C22.8259 32.6 22.7621 32.4842 22.7946 32.3122C22.8445 32.0536 22.8526 31.7916 22.8433 31.5295C22.8259 31.024 22.942 30.5279 22.9489 30.0237C22.9489 29.9862 22.9559 29.9488 22.9652 29.9125C23.0034 29.7604 23.0731 29.6422 23.2413 29.5978C23.4014 29.5545 23.5592 29.4948 23.7123 29.4281C24.1288 29.2479 24.5372 29.0549 24.8934 28.76C25.1637 28.5366 25.2449 28.2523 25.1742 27.934C25.108 27.6333 25.0558 27.3291 24.9943 27.0273C24.9201 26.6646 24.8748 26.296 24.8087 25.8783C24.97 25.9625 25.0872 26.0164 25.1962 26.0819C25.5013 26.2644 25.8285 26.3931 26.1673 26.4891C26.7207 26.6447 27.2811 26.7663 27.8507 26.8459C28.1071 26.8822 28.1094 26.888 28.1559 27.1478C28.1883 27.3315 28.2382 27.5116 28.2812 27.693C28.2997 27.7714 28.3368 27.8393 28.4262 27.8357C28.5097 27.8322 28.526 27.7597 28.5248 27.6918C28.5236 27.6099 28.5933 27.5327 28.5387 27.4473C28.4494 27.5175 28.555 27.652 28.4378 27.7211C28.2939 27.514 28.3183 27.2578 28.2371 27.0343C28.2185 26.9828 28.258 26.9571 28.3136 26.9489C28.4842 26.9208 28.4888 27.0787 28.5457 27.1747C28.5828 27.1092 28.5329 27.0109 28.6269 27.0027C28.7197 26.9945 28.7127 27.0811 28.7185 27.1443C28.7383 27.3724 28.8415 27.5737 28.9169 27.7843C28.9227 27.8018 28.9297 27.8194 28.939 27.8357C28.975 27.9036 29.0376 27.9176 29.1049 27.9141C29.1907 27.9106 29.2024 27.8428 29.2151 27.7761C29.2522 27.5772 29.2023 27.3701 29.265 27.122C29.3427 27.3092 29.3973 27.4531 29.4611 27.5924C29.4994 27.6766 29.5469 27.7585 29.5991 27.8346C29.6363 27.8896 29.6943 27.9293 29.7662 27.9095C29.8439 27.8884 29.8544 27.8182 29.8521 27.7515C29.8497 27.6778 29.8381 27.6029 29.8254 27.5292C29.8068 27.4216 29.7813 27.3139 29.7906 27.2028C29.9379 27.1571 30.0795 27.1922 30.2164 27.1688C30.3393 27.1478 30.3973 27.2016 30.4322 27.3244C30.5284 27.6684 30.5633 28.0206 30.5981 28.3728C30.6398 28.7916 30.6607 29.2128 30.7199 29.6282C30.8197 30.329 30.9914 31.0182 31.0703 31.7225C31.1213 32.1765 31.1399 32.634 31.1712 33.0891C31.1782 33.1956 31.1352 33.2681 31.0529 33.35C30.7118 33.6893 30.3637 34.0263 30.1583 34.4767C30.0899 34.6277 29.9623 34.795 30.0771 34.9471C30.2024 35.1132 30.3985 35.0278 30.5691 34.9845C31.2594 34.8102 31.8731 34.4569 32.5031 34.1409C32.5762 34.1047 32.6771 34.0626 32.6818 33.9771C32.6934 33.8005 32.7757 33.632 32.7421 33.453C32.5959 32.6726 32.5228 31.8817 32.4207 31.0954C32.401 30.948 32.4068 30.797 32.4091 30.6473C32.4103 30.5654 32.408 30.4636 32.5182 30.4484C32.64 30.4308 32.6736 30.5291 32.6957 30.6227C32.7224 30.7315 32.7514 30.8392 32.7769 30.9468C32.8337 31.1855 32.8198 31.4289 32.8686 31.6675C32.9556 32.0969 33.0147 32.5322 33.0878 32.9639C33.154 33.3594 33.2155 33.756 33.3582 34.1351C33.3988 34.2439 33.4463 34.334 33.5426 34.403C33.8663 34.637 34.1877 34.8745 34.5508 35.0454C34.7747 35.1507 34.9917 35.2688 35.2121 35.3812C35.2678 35.3812 35.3235 35.3812 35.3792 35.3812C35.414 35.3519 35.45 35.3227 35.4848 35.2922C35.646 35.1518 35.6658 35.0805 35.5938 34.8757C35.5753 34.8231 35.5532 34.7704 35.5219 34.7248C35.3316 34.4487 35.1507 34.1655 34.8919 33.9467C34.7272 33.8075 34.6982 33.6109 34.6576 33.4226C34.5114 32.7404 34.378 32.0536 34.2875 31.3622C34.2271 30.8918 34.1575 30.4215 34.096 29.9511C34.0334 29.4808 34.0531 29.0022 33.9406 28.5354C33.8872 28.3143 33.9336 28.0744 33.8675 27.8205C34.0519 27.8814 34.1598 28.0042 34.2654 28.1072C34.733 28.5611 35.1379 29.0689 35.45 29.6469C35.5103 29.7604 35.5277 29.8762 35.5126 29.9991C35.4917 30.1652 35.544 30.315 35.6136 30.4577C35.7029 30.6403 35.7934 30.6403 35.8978 30.4694C35.9315 30.4156 35.9489 30.3466 36.0359 30.3197C36.1136 30.439 36.1913 30.5642 36.2737 30.6859C36.3201 30.7549 36.3735 30.8204 36.428 30.8836C36.4512 30.9117 36.4825 30.9351 36.515 30.9527C36.5986 30.9959 36.6322 30.941 36.6543 30.8719C36.6821 30.7842 36.7273 30.8123 36.7761 30.8509C36.8492 30.9082 36.9014 30.8883 36.9107 30.7994C36.9234 30.6847 36.9733 30.68 37.0568 30.7327C37.1404 30.7853 37.1624 30.6789 37.2204 30.6648C37.2204 30.6274 37.2204 30.59 37.2204 30.5525C37.203 30.5338 37.174 30.5139 37.1705 30.4905ZM9.91302 18.8325C9.96754 18.8816 10.0151 18.9401 10.0615 18.9986C10.0766 19.0173 10.0766 19.0478 10.0859 19.0793C9.93506 19.1098 9.8318 19.0396 9.74131 18.9413C9.68446 18.8804 9.61369 18.8524 9.54291 18.9027C9.48142 18.9471 9.49767 19.0244 9.52087 19.084C9.60673 19.3005 9.62877 19.538 9.74943 19.7439C9.78423 19.8036 9.83992 19.8668 9.79236 19.9627C9.64037 19.8129 9.54524 19.6339 9.45474 19.4526C9.43038 19.4023 9.40949 19.3496 9.38281 19.3017C9.36076 19.2607 9.32712 19.2151 9.27723 19.2268C9.2053 19.2432 9.20762 19.3145 9.22154 19.3637C9.28883 19.5953 9.36309 19.8258 9.43734 20.0551C9.45938 20.123 9.51971 20.185 9.44082 20.3044C9.30392 20.1136 9.25519 19.9136 9.16933 19.7334C9.11364 19.6152 9.07188 19.4912 9.01619 19.373C8.99066 19.3192 8.9779 19.2221 8.89669 19.2467C8.80735 19.2736 8.86304 19.3543 8.87581 19.414C8.91525 19.5942 8.95702 19.7743 9.00227 19.9732C8.7389 19.7966 8.42449 18.9015 8.48714 18.492C8.5962 17.7783 9.03127 17.3372 9.69838 17.0798C9.73667 17.26 9.69722 17.4168 9.63341 17.5724C9.43502 18.0462 9.53711 18.4967 9.91302 18.8325ZM17.2872 18.0041C16.7013 18.1351 16.1061 18.072 15.5156 18.1141C14.9622 18.1527 14.4076 18.1188 13.8577 18.0813C13.4504 18.0532 13.0455 18.0497 12.6395 18.038C12.397 18.031 12.3889 18.0123 12.3216 17.7771C12.2752 17.6133 12.252 17.4507 12.2682 17.2799C12.2844 17.1079 12.3076 17.0786 12.4724 17.1114C12.6998 17.157 12.926 17.2026 13.1546 17.2424C13.4481 17.2939 13.744 17.3161 14.0387 17.329C14.5457 17.3524 15.0515 17.4203 15.5631 17.3723C15.8764 17.343 16.1896 17.3957 16.5064 17.3828C16.8892 17.3664 17.2512 17.2471 17.6445 17.2003C17.6921 17.336 17.6434 17.4483 17.6561 17.5583C17.7025 17.9772 17.6608 17.921 17.2872 18.0041ZM26.1499 20.0996C26.332 20.467 26.5618 20.8075 26.7184 21.1877C26.7961 21.3773 26.8808 21.5645 27.0061 21.7294C27.136 21.9014 27.2091 22.1062 27.3043 22.2981C27.585 22.8667 27.9145 23.4096 28.2603 23.9384C28.4877 24.2871 28.6884 24.6592 28.9924 24.9563C29.0979 25.0593 29.1896 25.1435 29.3451 25.1412C29.4332 25.14 29.533 25.1353 29.6107 25.25C29.2638 25.3729 28.9262 25.4782 28.5677 25.5027C28.4563 25.5098 28.345 25.5144 28.2336 25.5051C27.9575 25.484 27.7335 25.4009 27.592 25.1155C27.302 24.5328 26.9957 23.956 26.665 23.3955C26.2299 22.6584 25.8761 21.8745 25.4062 21.1573C25.3146 21.0181 25.2473 20.8625 25.1544 20.7244C25.0953 20.6355 25.1243 20.584 25.195 20.5419C25.3064 20.4752 25.4213 20.4155 25.5373 20.357C25.6963 20.2774 25.8413 20.1792 25.9747 20.061C26.0455 19.999 26.1058 20.0107 26.1499 20.0996ZM27.4075 25.2629C27.3762 25.2699 27.3437 25.2886 27.3252 25.2793C27.0166 25.1201 26.6546 25.1541 26.3425 24.9996C26.129 24.8932 25.8877 24.8709 25.6707 24.7516C25.4781 24.6451 25.2844 24.5421 25.1022 24.4181C25.0175 24.3608 24.9479 24.2801 24.8598 24.2333C24.615 24.1011 24.5372 23.9092 24.5047 23.6272C24.4177 22.8772 24.3876 22.1202 24.2483 21.3761C24.2379 21.3211 24.2379 21.2649 24.2379 21.2088C24.2367 20.8706 24.1926 20.5384 24.0975 20.2131C24.0685 20.1148 24.0418 20.0177 24.0929 19.8656C24.2228 20.061 24.3319 20.2271 24.4432 20.3909C24.5616 20.5653 24.6474 20.7794 24.9294 20.7185C25.0257 20.6975 25.0361 20.8098 25.0547 20.8753C25.1869 21.3188 25.4248 21.7095 25.6533 22.1038C26.0083 22.7158 26.3692 23.323 26.7219 23.9361C26.9446 24.3234 27.1546 24.7177 27.3692 25.1096C27.3901 25.1482 27.4238 25.1845 27.4075 25.2629ZM19.9556 29.7101C19.8222 30.1606 19.8617 30.6122 19.9104 31.0662C19.9139 31.1036 19.9243 31.1422 19.9173 31.1773C19.8176 31.6593 19.922 32.1437 19.9139 32.6269C19.9092 32.8914 19.8617 33.0563 19.6053 33.1558C19.3906 33.2389 19.1922 33.3641 18.9834 33.4647C18.7572 33.5735 18.546 33.7069 18.3325 33.8367C18.2559 33.8835 18.1829 33.9526 18.0703 33.8976C18.1306 33.756 18.2177 33.6378 18.3348 33.5442C18.553 33.3699 18.7421 33.1663 18.9277 32.9569C19.0182 32.8551 19.0495 32.751 19.0379 32.6269C19.0252 32.4971 19.0182 32.3637 18.9799 32.2397C18.8511 31.8278 18.8662 31.3926 18.7688 30.9749C18.6562 30.4928 18.6609 29.9932 18.5599 29.5089C18.5251 29.3404 18.5379 29.1614 18.5298 28.9765C18.6817 28.9859 18.7943 29.0537 18.9091 29.1087C19.1922 29.2456 19.4649 29.4 19.7874 29.441C19.9812 29.4667 20.0113 29.5217 19.9556 29.7101ZM23.6508 33.8578C23.7239 33.9198 23.7657 34.0041 23.8191 34.0789C23.8678 34.1468 23.8759 34.2193 23.8214 34.2849C23.7518 34.3679 23.681 34.3001 23.6253 34.265C23.3608 34.093 23.0881 33.9303 22.8445 33.7338C22.5811 33.522 22.2911 33.3594 21.9976 33.2014C21.8897 33.1429 21.8421 33.0692 21.827 32.9417C21.7597 32.3766 21.718 31.8079 21.6936 31.2405C21.675 30.8181 21.6054 30.4063 21.5381 29.9921C21.508 29.8072 21.5265 29.7733 21.7122 29.7967C22.0359 29.8388 22.3572 29.8341 22.7099 29.785C22.6716 30.1348 22.6345 30.4577 22.6009 30.7818C22.5684 31.0884 22.5556 31.3949 22.5672 31.7026C22.5765 31.9647 22.5278 32.2233 22.4976 32.483C22.4756 32.6679 22.5255 32.7884 22.6635 32.923C22.9907 33.2365 23.3074 33.5618 23.6508 33.8578ZM24.818 28.0323C24.8493 28.1563 24.8157 28.2242 24.7321 28.2944C24.4792 28.505 24.181 28.6384 23.8852 28.7682C23.4084 28.9753 22.9083 29.1122 22.4013 29.221C22.3213 29.2386 22.2366 29.2444 22.153 29.2433C21.5799 29.2316 21.0068 29.2398 20.4545 29.035C20.2109 28.9449 19.9463 28.932 19.6888 28.9016C19.5577 28.8852 19.4405 28.8478 19.3198 28.7928C19.0843 28.6863 18.8465 28.5857 18.5994 28.5026C18.2571 28.388 17.9415 28.2043 17.6445 27.9949C17.503 27.8942 17.4369 27.762 17.4415 27.5678C17.4554 26.9512 17.4403 26.3334 17.4403 25.7168C17.4403 25.0804 17.5262 24.4532 17.612 23.8226C17.7002 23.1721 17.8661 22.5426 18.003 21.9038C18.0436 21.7131 18.119 21.5305 18.1771 21.3433C18.3905 20.6577 18.6005 19.9709 18.8163 19.2853C18.8836 19.0712 18.9497 18.857 18.9532 18.6289C18.9544 18.5341 18.9729 18.4534 19.0333 18.3703C19.1342 18.2323 19.0658 18.1211 18.8929 18.1223C18.8476 18.1223 18.8012 18.134 18.756 18.1433C18.6829 18.1585 18.611 18.1773 18.539 18.1913C18.0796 18.2814 18.0645 18.2592 18.0529 17.7912C18.046 17.4834 18.0332 17.1757 18.0436 16.868C18.0494 16.6855 18.0622 16.6797 18.2339 16.6867C18.5495 16.6984 18.8569 16.6633 19.1505 16.5299C19.3361 16.4456 19.5356 16.393 19.7189 16.3064C20.0067 16.1707 20.2515 15.9741 20.4417 15.6945C20.6552 15.8314 20.8606 15.9566 21.059 16.0923C21.1761 16.173 21.3038 16.2257 21.4372 16.2643C21.9256 16.4094 22.428 16.4843 22.9315 16.5545C23.2169 16.5942 23.4838 16.5194 23.7495 16.4351C23.9629 16.3673 23.9641 16.3637 24.0929 16.5416C24.2507 16.7604 24.4061 16.9815 24.5604 17.2038C24.6985 17.4027 24.84 17.5993 24.9839 17.7935C25.1927 18.0766 25.3911 18.3715 25.5628 18.6792C25.6777 18.8851 25.8239 19.0641 25.9527 19.2572C26.0548 19.4105 26.064 19.4666 25.9202 19.5544C25.6835 19.6995 25.5048 19.9288 25.2345 20.0247C25.0883 20.0762 24.9619 20.2763 24.8307 20.2225C24.7113 20.1733 24.6509 19.9768 24.5662 19.8434C24.4409 19.6468 24.3179 19.4491 24.1938 19.2525C24.1694 19.2127 24.1486 19.1694 24.1184 19.1343C24.0511 19.0571 23.9838 18.967 23.8632 19.0103C23.7529 19.0501 23.7645 19.1507 23.7576 19.2455C23.7228 19.7205 23.7541 20.1909 23.7843 20.6671C23.8249 21.3199 23.9188 21.9669 23.9386 22.621C23.9432 22.7696 23.9548 22.9217 23.9861 23.0668C24.1068 23.626 24.0824 24.2005 24.1845 24.7621C24.3852 25.8549 24.5453 26.9547 24.818 28.0323ZM25.7171 25.3764C25.6208 25.5589 25.6174 25.7695 25.5733 25.9918C25.3006 25.8982 25.0639 25.7648 24.8284 25.6268C24.7878 25.6022 24.753 25.5729 24.7437 25.5226C24.6869 25.1775 24.63 24.8311 24.572 24.4848C24.8389 24.6241 25.0361 24.8066 25.2751 24.9294C25.39 24.9879 25.5071 25.0417 25.6197 25.1049C25.7276 25.1658 25.7902 25.2406 25.7171 25.3764ZM29.1037 27.6368C28.9332 27.4625 28.9645 27.2554 28.8543 27.0858C29.1559 27.0869 29.1989 27.1852 29.1037 27.6368ZM29.6931 27.6731C29.5434 27.5163 29.5411 27.3326 29.4042 27.211C29.6513 27.1501 29.6815 27.1606 29.7024 27.3315C29.7152 27.4297 29.7349 27.5327 29.6931 27.6731ZM36.964 30.4577C36.7308 30.2425 36.6601 29.909 36.3909 29.6656C36.4512 29.9979 36.6461 30.2284 36.7273 30.5572C36.4802 30.3396 36.4373 30.0541 36.2598 29.8037C36.2064 30.0237 36.3097 30.157 36.3688 30.3045C36.4303 30.4577 36.4733 30.618 36.5406 30.8275C36.3967 30.7245 36.377 30.604 36.3306 30.5034C36.2482 30.3267 36.2053 30.1301 36.0823 29.9734C35.9987 29.8657 35.9338 29.8751 35.892 30.0049C35.8642 30.0927 35.8514 30.1875 35.8352 30.2787C35.8247 30.3349 35.8154 30.3911 35.7458 30.4098C35.6971 30.2542 35.7864 30.0985 35.747 29.9429C35.6901 29.7241 35.602 29.5194 35.4801 29.3298C35.2284 28.9379 34.9662 28.5565 34.6344 28.223C34.4453 28.0323 34.3014 27.7983 34.0554 27.6661C33.8744 27.5678 33.7979 27.5924 33.7839 27.7971C33.7665 28.0487 33.7631 28.3014 33.7723 28.5541C33.7909 29.0935 33.8443 29.6294 33.915 30.1652C34.0125 30.9047 34.0693 31.65 34.2155 32.3824C34.2886 32.7475 34.3281 33.1184 34.4151 33.4822C34.4731 33.7221 34.5497 33.9397 34.7098 34.1363C34.9163 34.3878 35.1008 34.6581 35.2551 34.9471C35.2771 34.988 35.2992 35.0348 35.2632 35.077C35.2237 35.1214 35.1773 35.091 35.1367 35.0723C34.7504 34.8921 34.3664 34.7037 34.0171 34.4545C33.9719 34.4218 33.9278 34.3796 33.8768 34.3644C33.6378 34.2954 33.5554 34.1117 33.5067 33.8906C33.415 33.4799 33.3651 33.0634 33.3152 32.6468C33.2537 32.1274 33.198 31.6079 33.1342 31.0896C33.1064 30.8661 33.0542 30.6508 32.9324 30.4542C32.7641 30.1828 32.495 30.1699 32.3093 30.432C32.2537 30.5104 32.2258 30.597 32.2235 30.6941C32.2107 31.1059 32.2072 31.5166 32.2455 31.9273C32.2931 32.4292 32.3499 32.9312 32.437 33.4272C32.4497 33.5009 32.4567 33.5758 32.4578 33.6507C32.4636 33.9023 32.4555 33.8894 32.2316 33.997C31.8894 34.162 31.5622 34.3609 31.2176 34.5212C30.9113 34.6628 30.5899 34.7716 30.2744 34.8944C30.2651 34.8745 30.2546 34.8547 30.2454 34.8359C30.4298 34.5352 30.6305 34.2427 30.8672 33.9853C31.0772 33.756 31.2164 33.4857 31.3847 33.2318C31.4589 33.1207 31.4612 32.9815 31.4322 32.8504C31.3383 32.4304 31.3278 31.9975 31.2791 31.5739C31.2176 31.0287 31.112 30.4893 31.0761 29.9394C31.0587 29.6656 30.9647 29.3942 30.9461 29.1146C30.916 28.6676 30.8707 28.223 30.8104 27.7796C30.7767 27.5327 30.6329 27.3315 30.5586 27.1021C30.5273 27.005 30.4159 26.9968 30.3219 26.9816C29.8196 26.9056 29.3207 26.8038 28.816 26.7546C27.9818 26.6739 27.1755 26.475 26.3715 26.2492C26.2392 26.2118 26.1012 26.2071 25.9712 26.1439C25.8552 26.0866 25.7914 26.0374 25.8366 25.8923C25.8865 25.7332 25.9167 25.5659 25.948 25.4009C25.9654 25.305 26.013 25.2711 26.1023 25.2968C26.1638 25.3144 26.2288 25.3319 26.2833 25.3635C26.3738 25.4161 26.4701 25.4419 26.5734 25.4536C26.9237 25.491 27.2544 25.6045 27.592 25.6993C28.2034 25.8713 28.8183 25.8771 29.4263 25.6794C29.7152 25.5846 29.9913 25.4559 30.2662 25.3261C30.4113 25.257 30.4994 25.1646 30.5389 25.0008C30.5969 24.7574 30.6143 24.7551 30.8313 24.8522C31.0819 24.9634 31.3359 25.023 31.6144 24.9938C31.8209 24.9727 31.8371 25.002 31.8406 25.2067C31.8557 26.0948 31.9323 26.9781 31.988 27.8638C32.0031 28.0967 32.0042 28.3318 31.9984 28.5647C31.9938 28.7577 32.0332 28.9391 32.068 29.1333C32.1632 29.0923 32.1481 29.0397 32.1469 28.9987C32.133 28.5506 32.1144 28.1013 32.1028 27.6532C32.0901 27.177 32.0669 26.6997 32.0796 26.2246C32.0889 25.8572 32.0065 25.5016 31.9914 25.1377C31.9868 25.0347 31.9938 24.9751 32.0982 24.9563C32.2165 24.9341 32.3349 24.9095 32.4544 24.8943C32.5739 24.8791 32.647 24.9657 32.6968 25.0511C32.8558 25.3249 33.1076 25.5016 33.3361 25.7028C33.6296 25.959 33.9278 26.2118 34.2306 26.4563C34.5195 26.6891 34.82 26.9079 35.0787 27.1782C35.4859 27.6029 35.8386 28.0697 36.1415 28.574C36.2227 28.7097 36.2122 28.739 36.0626 28.8022C35.8676 28.8841 35.6623 28.9473 35.5788 29.1941C35.7447 29.1087 35.9106 29.0245 36.0753 28.9367C36.2644 28.8361 36.2679 28.8338 36.3874 29.0268C36.6194 29.4 36.7865 29.806 36.9547 30.2109C36.9896 30.2822 37.0371 30.3606 36.964 30.4577Z" fill="#3F3C44"/>
<path d="M15.2567 32.9534C14.846 32.7837 14.4167 32.6737 13.9828 32.586C13.8656 32.5626 13.8285 32.5111 13.8146 32.4058C13.7368 31.8231 13.7044 31.2358 13.6591 30.6508C13.6301 30.2787 13.615 29.9043 13.5396 29.5381C13.5118 29.4024 13.5524 29.3263 13.673 29.2737C13.8761 29.1848 14.0107 29.0163 14.1522 28.8548C14.245 28.7483 14.2729 28.629 14.252 28.4909C14.1522 27.8357 13.999 27.1911 13.8482 26.5464C13.7276 26.0304 13.6243 25.5086 13.4596 25.0031C13.4282 24.9072 13.4387 24.8452 13.5327 24.7972C13.6835 24.72 13.796 24.5913 13.9213 24.4813C14.1557 24.2766 14.1882 24.1502 14.0814 23.8682C13.9758 23.5898 13.8679 23.3113 13.7624 23.0317C13.5512 22.4724 13.4108 21.8909 13.2786 21.3094C13.1985 20.9549 13.0744 20.6121 13.028 20.247C13.0106 20.1066 13.0361 20.0493 13.166 20.0528C13.5025 20.061 13.8239 19.9604 14.151 19.9124C14.3506 19.8831 14.5594 19.8785 14.7288 19.7381C14.8541 19.6351 14.8878 19.5544 14.7938 19.4327C14.7044 19.3157 14.6615 19.1917 14.6372 19.0513C14.6174 18.9413 14.5745 18.8348 14.491 18.7529C14.4318 18.6944 14.3622 18.6769 14.2891 18.7225C14.2218 18.7646 14.2195 18.8325 14.2473 18.8968C14.31 19.0419 14.3355 19.1999 14.4074 19.3438C14.4933 19.5181 14.4736 19.5357 14.2833 19.5754C13.8772 19.6632 13.4746 19.7697 13.0651 19.8352C12.8806 19.8644 12.8493 19.9498 12.8307 20.1066C12.7588 20.715 12.9096 21.3 13.0349 21.8804C13.1684 22.4981 13.3691 23.1019 13.6197 23.6845C13.6603 23.7781 13.687 23.8787 13.7183 23.9759C13.7334 24.0227 13.7334 24.0671 13.6858 24.0987C13.2971 24.3561 12.9027 24.5983 12.4293 24.6615C12.3098 24.6779 12.1892 24.6954 12.0766 24.7352C11.6903 24.8721 11.3051 25.0031 10.8863 24.9598C10.8596 24.9575 10.8306 24.9633 10.8027 24.9669C10.2795 25.03 9.75971 25.1143 9.23066 25.1353C8.61692 25.1587 8.01014 25.1143 7.4022 25.0651C7.23745 25.0511 7.21657 25.0078 7.26762 24.8463C7.28386 24.7937 7.31171 24.7434 7.33259 24.6919C7.55883 24.1198 7.80595 23.5547 8.0055 22.9743C8.2561 22.2431 8.55079 21.5317 8.842 20.8168C8.89769 20.6788 8.82692 20.5653 8.68189 20.5758C8.63665 20.5793 8.59372 20.6039 8.54963 20.6156C8.21666 20.7033 7.87904 20.7607 7.53794 20.7934C7.33839 20.8121 7.31287 20.7759 7.31055 20.577C7.30707 20.3242 7.31519 20.0727 7.31055 19.82C7.30243 19.4362 7.32795 19.0548 7.35927 18.6733C7.37088 18.5329 7.4138 18.492 7.55187 18.5517C7.63424 18.5868 7.7317 18.5926 7.82335 18.5996C7.9092 18.6067 7.9881 18.5774 8.05191 18.5154C8.10528 18.4627 8.096 18.3996 8.02987 18.3879C7.82219 18.3516 7.65976 18.2241 7.47877 18.1351C7.30127 18.0474 7.21657 18.0965 7.13884 18.2884C7.10635 18.3691 7.13072 18.4768 7.03094 18.5411C6.66432 18.2545 6.452 17.8649 6.24549 17.4694C6.01693 17.0342 5.94848 16.5474 5.79418 16.0888C5.677 15.7413 5.62943 15.3798 5.57838 15.0206C5.49601 14.4285 5.47628 13.8342 5.52269 13.2363C5.56562 12.6782 5.56562 12.1166 5.62131 11.5597C5.63407 11.4333 5.59926 11.3175 5.53777 11.211C5.45076 11.0601 5.34634 11.0413 5.22452 11.1642C5.0795 11.3093 4.95188 11.4696 4.87995 11.6685C4.81846 11.8393 4.74884 12.0078 4.66415 12.2254C4.57482 12.0756 4.50868 11.9657 4.44371 11.8545C4.25344 11.5246 4.12234 11.1607 3.86246 10.8729C3.6513 10.6389 3.45175 10.392 3.14662 10.268C3.06077 10.2329 2.98419 10.2329 2.91342 10.296C2.84729 10.3557 2.86005 10.4306 2.88326 10.5043C2.90298 10.5663 2.92734 10.6272 2.95171 10.688C3.0074 10.8225 3.09905 10.9419 3.14198 11.1431C2.97955 11.0168 2.85657 10.9232 2.73591 10.8296C2.57929 10.7067 2.40642 10.6166 2.21035 10.5874C2.02007 10.5593 1.9493 10.6599 2.034 10.8331C2.07924 10.9243 2.13725 11.0109 2.19642 11.094C2.2904 11.2274 2.38902 11.3561 2.48647 11.4871C2.47603 11.4988 2.46675 11.514 2.45747 11.5292C2.27184 11.4263 2.07692 11.3526 1.87505 11.2976C1.74511 11.2625 1.63373 11.259 1.56064 11.3888C1.49219 11.5105 1.59544 11.5819 1.65926 11.6533C1.92726 11.9504 2.21035 12.2324 2.54332 12.4582C2.62453 12.5132 2.72663 12.553 2.76376 12.6829C2.60945 12.67 2.46327 12.6489 2.31824 12.6887C2.23355 12.7121 2.15698 12.7262 2.14073 12.8326C2.12565 12.9344 2.15002 13.0152 2.23819 13.0748C2.35421 13.1544 2.47835 13.2117 2.61293 13.2527C2.93198 13.3498 3.24872 13.4539 3.55617 13.5861C3.64898 13.6271 3.70815 13.6774 3.72207 13.7862C3.74412 13.9617 3.78821 14.1349 3.81025 14.3115C3.89842 15.0159 4.00864 15.7156 4.21168 16.3977C4.26969 16.5942 4.34974 16.7849 4.40195 16.9838C4.58874 17.6929 4.90431 18.3434 5.25121 18.9834C5.61551 19.655 6.17124 20.068 6.89288 20.2634C7.01122 20.295 7.04254 20.3523 7.04138 20.4565C7.04022 20.5033 7.0379 20.5501 7.04138 20.5969C7.07155 21.0286 7.11447 21.0134 7.52286 21.0988C7.54955 21.1046 7.57855 21.1 7.6064 21.0964C7.89992 21.0543 8.19461 21.1362 8.47886 21.0649C8.52295 21.1538 8.46958 21.2053 8.44985 21.2638C8.37328 21.4861 8.22826 21.6709 8.1424 21.8909C7.79087 22.7953 7.44049 23.6997 7.04254 24.5854C6.99613 24.6896 6.97061 24.7972 6.94393 24.906C6.90332 25.078 6.9358 25.2254 7.11099 25.305C7.2595 25.3729 7.2653 25.4653 7.23049 25.6197C7.09823 26.2118 6.97177 26.8038 6.86735 27.4017C6.80586 27.7538 6.84299 28.1107 6.77106 28.4617C6.69797 28.8197 6.69913 29.1859 6.70145 29.551C6.70261 29.7276 6.72929 29.8575 6.93929 29.8938C7.0437 29.9113 7.13304 30.0038 7.23629 30.0412C7.35695 30.0845 7.39292 30.157 7.3674 30.2776C7.32795 30.4612 7.31519 30.6485 7.33955 30.8357C7.35695 30.9749 7.3906 31.1129 7.39176 31.2522C7.39408 31.8126 7.44629 32.3707 7.51474 32.9253C7.5275 33.0306 7.51822 33.0938 7.42773 33.1616C7.24209 33.3009 7.06923 33.4577 6.89172 33.6086C6.76294 33.7186 6.66548 33.859 6.57847 34.0005C6.44272 34.2217 6.5309 34.3843 6.78266 34.4089C6.89404 34.4194 7.00658 34.4124 7.11331 34.3773C7.71777 34.1725 8.32339 33.969 8.88261 33.6507C8.97078 33.6004 9.06476 33.5454 9.07984 33.4307C9.1042 33.2552 9.14365 33.0774 9.13785 32.9019C9.11 32.0595 9.29215 31.2276 9.25619 30.3852C9.25155 30.2682 9.29911 30.2179 9.41629 30.2109C9.65065 30.1968 9.86297 30.0904 10.0834 30.0237C10.2632 29.9687 10.2876 29.8996 10.2679 29.6855C10.254 29.5369 10.2319 29.3848 10.2482 29.2386C10.3096 28.7027 10.305 28.1563 10.4802 27.638C10.5138 27.5374 10.5185 27.4368 10.5243 27.335C10.537 27.0986 10.638 26.8986 10.783 26.7067C10.8306 26.8482 10.8654 26.9828 10.8503 27.1337C10.79 27.748 10.7389 28.3622 10.7818 28.98C10.7911 29.1122 10.8108 29.2398 10.841 29.3673C10.8758 29.5124 10.9501 29.6153 11.1195 29.6364C11.2564 29.6528 11.3886 29.7054 11.5232 29.7393C11.768 29.8014 11.7657 29.8002 11.7645 30.0681C11.7634 30.2272 11.768 30.3864 11.7784 30.5443C11.8353 31.3762 12.0372 32.1847 12.1915 33.0002C12.2588 33.3547 12.4525 33.5957 12.8539 33.6835C13.5176 33.8297 14.1742 33.8426 14.8402 33.7548C14.9875 33.7349 15.1279 33.687 15.2671 33.632C15.3367 33.6039 15.4006 33.5665 15.4551 33.5138C15.5757 33.3968 15.5862 33.2435 15.4806 33.1148C15.4226 33.0388 15.3426 32.9896 15.2567 32.9534ZM5.74429 19.091C5.44148 18.5973 5.19088 18.0778 5.00293 17.5279C4.81265 16.9721 4.61658 16.4187 4.46228 15.8513C4.29057 15.2206 4.16875 14.5783 4.05041 13.9371C3.98428 13.5791 3.77892 13.3861 3.47031 13.2527C3.27076 13.1661 3.05613 13.1544 2.85077 13.1006C2.74403 13.0725 2.63498 13.0573 2.53752 12.9251C2.71619 12.8993 2.86353 12.911 3.01204 12.945C3.11994 12.9695 3.2696 13.0187 3.32413 12.9262C3.39838 12.7999 3.22899 12.7402 3.15474 12.6817C2.82873 12.4196 2.50155 12.1599 2.19062 11.8791C2.13029 11.8253 2.0572 11.7808 2.03284 11.6486C2.33333 11.7188 2.55724 11.8791 2.7858 12.0253C3.01436 12.1716 3.19187 12.4009 3.49352 12.4805C3.50744 12.3459 3.43667 12.2862 3.37866 12.2195C3.10833 11.913 2.83801 11.6041 2.56768 11.2976C2.46907 11.1864 2.3983 11.0601 2.34609 10.9185C3.05264 11.211 3.43783 11.8791 4.00052 12.3599C4.07013 12.2453 4.01444 12.1669 3.975 12.0862C3.85666 11.8416 3.70583 11.6146 3.53876 11.4052C3.35545 11.1759 3.2464 10.908 3.10253 10.6587C3.08861 10.6353 3.08049 10.6073 3.11762 10.5663C3.18607 10.5581 3.23363 10.6201 3.2812 10.6693C3.61186 11.0098 3.95179 11.3409 4.10378 11.8147C4.13742 11.9177 4.21748 12.0054 4.28013 12.0979C4.37874 12.2441 4.50056 12.374 4.53885 12.5565C4.55509 12.6314 4.59918 12.7086 4.67923 12.7133C4.79061 12.7203 4.79409 12.615 4.82194 12.5378C4.91359 12.2734 5.00409 12.0089 5.1027 11.748C5.14331 11.6404 5.18276 11.5234 5.30922 11.4321C5.30922 11.6556 5.33474 11.851 5.30458 12.0382C5.21872 12.5647 5.19204 13.0971 5.16651 13.6271C5.13519 14.2718 5.20016 14.9106 5.34402 15.5436C5.46584 16.0829 5.6654 16.5954 5.81622 17.1242C5.92992 17.5209 6.13063 17.8824 6.34759 18.2311C6.48217 18.4475 6.67476 18.6113 6.89056 18.7459C6.95437 18.7857 7.0263 18.8184 7.0205 18.9097C6.99381 19.3087 7.04486 19.7076 7.04718 20.178C6.50305 19.8644 6.0413 19.5743 5.74429 19.091ZM9.04503 30.4109C8.87796 31.3025 8.81183 32.2034 8.78167 33.1078C8.77703 33.2611 8.73178 33.3477 8.5856 33.398C8.05307 33.5828 7.55767 33.8578 7.03674 34.0684C7.01354 34.0778 6.98453 34.0766 6.91956 34.086C6.97409 33.9222 7.09011 33.8484 7.18525 33.7689C7.35579 33.6261 7.51474 33.4682 7.68297 33.3254C7.80247 33.2248 7.83031 33.1172 7.82683 32.9861C7.81523 32.5579 7.77462 32.1285 7.78622 31.7003C7.79783 31.251 7.73518 30.8099 7.70269 30.3653C7.68877 30.1793 7.70269 30.1769 7.886 30.1851C8.21898 30.2015 8.55195 30.1629 8.88377 30.2038C9.07056 30.2296 9.07868 30.2308 9.04503 30.4109ZM11.7796 29.455C11.6961 29.4515 11.6125 29.4527 11.5302 29.4457C11.1693 29.4164 11.1728 29.4153 11.1519 29.035C11.116 28.3622 11.1566 27.6883 11.1473 27.0156C11.1438 26.8237 11.1125 26.6447 11.0336 26.4727C10.986 26.3697 10.9454 26.255 10.8097 26.2527C10.6774 26.2504 10.5707 26.3252 10.5208 26.4411C10.4071 26.7055 10.2516 26.9594 10.2389 27.2554C10.2307 27.445 10.1797 27.6228 10.1426 27.8041C10.1054 27.9855 10.0892 28.1692 10.088 28.3576C10.0857 28.7203 10.0544 29.083 10.0416 29.4457C10.037 29.5638 9.99407 29.627 9.87921 29.6691C9.54391 29.792 9.2005 29.8599 8.84432 29.8294C8.64941 29.8119 8.45334 29.8072 8.2619 29.8329C7.91617 29.8797 7.57739 29.8283 7.23978 29.7709C7.05878 29.7405 7.0147 29.6949 7.0263 29.5077C7.05298 29.1075 7.05531 28.7062 7.11447 28.3073C7.13768 28.1516 7.10983 27.989 7.13072 27.8322C7.18061 27.4531 7.23165 27.0729 7.30707 26.6973C7.37552 26.358 7.42773 26.0187 7.43817 25.6712C7.44513 25.4466 7.44977 25.4489 7.68529 25.4805C8.38372 25.5741 9.08448 25.6513 9.79103 25.6045C9.94766 25.594 10.1043 25.5718 10.2609 25.5495C10.6008 25.5016 10.9396 25.4594 11.2854 25.4723C11.4327 25.4782 11.5777 25.4384 11.7204 25.3892C11.9919 25.2956 12.2646 25.2044 12.5511 25.1681C12.7878 25.1377 13.0152 25.0616 13.26 24.9844C13.2786 25.2102 13.296 25.4126 13.3111 25.615C13.3354 25.9239 13.4143 26.2188 13.5002 26.5171C13.6962 27.1969 13.8888 27.879 14.0083 28.5787C14.0269 28.6898 13.9921 28.7448 13.9097 28.8115C13.687 28.9929 13.4224 29.0795 13.1591 29.1649C12.7089 29.3111 12.2634 29.4784 11.7796 29.455ZM14.7462 33.3676C14.0791 33.3992 13.4143 33.3418 12.7484 33.3126C12.6486 33.3079 12.6115 33.2599 12.5825 33.164C12.5175 32.9464 12.5198 32.7205 12.4943 32.4994C12.3922 31.6371 12.2669 30.7807 12.0743 29.9336C12.0499 29.8248 12.0488 29.7534 12.1868 29.744C12.4943 29.7218 12.7785 29.6036 13.0721 29.5241C13.2496 29.4761 13.2623 29.4819 13.267 29.6621C13.2739 30.0447 13.2658 30.4285 13.2902 30.8099C13.3319 31.4616 13.4132 32.1086 13.5547 32.7475C13.5849 32.882 13.6649 32.9253 13.7775 32.9616C14.0861 33.061 14.3993 33.1394 14.7207 33.1839C14.8205 33.1979 14.9226 33.2084 15.0038 33.281C14.933 33.3641 14.839 33.3629 14.7462 33.3676Z" fill="#3F3C44"/>
<path d="M26.5963 7.90333C26.754 8.35378 26.8445 8.80892 26.8457 9.29565C26.8457 10.062 26.761 10.8213 26.7366 11.5854C26.7262 11.9013 26.6926 12.2195 26.7227 12.5307C26.7842 13.1661 26.935 13.7827 27.275 14.3326C27.4188 14.5666 27.5465 14.8216 27.8319 14.9328C27.6857 14.556 27.5117 14.198 27.3887 13.8178C27.1845 13.1895 27.0917 12.5483 27.1381 11.8872C27.2007 10.9933 27.2483 10.0994 27.2355 9.20204C27.2297 8.83934 27.1601 8.50004 27.0603 8.15839C27.029 8.05075 26.993 7.94545 26.9617 7.83781C26.8213 7.35225 26.674 6.87488 26.2737 6.52271C26.0811 6.35306 25.9825 6.2852 25.7783 6.31211C26.0835 6.67949 26.4037 7.03284 26.4988 7.5219C26.5243 7.65294 26.5533 7.78048 26.5963 7.90333Z" fill="#3F3C44"/>
<path d="M13.0932 11.6639C12.9679 11.7446 12.8275 11.7926 12.6872 11.8394C12.6361 11.8569 12.57 11.8838 12.5816 11.9493C12.5932 12.0114 12.6616 12.0172 12.7162 12.0277C12.9064 12.0687 13.0573 11.9692 13.2092 11.8827C13.3566 11.7984 13.4703 11.5878 13.4401 11.4708C13.4088 11.3526 13.2487 11.2789 13.0468 11.2661C12.9378 11.259 12.8043 11.3597 12.7324 11.2637C12.6663 11.1748 12.6663 11.0356 12.6396 10.9174C12.6187 10.8261 12.6025 10.7349 12.5804 10.6448C12.5561 10.543 12.5201 10.4494 12.3774 10.4026C12.3217 10.7162 12.3519 11.0005 12.4052 11.2836C12.4377 11.4556 12.512 11.4895 12.7057 11.4872C12.8241 11.486 12.9424 11.4287 13.0619 11.479C13.1025 11.4966 13.1582 11.4966 13.1663 11.5539C13.1733 11.6077 13.1327 11.6381 13.0932 11.6639Z" fill="#3F3C44"/>
<path d="M23.2379 9.33187C23.1717 9.40207 22.9989 9.45589 23.058 9.54014C23.1462 9.66416 23.2634 9.51439 23.3678 9.47578C23.3759 9.47227 23.3829 9.46525 23.391 9.4594C23.6915 9.22891 24.0164 9.02884 24.2948 8.7691C24.5744 8.50935 24.7925 8.20983 24.8726 7.78979C24.7403 7.86 24.6928 7.96764 24.6231 8.04837C24.2078 8.52924 23.6718 8.8744 23.2379 9.33187Z" fill="#3F3C44"/>
<path d="M23.444 7.32886C23.2467 7.37683 21.3185 8.67437 21.0215 8.96454C21.9404 8.58545 22.7977 8.11394 23.444 7.32886Z" fill="#3F3C44"/>
<path d="M20.0194 11.1209C20.3292 11.1127 20.4475 10.9407 20.4522 10.6517C20.4533 10.606 20.4777 10.5604 20.4788 10.5148C20.4823 10.2492 20.5833 9.98477 20.4893 9.67822C20.3976 9.77884 20.3733 9.86543 20.3559 9.95786C20.3234 10.131 20.2689 10.303 20.2538 10.4773C20.2294 10.7675 20.1215 10.9641 19.8094 10.9968C19.7746 11.0003 19.7375 11.0191 19.7073 11.0378C19.5588 11.1326 19.5507 11.2964 19.6853 11.4098C19.8025 11.5093 20.0183 11.5093 20.1911 11.4063C20.0786 11.3139 19.8895 11.4005 19.8059 11.2507C19.8547 11.1501 19.9417 11.122 20.0194 11.1209Z" fill="#3F3C44"/>
<path d="M29.3632 20.034C29.5512 20.0316 29.7264 19.972 29.9085 19.9369C30.3007 19.862 30.3018 19.8655 30.3923 19.7532C29.6707 19.7462 28.9711 19.8117 28.29 20.055C28.4617 20.1182 28.6404 20.1089 28.811 20.0784C28.9954 20.0469 29.1787 20.0363 29.3632 20.034Z" fill="#3F3C44"/>
<path d="M18.1052 14.3957C18.3744 14.2191 18.5751 13.978 18.7375 13.7008C18.7607 13.6621 18.7688 13.613 18.7804 13.5685C18.7932 13.5217 18.792 13.4714 18.7514 13.4398C18.7108 13.4094 18.6598 13.4211 18.6203 13.4457C18.5739 13.4749 18.531 13.5124 18.4927 13.551C18.234 13.8049 18.0089 14.0857 17.7861 14.3993C17.9138 14.4636 18.0159 14.4554 18.1052 14.3957Z" fill="#3F3C44"/>
<path d="M17.9079 12.8819C17.8511 12.8666 17.8256 12.9134 17.8024 12.9509C17.6098 13.2563 17.3928 13.5394 17.112 13.7699C17.0668 13.8073 16.9833 13.8401 17.025 13.9208C17.0691 14.0051 17.1515 13.9758 17.2223 13.9571C17.4914 13.8869 17.6515 13.6763 17.7954 13.4645C17.887 13.33 17.9532 13.1697 17.9567 12.9755C17.9555 12.9521 17.9659 12.8982 17.9079 12.8819Z" fill="#3F3C44"/>
<path d="M12.1661 13.1438C12.2206 13.2701 12.2775 13.4 12.3911 13.4877C12.4793 13.5544 12.5652 13.5357 12.6418 13.4655C12.7044 13.4082 12.7531 13.338 12.7624 13.2514C12.7717 13.1566 12.8204 13.1028 12.8982 13.0572C12.9504 13.0268 13.0142 12.9963 13.0304 12.8758C12.7554 12.8723 12.5118 12.9694 12.2577 12.9998C12.187 13.008 12.1359 13.0747 12.1661 13.1438Z" fill="#3F3C44"/>
<path d="M30.7387 22.4688C30.7352 22.2781 30.7584 22.0827 30.5913 21.9014C30.473 22.1167 30.4742 22.3132 30.4846 22.5086C30.4916 22.6326 30.4451 22.7063 30.3326 22.7391C30.2421 22.7648 30.1563 22.7953 30.1006 22.8783C30.0368 22.9719 30.0576 23.0515 30.1621 23.0632C30.2862 23.0772 30.4161 23.0936 30.5229 23.0106C30.5148 22.9275 30.4208 22.9462 30.4103 22.862C30.5426 22.7613 30.7433 22.7005 30.7387 22.4688Z" fill="#3F3C44"/>
<path d="M29.6014 20.515C29.3636 20.4179 28.4192 20.4459 28.2266 20.5548C28.4957 20.7408 29.2847 20.7174 29.6014 20.515Z" fill="#3F3C44"/>
<path d="M26.5117 13.7219C26.5964 14.2309 26.7751 14.6603 27.1139 15.0148C27.0849 14.5854 26.7983 14.259 26.6707 13.8705C26.6521 13.8132 26.6196 13.7418 26.5117 13.7219Z" fill="#3F3C44"/>
<path d="M18.5186 8.82299C19.029 8.62057 19.5117 8.36902 19.9386 8.01685C19.4386 8.23798 18.9467 8.47315 18.5186 8.82299Z" fill="#3F3C44"/>
<path d="M20.6211 12.126C20.8415 12.5098 21.2511 12.4852 21.5063 12.0535C21.1931 12.1751 20.9251 12.236 20.6211 12.126Z" fill="#3F3C44"/>
<path d="M19.7216 14.3151C19.7157 14.2332 19.6334 14.1946 19.5603 14.2472C19.4361 14.3362 19.3897 14.4836 19.3166 14.6088C19.2818 14.6696 19.3549 14.7035 19.4129 14.7C19.5336 14.6918 19.7308 14.4415 19.7216 14.3151Z" fill="#3F3C44"/>
<path d="M26.0938 14.1816C26.1564 14.4624 26.226 14.7409 26.4232 14.9609C26.3676 14.5666 26.2979 14.4098 26.0938 14.1816Z" fill="#3F3C44"/>
<path d="M31.6284 23.9021C31.6551 23.8214 31.7502 23.7465 31.6736 23.6553C31.6063 23.5745 31.5193 23.6553 31.4416 23.6693C31.4079 23.6751 31.3778 23.7021 31.3232 23.7313C31.4045 23.8109 31.4683 23.736 31.5309 23.7641C31.5936 23.7921 31.5031 23.908 31.6284 23.9021Z" fill="#3F3C44"/>
<path d="M10.3667 11.5083C10.2669 11.5106 10.2611 11.582 10.2495 11.644C10.2344 11.7318 10.2692 11.7938 10.362 11.7961C10.4409 11.7985 10.4746 11.7411 10.4734 11.6674C10.4722 11.589 10.4467 11.5235 10.3667 11.5083Z" fill="#3F3C44"/>
<path d="M23.0324 11.0788C23.1206 11.0601 23.138 10.9911 23.1345 10.9127C23.1322 10.86 23.0986 10.8238 23.0464 10.832C22.9547 10.8472 22.9501 10.9338 22.9396 11.0016C22.9303 11.0554 22.9791 11.0765 23.0324 11.0788Z" fill="#3F3C44"/>
<path d="M14.6565 11.1841C14.6531 11.1256 14.6403 11.0659 14.5719 11.0624C14.4953 11.0589 14.493 11.1291 14.4872 11.1806C14.4802 11.2461 14.5173 11.287 14.5846 11.2812C14.6391 11.2777 14.6577 11.2355 14.6565 11.1841Z" fill="#3F3C44"/>
<path d="M18.6214 10.282C18.6156 10.3324 18.6295 10.3733 18.6759 10.385C18.7409 10.3909 18.771 10.3581 18.778 10.3078C18.7849 10.2505 18.7768 10.1884 18.7026 10.1873C18.6492 10.1861 18.626 10.2329 18.6214 10.282Z" fill="#3F3C44"/>
<path d="M32.5202 22.4315C32.555 22.4268 32.5701 22.3835 32.5701 22.3438C32.5643 22.2841 32.5086 22.2197 32.4703 22.2326C32.4285 22.2478 32.4274 22.2888 32.4332 22.3227C32.4436 22.3718 32.4425 22.442 32.5202 22.4315Z" fill="#3F3C44"/>
<path d="M29.2532 22.2291C29.2451 22.2677 29.259 22.311 29.2938 22.318C29.3553 22.3297 29.3646 22.2782 29.3623 22.2314C29.3611 22.1963 29.3553 22.1589 29.3089 22.1519C29.2602 22.1565 29.2602 22.1963 29.2532 22.2291Z" fill="#3F3C44"/>
</svg>
