<?xml version="1.0" encoding="UTF-8"?>
<svg width="81px" height="31px" viewBox="0 0 81 31" version="1.1" xmlns="http://www.w3.org/2000/svg" xmlns:xlink="http://www.w3.org/1999/xlink">
    <!-- Generator: Sketch 52.5 (67469) - http://www.bohemiancoding.com/sketch -->
    <title>trustpilot_white</title>
    <desc>Created with Sketch.</desc>
    <g id="Landing-Pages" stroke="none" stroke-width="1" fill="none" fill-rule="evenodd">
        <g id="T&amp;W-landing-v2-2" transform="translate(-131.000000, -571.000000)">
            <g id="trustpilot_white" transform="translate(131.000000, 571.000000)">
                <g id="Trustpilot---Five-stars">
                    <g id="Group-9">
                        <path d="M49.0244147,15.1060667 L63.8053477,15.1060667 L63.8053477,0 L49.0244147,0 L49.0244147,15.1060667 Z M32.6793,15.1060667 L47.460233,15.1060667 L47.460233,0 L32.6793,0 L32.6793,15.1060667 Z M16.3339311,15.1060667 L31.1148641,15.1060667 L31.1148641,0 L16.3339311,0 L16.3339311,15.1060667 Z M0,15.1060667 L0,0 L14.780933,0 L14.780933,15.1060667 L0,15.1060667 Z M65.3586,15.1060667 L65.3586,0 L80.139533,0 L80.139533,15.1060667 L65.3586,15.1060667 Z" id="Fill-27" fill="#00B67A"></path>
                        <g id="Group-2" transform="translate(2.033385, 2.337878)" fill="#FFFFFF">
                            <polygon id="Fill-28" points="10.5670721 4.08975332 6.60883312 4.08975332 5.38575178 0.242385962 4.16267043 4.08975332 0.204431489 4.08975332 3.40675939 6.46737491 2.18342387 10.3144825"></polygon>
                            <polygon id="Fill-29" points="5.38605679 7.93714665 8.58787634 10.3145085 7.6756488 7.44489352"></polygon>
                        </g>
                        <g id="Group-5" transform="translate(67.355893, 2.337878)" fill="#FFFFFF">
                            <polygon id="Fill-30" points="10.6033172 4.08975332 6.64507822 4.08975332 5.42199687 0.242385962 4.19891553 4.08975332 0.240676585 4.08975332 3.44300449 6.46737491 2.21992314 10.3144825"></polygon>
                            <polygon id="Fill-31" points="5.42230188 7.93714665 8.62412144 10.3145085 7.71189389 7.44489352"></polygon>
                        </g>
                        <g id="Group-4" transform="translate(51.088809, 2.337878)" fill="#FFFFFF">
                            <polygon id="Fill-32" points="10.5361646 4.08975332 6.57792566 4.08975332 5.35484432 0.242385962 4.13176297 4.08975332 0.17352403 4.08975332 3.37585193 6.46737491 2.15277059 10.3144825"></polygon>
                            <polygon id="Fill-33" points="5.35514933 7.93714665 8.55696888 10.3145085 7.64474134 7.44489352"></polygon>
                        </g>
                        <g id="Group-3" transform="translate(34.821726, 2.337878)" fill="#FFFFFF">
                            <polygon id="Fill-34" points="10.458591 4.08975332 6.50035201 4.08975332 5.27727066 0.242385962 4.05418932 4.08975332 0.0959503757 4.08975332 3.29827828 6.46737491 2.07494276 10.3144825"></polygon>
                            <polygon id="Fill-35" points="5.27757567 7.93714665 8.47939523 10.3145085 7.56716768 7.44489352"></polygon>
                        </g>
                        <g id="Group-7" transform="translate(18.486056, 2.608696)" fill="#FFFFFF">
                            <polygon id="Fill-36" points="10.5179283 3.86134759 6.50047232 3.86134759 5.25883516 0 4.01771394 3.86134759 0 3.86134759 3.25049414 6.24760877 2.00885697 10.1086957"></polygon>
                            <polygon id="Fill-37" points="5.09960159 7.67734502 8.28685259 10.1086957 7.37877576 7.17391304"></polygon>
                        </g>
                    </g>
                    <g id="Group-9">
                        <path d="M49.0244147,15.1060667 L63.8053477,15.1060667 L63.8053477,0 L49.0244147,0 L49.0244147,15.1060667 Z M32.6793,15.1060667 L47.460233,15.1060667 L47.460233,0 L32.6793,0 L32.6793,15.1060667 Z M16.3339311,15.1060667 L31.1148641,15.1060667 L31.1148641,0 L16.3339311,0 L16.3339311,15.1060667 Z M0,15.1060667 L0,0 L14.780933,0 L14.780933,15.1060667 L0,15.1060667 Z M65.3586,15.1060667 L65.3586,0 L80.139533,0 L80.139533,15.1060667 L65.3586,15.1060667 Z" id="Fill-27" fill="#00B67A"></path>
                        <path d="M49.0244147,15.1060667 L63.8053477,15.1060667 L63.8053477,0 L49.0244147,0 L49.0244147,15.1060667 Z M32.6793,15.1060667 L47.460233,15.1060667 L47.460233,0 L32.6793,0 L32.6793,15.1060667 Z M16.3339311,15.1060667 L31.1148641,15.1060667 L31.1148641,0 L16.3339311,0 L16.3339311,15.1060667 Z M0,15.1060667 L0,0 L14.780933,0 L14.780933,15.1060667 L0,15.1060667 Z M65.3586,15.1060667 L65.3586,0 L80.139533,0 L80.139533,15.1060667 L65.3586,15.1060667 Z" id="Fill-27" fill="#00B67A"></path>
                        <g id="Group-2" transform="translate(2.033385, 2.337878)" fill="#FFFFFF">
                            <polygon id="Fill-28" points="10.5670721 4.08975332 6.60883312 4.08975332 5.38575178 0.242385962 4.16267043 4.08975332 0.204431489 4.08975332 3.40675939 6.46737491 2.18342387 10.3144825"></polygon>
                            <polygon id="Fill-29" points="5.38605679 7.93714665 8.58787634 10.3145085 7.6756488 7.44489352"></polygon>
                        </g>
                        <g id="Group-5" transform="translate(67.355893, 2.337878)" fill="#FFFFFF">
                            <polygon id="Fill-30" points="10.6033172 4.08975332 6.64507822 4.08975332 5.42199687 0.242385962 4.19891553 4.08975332 0.240676585 4.08975332 3.44300449 6.46737491 2.21992314 10.3144825"></polygon>
                            <polygon id="Fill-31" points="5.42230188 7.93714665 8.62412144 10.3145085 7.71189389 7.44489352"></polygon>
                        </g>
                        <g id="Group-4" transform="translate(51.088809, 2.337878)" fill="#FFFFFF">
                            <polygon id="Fill-32" points="10.5361646 4.08975332 6.57792566 4.08975332 5.35484432 0.242385962 4.13176297 4.08975332 0.17352403 4.08975332 3.37585193 6.46737491 2.15277059 10.3144825"></polygon>
                            <polygon id="Fill-33" points="5.35514933 7.93714665 8.55696888 10.3145085 7.64474134 7.44489352"></polygon>
                        </g>
                        <g id="Group-3" transform="translate(34.821726, 2.337878)" fill="#FFFFFF">
                            <polygon id="Fill-34" points="10.458591 4.08975332 6.50035201 4.08975332 5.27727066 0.242385962 4.05418932 4.08975332 0.0959503757 4.08975332 3.29827828 6.46737491 2.07494276 10.3144825"></polygon>
                            <polygon id="Fill-35" points="5.27757567 7.93714665 8.47939523 10.3145085 7.56716768 7.44489352"></polygon>
                        </g>
                        <g id="Group-7" transform="translate(18.486056, 2.608696)" fill="#FFFFFF">
                            <polygon id="Fill-36" points="10.5179283 3.86134759 6.50047232 3.86134759 5.25883516 0 4.01771394 3.86134759 0 3.86134759 3.25049414 6.24760877 2.00885697 10.1086957"></polygon>
                            <polygon id="Fill-37" points="5.09960159 7.67734502 8.28685259 10.1086957 7.37877576 7.17391304"></polygon>
                        </g>
                    </g>
                </g>
                <g id="Trustpilot---logo" transform="translate(0.000000, 19.000000)">
                    <g id="Trustpilot_brandmark_gr-wht_RGB">
                        <g id="Type" transform="translate(12.571510, 4.176203)" fill="#FFFFFF" fill-rule="nonzero">
                            <path d="M0.0296298204,0.0255685902 L4.88468754,0.0255685902 L4.88468754,0.937514974 L2.97568053,0.937514974 L2.97568053,6.06401731 L1.92593833,6.06401731 L1.92593833,0.937514974 L0.0253969889,0.937514974 L0.0253969889,0.0255685902 L0.0296298204,0.0255685902 Z M4.67727879,1.69178838 L5.57463907,1.69178838 L5.57463907,2.53555186 L5.59157039,2.53555186 C5.62120021,2.41623177 5.67622702,2.30117312 5.75665082,2.19037589 C5.83707462,2.07957867 5.93442974,1.97304288 6.04871619,1.88355281 C6.16300264,1.78980131 6.28998759,1.71735697 6.42967103,1.65769693 C6.56935447,1.60229832 6.71327074,1.5724683 6.85718701,1.5724683 C6.96724063,1.5724683 7.04766442,1.57672973 7.08999274,1.58099116 C7.13232105,1.58525259 7.17464937,1.59377546 7.22121052,1.59803689 L7.22121052,2.527029 C7.15348521,2.5142447 7.08575991,2.50572184 7.01380177,2.49719898 C6.94184364,2.48867611 6.87411833,2.48441468 6.80639303,2.48441468 C6.64554543,2.48441468 6.4931635,2.51850613 6.34924723,2.58242761 C6.20533096,2.64634909 6.08257885,2.74436201 5.97675806,2.86794353 C5.87093727,2.99578648 5.78628064,3.14919803 5.72278817,3.33670102 C5.6592957,3.52420402 5.62966588,3.7372756 5.62966588,3.98017721 L5.62966588,6.05975588 L4.67304596,6.05975588 L4.67304596,1.69178838 L4.67727879,1.69178838 Z M11.6191224,6.06401731 L10.6794338,6.06401731 L10.6794338,5.45463257 L10.6625025,5.45463257 C10.5439832,5.67622702 10.3704371,5.85094572 10.1376314,5.98305011 C9.90482568,6.11515449 9.66778711,6.1833374 9.42651572,6.1833374 C8.85508347,6.1833374 8.44026598,6.04271015 8.18629609,5.75719423 C7.93232621,5.4716783 7.80534126,5.0412737 7.80534126,4.46598042 L7.80534126,1.69178838 L8.76196118,1.69178838 L8.76196118,4.37222892 C8.76196118,4.75575778 8.83391931,5.02848941 8.98206841,5.18616238 C9.12598468,5.34383535 9.33339343,5.42480255 9.59582898,5.42480255 C9.79900489,5.42480255 9.96408532,5.39497253 10.0995359,5.33105106 C10.2349865,5.26712958 10.3450402,5.18616238 10.425464,5.07962659 C10.5101206,4.97735222 10.5693802,4.84950927 10.6074757,4.7046206 C10.6455712,4.55973192 10.6625025,4.40205895 10.6625025,4.23160168 L10.6625025,1.69604982 L11.6191224,1.69604982 L11.6191224,6.06401731 Z M13.2487626,4.66200628 C13.2783924,4.94326077 13.3842132,5.13928663 13.5662249,5.25434529 C13.7524695,5.36514251 13.9725767,5.42480255 14.2307795,5.42480255 C14.3196689,5.42480255 14.4212569,5.41627969 14.5355433,5.40349539 C14.6498298,5.3907111 14.7598834,5.36088108 14.8572385,5.32252819 C14.9588265,5.28417531 15.0392503,5.22451526 15.1069756,5.14780949 C15.170468,5.07110372 15.2000979,4.97309079 15.195865,4.84950927 C15.1916322,4.72592775 15.1450711,4.62365339 15.0604144,4.54694762 C14.9757578,4.46598042 14.869937,4.40632038 14.7387192,4.3551832 C14.6075015,4.30830745 14.4593524,4.26569313 14.2900391,4.23160168 C14.1207258,4.19751022 13.9514126,4.15915734 13.7778665,4.12080445 C13.6000876,4.08245157 13.4265415,4.03131439 13.261461,3.97591578 C13.0963806,3.92051716 12.9482315,3.84381139 12.8170137,3.74579846 C12.685796,3.65204697 12.5799752,3.52846545 12.5037842,3.37931534 C12.4233604,3.23016523 12.3852649,3.04692366 12.3852649,2.82532922 C12.3852649,2.58668904 12.4445246,2.39066318 12.558811,2.22872878 C12.6730975,2.06679437 12.8212466,1.93895142 12.9947927,1.84093849 C13.1725716,1.74292556 13.3672818,1.67474266 13.5831562,1.63212834 C13.7990306,1.59377546 14.0064394,1.5724683 14.2011496,1.5724683 C14.4254897,1.5724683 14.6413641,1.59803689 14.84454,1.64491264 C15.0477159,1.69178838 15.2339605,1.76849416 15.3990409,1.87929138 C15.5641214,1.98582717 15.699572,2.12645442 15.8096256,2.29691169 C15.9196792,2.46736895 15.9874045,2.67617911 16.0170343,2.91908071 L15.0180861,2.91908071 C14.971525,2.6889634 14.869937,2.53129043 14.7048566,2.45458466 C14.5397762,2.37361746 14.3492987,2.33526457 14.1376572,2.33526457 C14.0699319,2.33526457 13.9895081,2.339526 13.8963858,2.3523103 C13.8032635,2.36509459 13.7186068,2.38640175 13.6339502,2.41623177 C13.5535264,2.4460618 13.4858011,2.49293754 13.4265415,2.55259759 C13.3715147,2.61225763 13.3418848,2.6889634 13.3418848,2.78697633 C13.3418848,2.90629642 13.3842132,3.00004792 13.464637,3.07249226 C13.5450608,3.14493659 13.6508815,3.20459664 13.7820993,3.25573382 C13.9133171,3.30260957 14.0614662,3.34522388 14.2307795,3.37931534 C14.4000927,3.41340679 14.5736388,3.45175968 14.7514177,3.49011256 C14.9249638,3.52846545 15.0942771,3.57960263 15.2635903,3.63500124 C15.4329036,3.69039985 15.5810527,3.76710562 15.7122705,3.86511855 C15.8434883,3.96313148 15.949309,4.08245157 16.0297328,4.22734025 C16.1101566,4.37222892 16.152485,4.55547049 16.152485,4.76854207 C16.152485,5.02848941 16.0932253,5.24582242 15.974706,5.42906398 C15.8561867,5.60804412 15.7038048,5.75719423 15.5175602,5.86799145 C15.3313156,5.97878867 15.1196741,6.06401731 14.8911012,6.11515449 C14.6625283,6.16629167 14.4339554,6.19186026 14.2096153,6.19186026 C13.9344813,6.19186026 13.6805114,6.16203024 13.4477056,6.09810876 C13.2148999,6.03418729 13.011724,5.94043579 12.8424107,5.81685427 C12.6730975,5.68901132 12.5376469,5.53133835 12.4402917,5.34383535 C12.3429366,5.15633236 12.2921426,4.93047648 12.283677,4.67052914 L13.2487626,4.67052914 L13.2487626,4.66200628 Z M16.4064548,1.69178838 L17.130269,1.69178838 L17.130269,0.379267421 L18.0868889,0.379267421 L18.0868889,1.69178838 L18.9503866,1.69178838 L18.9503866,2.41197034 L18.0868889,2.41197034 L18.0868889,4.74723491 C18.0868889,4.84950927 18.0911218,4.93473791 18.0995874,5.01144368 C18.1080531,5.08388802 18.1292173,5.14780949 18.1588471,5.19894667 C18.1884769,5.25008385 18.235038,5.28843674 18.2985305,5.31400533 C18.362023,5.33957392 18.4424468,5.35235821 18.5525004,5.35235821 C18.6202257,5.35235821 18.687951,5.35235821 18.7556763,5.34809678 C18.8234016,5.34383535 18.8911269,5.33531249 18.9588522,5.31826676 L18.9588522,6.06401731 C18.8530314,6.0768016 18.7472107,6.08532447 18.6498555,6.09810876 C18.5482676,6.11089306 18.4466796,6.11515449 18.3408588,6.11515449 C18.0868889,6.11515449 17.883713,6.0895859 17.7313311,6.04271015 C17.5789492,5.9958344 17.4561971,5.92339006 17.3715404,5.82963856 C17.282651,5.73588707 17.2276241,5.62082841 17.1937615,5.48020117 C17.1641317,5.33957392 17.1429675,5.17763951 17.1387347,4.99865938 L17.1387347,2.42049321 L16.4149205,2.42049321 L16.4149205,1.69178838 L16.4064548,1.69178838 Z M19.6276396,1.69178838 L20.5334655,1.69178838 L20.5334655,2.28412739 L20.5503969,2.28412739 C20.6858475,2.02844149 20.8720921,1.84946136 21.1133635,1.73866413 C21.3546348,1.62786691 21.6128376,1.5724683 21.8964373,1.5724683 C22.2392966,1.5724683 22.5355948,1.63212834 22.7895647,1.75570986 C23.0435346,1.87502995 23.2551762,2.04122578 23.4244894,2.25429737 C23.5938027,2.46736895 23.7165548,2.71453199 23.8012114,2.99578648 C23.8858681,3.27704098 23.9281964,3.57960263 23.9281964,3.89921 C23.9281964,4.19324879 23.8901009,4.47876472 23.8139099,4.75149634 C23.737719,5.02848941 23.6234325,5.27139101 23.4710506,5.4844626 C23.3186687,5.69753418 23.1239584,5.86373002 22.8869198,5.99157297 C22.6498813,6.11941592 22.3747472,6.1833374 22.053052,6.1833374 C21.9133686,6.1833374 21.7736852,6.1705531 21.6340017,6.14498451 C21.4943183,6.11941592 21.3588677,6.0768016 21.2318827,6.02140299 C21.1048978,5.96600438 20.9821457,5.89356004 20.8763249,5.80406997 C20.7662713,5.71457991 20.6773818,5.61230555 20.6011908,5.49724689 L20.5842595,5.49724689 L20.5842595,7.67909992 L19.6276396,7.67909992 L19.6276396,1.69178838 Z M22.9715765,3.88216428 C22.9715765,3.68613842 22.9461795,3.49437399 22.8953855,3.306871 C22.8445915,3.119368 22.7684006,2.9574336 22.6668126,2.81254492 C22.5652247,2.66765624 22.4382397,2.55259759 22.2900906,2.46736895 C22.1377087,2.38214032 21.9641626,2.33526457 21.7694523,2.33526457 C21.3673333,2.33526457 21.0625695,2.47589182 20.8593936,2.75714631 C20.6562177,3.0384008 20.5546297,3.41340679 20.5546297,3.88216428 C20.5546297,4.10375873 20.5800267,4.30830745 20.6350535,4.49581044 C20.6900803,4.68331344 20.7662713,4.84524784 20.8763249,4.98161366 C20.9821457,5.11797947 21.1091306,5.22451526 21.2572797,5.30122103 C21.4054288,5.38218824 21.5789749,5.42054112 21.7736852,5.42054112 C21.9937924,5.42054112 22.1758042,5.37366537 22.3281861,5.28417531 C22.480568,5.19468524 22.6033201,5.07536515 22.7006753,4.93473791 C22.7980304,4.78984923 22.8699885,4.62791483 22.9123168,4.44467326 C22.9504123,4.2614317 22.9715765,4.0739287 22.9715765,3.88216428 Z M24.6604762,0.0255685902 L25.6170962,0.0255685902 L25.6170962,0.937514974 L24.6604762,0.937514974 L24.6604762,0.0255685902 Z M24.6604762,1.69178838 L25.6170962,1.69178838 L25.6170962,6.06401731 L24.6604762,6.06401731 L24.6604762,1.69178838 Z M26.4721281,0.0255685902 L27.428748,0.0255685902 L27.428748,6.06401731 L26.4721281,6.06401731 L26.4721281,0.0255685902 Z M30.3621003,6.1833374 C30.0150081,6.1833374 29.7060114,6.12367735 29.4351102,6.0086187 C29.1642089,5.89356004 28.935636,5.73162564 28.7451586,5.53133835 C28.558914,5.32678962 28.4149978,5.08388802 28.3176426,4.80263352 C28.2202875,4.52137903 28.1694935,4.21029452 28.1694935,3.87364141 C28.1694935,3.54124974 28.2202875,3.23442666 28.3176426,2.95317217 C28.4149978,2.67191768 28.558914,2.42901607 28.7451586,2.22446735 C28.9314032,2.01991863 29.1642089,1.86224565 29.4351102,1.747187 C29.7060114,1.63212834 30.0150081,1.5724683 30.3621003,1.5724683 C30.7091924,1.5724683 31.0181891,1.63212834 31.2890903,1.747187 C31.5599916,1.86224565 31.7885645,2.02418006 31.9790419,2.22446735 C32.1652865,2.42901607 32.3092027,2.67191768 32.4065579,2.95317217 C32.503913,3.23442666 32.554707,3.54124974 32.554707,3.87364141 C32.554707,4.21029452 32.503913,4.52137903 32.4065579,4.80263352 C32.3092027,5.08388802 32.1652865,5.32678962 31.9790419,5.53133835 C31.7927973,5.73588707 31.5599916,5.89356004 31.2890903,6.0086187 C31.0181891,6.12367735 30.7091924,6.1833374 30.3621003,6.1833374 Z M30.3621003,5.42054112 C30.5737418,5.42054112 30.7599864,5.37366537 30.9166012,5.28417531 C31.0732159,5.19468524 31.2002009,5.07536515 31.3017888,4.93047648 C31.4033768,4.7855878 31.4753349,4.61939196 31.5261289,4.4361504 C31.5726901,4.25290884 31.598087,4.06540584 31.598087,3.87364141 C31.598087,3.68613842 31.5726901,3.50289686 31.5261289,3.31539386 C31.4795678,3.12789087 31.4033768,2.96595646 31.3017888,2.82106778 C31.2002009,2.67617911 31.0732159,2.56112045 30.9166012,2.47163039 C30.7599864,2.38214032 30.5737418,2.33526457 30.3621003,2.33526457 C30.1504587,2.33526457 29.9642141,2.38214032 29.8075993,2.47163039 C29.6509846,2.56112045 29.5239996,2.68044054 29.4224117,2.82106778 C29.3208237,2.96595646 29.2488656,3.12789087 29.1980716,3.31539386 C29.1515104,3.50289686 29.1261135,3.68613842 29.1261135,3.87364141 C29.1261135,4.06540584 29.1515104,4.25290884 29.1980716,4.4361504 C29.2446327,4.61939196 29.3208237,4.7855878 29.4224117,4.93047648 C29.5239996,5.07536515 29.6509846,5.19468524 29.8075993,5.28417531 C29.9642141,5.3779268 30.1504587,5.42054112 30.3621003,5.42054112 Z M32.8340738,1.69178838 L33.557888,1.69178838 L33.557888,0.379267421 L34.5145079,0.379267421 L34.5145079,1.69178838 L35.3780056,1.69178838 L35.3780056,2.41197034 L34.5145079,2.41197034 L34.5145079,4.74723491 C34.5145079,4.84950927 34.5187408,4.93473791 34.5272064,5.01144368 C34.5356721,5.08388802 34.5568363,5.14780949 34.5864661,5.19894667 C34.6160959,5.25008385 34.662657,5.28843674 34.7261495,5.31400533 C34.789642,5.33957392 34.8700658,5.35235821 34.9801194,5.35235821 C35.0478447,5.35235821 35.11557,5.35235821 35.1832953,5.34809678 C35.2510206,5.34383535 35.3187459,5.33531249 35.3864712,5.31826676 L35.3864712,6.06401731 C35.2806504,6.0768016 35.1748297,6.08532447 35.0774745,6.09810876 C34.9758866,6.11089306 34.8742986,6.11515449 34.7684778,6.11515449 C34.5145079,6.11515449 34.311332,6.0895859 34.1589501,6.04271015 C34.0065682,5.9958344 33.883816,5.92339006 33.7991594,5.82963856 C33.71027,5.73588707 33.6552431,5.62082841 33.6213805,5.48020117 C33.5917507,5.33957392 33.5705865,5.17763951 33.5663537,4.99865938 L33.5663537,2.42049321 L32.8425395,2.42049321 L32.8425395,1.69178838 L32.8340738,1.69178838 Z" id="Shape"></path>
                        </g>
                        <g id="Star" fill-rule="nonzero">
                            <polygon id="Shape" fill="#00B67A" points="11.4836718 4.20177166 7.0984584 4.20177166 5.74395233 0 4.38521342 4.20177166 0 4.19751022 3.55134562 6.79698356 2.19260671 10.9944938 5.74395233 8.39928188 9.29106511 10.9944938 7.93655904 6.79698356 11.4836718 4.20177166 11.4836718 4.20177166"></polygon>
                            <polygon id="Shape" fill="#005128" points="8.2413229 7.74728283 7.93655904 6.79698356 5.74395233 8.39928188"></polygon>
                        </g>
                    </g>
                </g>
            </g>
        </g>
    </g>
</svg>