<svg height="50" viewBox="0 0 72 50" width="72" xmlns="http://www.w3.org/2000/svg"><g fill="#fff" fill-rule="evenodd" transform=""><path d="m42.3047342 44.6222549-3.1176986-11.6137255h-4.094137l-3.1492602 11.6137255-2.5762192-10.3264706c-.9241644 1.2058824-2.0889863 2.0852941-3.475726 2.6068628-.1173699.0441176-.2396713.0852941-.362959.1254902l3.7065206 12.3529411h4.8496438l3.0555617-10.4872549 3.0230137 10.4872549h4.8496438l4.9443288-16.372549h-4.7233973z"/><path d="m28.2226192 33.1415686c.7633972-1.0656862 1.1500274-2.2607843 1.1500274-3.5539215 0-1.3872549-.4586302-2.5931373-1.3660274-3.5852942-.9231781-1.0068627-2.0919452-1.5166666-3.475726-1.5166666-1.3157261 0-2.4213699.3549019-3.2883288 1.0539215-.906411.7313726-1.3650411 1.5882353-1.3650411 2.5480393 0 .6284313.196274 1.1862745.5819178 1.6578431.2860274.35.8265205.7686274 1.7733699.7686274.6420822 0 1.191452-.2196078 1.633315-.65.4448219-.4343137.6696987-.9519607.6696987-1.5382352 0-.4754902-.1686576-.9578432-.5020274-1.4343138-.1795069-.2578431-.2012055-.3598039-.1903562-.3696078.0542466-.0294118.2238904-.1.6529315-.1.690411 0 1.243726.2254902 1.6885479.6911765.4527124.4735294.6736439 1.0715686.6736439 1.8264705 0 1.3196079-.5217534 2.2715687-1.5968219 2.9127451-1.1549589.7-3.086137 1.0539216-5.7392877 1.0539216-3.2942466 0-5.5301918.6196079-6.8380274 1.8941177-1.2920548 1.2607843-1.9479452 2.690196-1.9479452 4.2490196 0 1.117647.3984657 2.0735294 1.1845479 2.8421568.7831233.7637255 1.7309589 1.1519608 2.8168767 1.1519608.9369864 0 1.7220822-.2980392 2.3335891-.8843137.6174246-.5931373.9300822-1.3421569.9300822-2.2235294 0-.6705883-.2140274-1.2098039-.6351781-1.6058824-.4132603-.3862745-.9044384-.5813725-1.4626849-.5813725-.598685 0-1.1214247.2421568-1.5090411.6990196-.3669041.4343137-.5543014.9803921-.5543014 1.6245098 0 .0656863.0059178.1823529.019726.3578431l.0147946.1764706c0 .0401961-.0049316.0686275-.0078905.0882353-.0147945.0019608-.0325479.0029412-.0552328.0029412-.206137 0-.4349589-.1382353-.6785754-.4117647-.2672877-.2980392-.3964931-.6803922-.3964931-1.1686275 0-.8558823.4112876-1.5588235 1.2595068-2.1480392.916274-.6392157 1.9331507-.9490196 3.1088219-.9490196 1.4498631 0 2.5574795.3872549 3.3859726 1.1852941.8225754.7921569 1.2220274 1.6970588 1.2220274 2.7647059 0 1.6480392-.8501917 3.0392157-2.5969315 4.2539216-1.7911233 1.2470588-3.9856438 1.8784313-6.5214246 1.8784313-2.65808222 0-4.90487674-.8-6.68021921-2.3794117-1.75463013-1.5607843-2.64427397-3.2186275-2.64427397-4.9294118 0-.8303921.26432877-1.5264706.81172603-2.127451.53161644-.5843137 1.05435616-.867647 1.60076712-.867647.40832877 0 .85216439.2029411 1.32164384.6049019.66772603.5686275 1.24076712.8441177 1.74772603.8441177.63715068 0 1.00504109-.2882353 1.20131506-.5313726.2534795-.3137255.3826849-.6578431.3826849-1.0254902 0-.7343137-.3866301-1.9656862-2.97271229-1.9656862-.10257535 0-.13709589-.0196079-.13709589-.0196079-.00591781-.0049019-.10849315-.1156863-.29293151-.5911765-.13216438-.3431372-.19923288-.7843137-.19923288-1.3107843 0-1.1794117.48032877-2.2049019 1.46663014-3.1333333.99517808-.9392157 2.02290413-1.395098 3.14136983-1.395098.6588493 0 1.2003288.1686274 1.656.5147058.4112877.3137255.6026302.6892157.6026302 1.1843138 0 .3735294-.0769315.75-.2278356 1.1147059-.1814795.4333333-.2179726.612745-.2179726.7598039 0 .5460784.3757808.9264706.9143013.9264706.6371507 0 1.2151233-.3843138 1.7151781-1.1411765.4467945-.6764706.6746301-1.4235294.6746301-2.222549 0-1.0921569-.4753972-2.0372549-1.4123835-2.8078432-.9034521-.7411764-2.0337534-1.117647-3.3613151-1.117647-1.1667945 0-2.30399999.3137255-3.38202739.9323529-1.06323287.6107843-1.94991781 1.4254902-2.64032876 2.4215686-.70717809 1.0245098-1.06717809 2.1519608-1.06717809 3.35 0 .827451.17753425 1.7088236.52668493 2.6284314-1.54750684.3421569-2.76460274 1.0303922-3.62465753 2.0480392-.99419178 1.1754902-1.49819178 2.6362745-1.49819178 4.3421569 0 1.3784314.32745205 2.6872549.97150685 3.8892157.64109589 1.1941176 1.52975342 2.2166666 2.64328767 3.0392157 1.09084932.8049019 2.25468493 1.4274509 3.46290411 1.8480392 1.21512329.4245098 2.8060274.6401961 4.72832879.6401961 2.3690959 0 4.4146849-.3607844 6.0785753-1.0725491 1.6806576-.717647 3.1305206-1.8343137 4.3091507-3.3166666 1.2023014-1.5117647 1.8108493-3.1117647 1.8108493-4.7539216 0-1.7166667-.6085479-3.204902-1.8157808-4.4382353 1.2743014-.1196078 2.3069589-.3323529 3.1315068-.6421569 1.1677809-.4392156 2.1442192-1.2 2.902685-2.2598039z"/><path d="m10.4569644.98039216h4.2825205v3.44313725h3.0871233v3.50588235h-3.0871233v6.32352944c0 2.4421568.7555069 2.9431372 2.4253151 2.9431372.2830685 0 .4408767 0 .7870685-.0323529v3.6941176s-.6608219.1568628-1.8581918.1568628c-3.9363288 0-5.668274-2.1911765-5.668274-6.6362745v-6.44901964h-1.73194517v-3.50588235h1.76350687z"/><path d="m28.898137 8.80627451c-3.2429589 0-4.4403288 2.00294119-4.4403288 5.25882349v6.7303922h-4.3456438v-16.37156863h4.2509589v2.78627451c.7249315-1.62843137 2.3621918-2.78627451 4.5350137-2.78627451z"/><path d="m31.1539068 13.8772549v-9.45392157h4.3456439v9.95490197c0 1.8156863 1.2604931 2.9431372 2.7409315 2.9431372 1.7950685 0 2.9283288-1.3156862 2.9283288-3.0686274v-9.82941177h4.3466301v16.37254907h-4.2519452v-1.909804c-.6923836 1.1264706-2.2675069 2.3166667-4.4097534 2.3166667-4.6918357 0-5.6998357-3.8509804-5.6998357-7.3254902"/><path d="m47.8652055 18.1659804 2.5505753-2.2539216c.8186302.9392157 1.9213151 1.7843137 3.7795069 1.7843137 1.2279452 0 2.0150137-.5323529 2.0150137-1.4705882 0-2.5049019-7.7789589-1.5343137-7.7789589-7.35686273 0-3.0372549 2.6146849-4.85196079 5.9838904-4.85196079 3.1176986 0 4.8506301 1.62745098 5.6367123 2.91078432l-2.8652055 2.12843137c-.504-.6254902-1.417315-1.56470588-2.9608767-1.56470588-1.0070137 0-1.6993972.50098039-1.6993972 1.31470588 0 2.59803923 7.8095342 1.34607843 7.8095342 7.20000003 0 3.1931372-2.7715068 5.1960784-6.3290959 5.1960784-3.2439452 0-5.2599452-1.627451-6.1416986-3.0362745"/><path d="m63.9282082.98039216h4.2825206v3.44313725h3.086137v3.50588235h-3.086137v6.32352944c0 2.4421568.7555068 2.9431372 2.425315 2.9431372.2830685 0 .4408767 0 .7870685-.0323529v3.6941176s-.6608219.1568628-1.8581918.1568628c-3.9363287 0-5.6682739-2.1911765-5.6682739-6.6362745v-6.44901964h-1.7319452v-3.50588235h1.7635068z"/><path d="m53.9727781 26.7492157c-1.4173151 0-2.52 1.0647059-2.52 2.472549 0 1.4088235 1.1026849 2.4735294 2.52 2.4735294 1.4478904 0 2.5505753-1.0647059 2.5505753-2.4735294 0-1.4078431-1.1026849-2.472549-2.5505753-2.472549"/><path d="m51.830137 49.3802941h4.3456438v-16.3715686h-4.3456438z"/><path d="m59.4463562 49.3802941h4.3466301v-22.6323529h-4.3466301z"/><path d="m67.0635616 49.3802941h4.3456439v-22.6323529h-4.3456439z"/></g></svg>